SplineFontDB: 3.0
FontName: OxygenSans-Regular
FullName: OxygenSans-Regular
FamilyName: OxygenSans
Weight: Normal
Copyright: Copyright (c) 2011-12 by vernon adams. All rights reserved.
Version: 001.001
ItalicAngle: 0
UnderlinePosition: -50
UnderlineWidth: 50
Ascent: 1638
Descent: 410
sfntRevision: 0x00010041
LayerCount: 2
Layer: 0 0 "Back"  1
Layer: 1 0 "Fore"  0
XUID: [1021 14 500265001 4763026]
FSType: 256
OS2Version: 3
OS2_WeightWidthSlopeOnly: 0
OS2_UseTypoMetrics: 1
CreationTime: 1345159856
ModificationTime: 1345159856
PfmFamily: 81
TTFWeight: 400
TTFWidth: 5
LineGap: 0
VLineGap: 0
Panose: 0 0 5 0 0 0 0 0 0 0
OS2TypoAscent: 1638
OS2TypoAOffset: 0
OS2TypoDescent: -410
OS2TypoDOffset: 0
OS2TypoLinegap: 410
OS2WinAscent: 1950
OS2WinAOffset: 0
OS2WinDescent: 662
OS2WinDOffset: 0
HheadAscent: 1950
HheadAOffset: 0
HheadDescent: -662
HheadDOffset: 0
OS2SubXSize: 1331
OS2SubYSize: 1228
OS2SubXOff: 0
OS2SubYOff: 153
OS2SupXSize: 1331
OS2SupYSize: 1228
OS2SupXOff: 0
OS2SupYOff: 716
OS2StrikeYSize: 50
OS2StrikeYPos: 598
OS2Vendor: 'newt'
OS2CodePages: 2000019f.00000000
OS2UnicodeRanges: 0000028f.00000000.00000000.00000000
Lookup: 1 0 0 ""  {} []
Lookup: 258 0 0 "'kern' Horizontal Kerning lookup 0"  {"'kern' Horizontal Kerning lookup 0 subtable"  } ['kern' ('DFLT' <'dflt' > 'cyrl' <'dflt' > 'grek' <'dflt' > 'latn' <'dflt' > ) ]
DEI: 91125
LangName: 1033 "" "" "" "1.001;newt;OxygenSans-Regular" "" "Version 1.001;PS 001.001;hotconv 1.0.56;makeotf.lib2.0.21325 DEVELOPMENT" "" "Oxygen is a trademark of vernon adams." "vernon adams" "vernon adams" "Copyright (c) 2011 by vernon adams. All rights reserved." "newtypography.co.uk" "newtypography.co.uk" "" "" "" "" "" "OxygenSans Regular" 
Encoding: UnicodeBmp
UnicodeInterp: none
NameList: Adobe Glyph List
DisplaySize: -72
AntiAlias: 1
FitToEm: 1
WinInfo: 64 8 2
BeginPrivate: 3
BlueScale 5 0.037
BlueShift 2 14
BlueFuzz 1 0
EndPrivate
BeginChars: 65547 671

StartChar: .notdef
Encoding: 65536 -1 0
Width: 931
Flags: W
LayerCount: 2
Fore
SplineSet
93 0 m 1
 93 994 l 1
 839 994 l 1
 839 0 l 1
 93 0 l 1
186 93 m 1
 746 93 l 1
 746 901 l 1
 186 901 l 1
 186 93 l 1
EndSplineSet
EndChar

StartChar: exclam
Encoding: 33 33 2
Width: 484
Flags: W
LayerCount: 2
Fore
SplineSet
332 1232 m 1
 332 1361 l 1
 153 1361 l 1
 153 1232 l 1
 209 396 l 1
 281 396 l 1
 332 1232 l 1
364 109 m 0
 364 169 324 229 243 229 c 0
 163 229 122 169 122 109 c 0
 122 49 163 -11 243 -11 c 0
 324 -11 364 49 364 109 c 0
EndSplineSet
EndChar

StartChar: quotedbl
Encoding: 34 34 3
Width: 610
Flags: W
LayerCount: 2
Fore
SplineSet
126 925 m 1
 106 1374 l 1
 244 1374 l 1
 217 925 l 1
 126 925 l 1
386 925 m 1
 367 1374 l 1
 504 1374 l 1
 478 925 l 1
 386 925 l 1
EndSplineSet
EndChar

StartChar: numbersign
Encoding: 35 35 4
Width: 1079
Flags: W
LayerCount: 2
Fore
SplineSet
286 488 m 1
 119 488 l 1
 110 373 l 1
 266 373 l 1
 199 -21 l 1
 317 -21 l 1
 389 373 l 1
 603 373 l 1
 527 -21 l 1
 664 -21 l 1
 743 373 l 1
 884 373 l 1
 893 488 l 1
 759 488 l 1
 820 847 l 1
 954 847 l 1
 966 960 l 1
 841 960 l 1
 901 1330 l 1
 784 1330 l 1
 720 960 l 1
 507 960 l 1
 579 1330 l 1
 440 1330 l 1
 364 960 l 1
 188 960 l 1
 180 846 l 1
 341 846 l 1
 286 488 l 1
411 488 m 1
 484 847 l 1
 698 847 l 1
 626 488 l 1
 411 488 l 1
EndSplineSet
EndChar

StartChar: dollar
Encoding: 36 36 5
Width: 1166
Flags: W
LayerCount: 2
Fore
SplineSet
632 -177 m 1
 546 -177 l 1
 546 -19 l 1
 374 -12 209 43 131 91 c 1
 178 222 l 1
 289 167 392 119 589 119 c 0
 799 119 854 217 854 388 c 0
 854 497 774 565 606 623 c 2
 452 676 l 2
 269 739 133 829 133 1009 c 0
 133 1259 315 1351 546 1365 c 1
 546 1541 l 1
 632 1541 l 1
 632 1365 l 1
 737 1360 878 1332 964 1278 c 1
 918 1155 l 1
 831 1197 744 1223 576 1227 c 1
 408 1227 300 1160 300 1020 c 0
 300 914 384 862 511 819 c 2
 653 772 l 1
 851 705 1021 615 1021 393 c 0
 1021 127 884 -3 632 -18 c 1
 632 -177 l 1
EndSplineSet
EndChar

StartChar: percent
Encoding: 37 37 6
Width: 1657
Flags: W
LayerCount: 2
Fore
SplineSet
179 1005 m 0
 179 1133 236 1254 352 1254 c 0
 465 1254 526 1138 526 1005 c 0
 526 878 468 768 352 768 c 0
 238 768 179 871 179 1005 c 0
643 1005 m 0
 643 1206 530 1355 352 1355 c 0
 175 1355 64 1203 64 1005 c 0
 64 808 174 662 352 662 c 0
 529 662 643 808 643 1005 c 0
335 -4 m 1
 458 -4 l 1
 1206 1330 l 1
 1058 1330 l 1
 335 -4 l 1
1067 336 m 0
 1067 464 1136 582 1272 582 c 0
 1407 582 1478 469 1478 336 c 0
 1478 208 1408 89 1272 89 c 0
 1137 89 1067 203 1067 336 c 0
1593 336 m 0
 1593 537 1483 686 1272 686 c 0
 1065 686 952 534 952 336 c 0
 952 139 1062 -14 1272 -14 c 0
 1480 -14 1593 139 1593 336 c 0
EndSplineSet
EndChar

StartChar: ampersand
Encoding: 38 38 7
Width: 1258
Flags: W
LayerCount: 2
Fore
SplineSet
58 359 m 0
 58 556 183 671 365 763 c 1
 271 866 207 941 207 1060 c 0
 207 1242 346 1355 561 1355 c 0
 747 1355 915 1264 915 1076 c 0
 915 916 779 812 607 732 c 1
 972 341 l 1
 1024 396 1068 471 1101 545 c 1
 1211 461 l 1
 1175 381 1125 302 1067 234 c 1
 1231 37 l 1
 1185 20 1134 4 1088 -10 c 1
 965 130 l 1
 852 39 710 -21 528 -21 c 0
 216 -21 58 125 58 359 c 0
860 236 m 1
 724 381 595 516 459 661 c 1
 321 591 219 504 219 369 c 0
 219 213 337 120 536 120 c 0
 666 120 772 166 860 236 c 1
744 1066 m 0
 744 1172 660 1224 564 1224 c 0
 453 1224 378 1165 378 1060 c 0
 378 970 434 905 514 828 c 1
 638 889 744 950 744 1066 c 0
EndSplineSet
EndChar

StartChar: quoteright
Encoding: 8217 8217 8
Width: 425
Flags: W
LayerCount: 2
Fore
SplineSet
107 1003 m 1
 213 1003 l 1
 335 1432 l 1
 192 1432 l 1
 107 1003 l 1
EndSplineSet
EndChar

StartChar: parenleft
Encoding: 40 40 9
Width: 595
Flags: W
LayerCount: 2
Fore
SplineSet
273 548 m 0
 273 836 355 1114 508 1352 c 1
 367 1352 l 1
 210 1124 118 850 118 544 c 0
 118 246 215 -35 369 -247 c 1
 508 -247 l 1
 360 -19 273 274 273 548 c 0
EndSplineSet
EndChar

StartChar: parenright
Encoding: 41 41 10
Width: 598
Flags: W
LayerCount: 2
Fore
SplineSet
479 544 m 0
 479 848 385 1123 229 1352 c 1
 88 1352 l 1
 241 1114 324 836 324 548 c 0
 324 273 236 -20 89 -247 c 1
 228 -247 l 1
 381 -35 479 245 479 544 c 0
EndSplineSet
EndChar

StartChar: asterisk
Encoding: 42 42 11
Width: 1055
Flags: W
LayerCount: 2
Fore
SplineSet
148 1148 m 1
 103 993 l 1
 433 917 l 1
 207 614 l 1
 349 529 l 1
 521 858 l 1
 703 529 l 1
 749 559 798 584 844 614 c 1
 769 715 651 867 614 917 c 1
 948 993 l 1
 903 1148 l 1
 576 1011 l 1
 609 1385 l 1
 440 1385 l 1
 473 1011 l 1
 148 1148 l 1
EndSplineSet
EndChar

StartChar: plus
Encoding: 43 43 12
Width: 1052
Flags: W
LayerCount: 2
Fore
SplineSet
465 653 m 1
 103 653 l 1
 103 530 l 1
 464 530 l 1
 464 139 l 1
 589 139 l 1
 589 530 l 1
 945 530 l 1
 945 653 l 1
 590 653 l 1
 590 1039 l 1
 465 1039 l 1
 465 653 l 1
EndSplineSet
EndChar

StartChar: comma
Encoding: 44 44 13
Width: 436
Flags: W
LayerCount: 2
Fore
SplineSet
327 173 m 1
 327 213 l 1
 147 213 l 1
 140 84 115 -117 100 -253 c 1
 196 -253 l 1
 243 -118 295 45 327 173 c 1
EndSplineSet
EndChar

StartChar: hyphen
Encoding: 45 45 14
Width: 667
Flags: W
LayerCount: 2
Fore
SplineSet
103 452 m 1
 558 452 l 1
 558 586 l 1
 103 586 l 1
 103 452 l 1
EndSplineSet
EndChar

StartChar: period
Encoding: 46 46 15
Width: 478
Flags: W
LayerCount: 2
Fore
SplineSet
360 109 m 0
 360 169 320 229 239 229 c 0
 158 229 118 169 118 109 c 0
 118 49 159 -11 239 -11 c 0
 320 -11 360 49 360 109 c 0
EndSplineSet
EndChar

StartChar: slash
Encoding: 47 47 16
Width: 898
Flags: W
LayerCount: 2
Fore
SplineSet
68 -198 m 1
 199 -198 l 1
 816 1334 l 1
 683 1334 l 1
 68 -198 l 1
EndSplineSet
EndChar

StartChar: zero
Encoding: 48 48 17
Width: 1145
Flags: W
LayerCount: 2
Fore
SplineSet
282 680 m 0
 282 1033 387 1228 576 1228 c 0
 765 1228 863 1056 863 680 c 0
 863 309 765 120 576 120 c 0
 387 120 282 309 282 680 c 0
1038 674 m 0
 1038 1092 894 1366 576 1366 c 0
 258 1366 107 1092 107 674 c 0
 107 275 245 -18 576 -18 c 0
 907 -18 1038 275 1038 674 c 0
EndSplineSet
EndChar

StartChar: one
Encoding: 49 49 18
Width: 975
Flags: W
LayerCount: 2
Fore
SplineSet
870 0 m 1
 870 140 l 1
 610 140 l 1
 610 1361 l 1
 465 1361 l 1
 393 1310 253 1248 173 1242 c 1
 173 1100 l 1
 268 1106 377 1146 449 1193 c 1
 449 140 l 1
 144 140 l 1
 144 0 l 1
 870 0 l 1
EndSplineSet
EndChar

StartChar: two
Encoding: 50 50 19
Width: 1036
Flags: W
LayerCount: 2
Fore
SplineSet
108 0 m 1
 905 0 l 1
 915 140 l 1
 280 140 l 1
 664 539 l 2
 815 696 910 809 910 996 c 0
 910 1220 746 1366 498 1366 c 0
 321 1366 210 1321 107 1247 c 1
 159 1111 l 1
 280 1198 379 1223 493 1223 c 0
 648 1223 735 1135 735 985 c 0
 735 841 669 764 560 648 c 2
 88 149 l 1
 108 0 l 1
EndSplineSet
EndChar

StartChar: three
Encoding: 51 51 20
Width: 1105
Flags: W
LayerCount: 2
Fore
SplineSet
502 120 m 0
 365 120 264 164 196 218 c 1
 145 85 l 1
 196 37 324 -18 501 -18 c 0
 765 -18 959 126 959 369 c 0
 959 560 854 680 687 716 c 1
 834 762 926 866 926 1041 c 0
 926 1258 737 1366 536 1366 c 0
 348 1366 228 1326 145 1263 c 1
 196 1130 l 1
 268 1187 376 1228 501 1228 c 0
 662 1228 751 1170 751 1020 c 0
 751 821 580 789 389 784 c 1
 344 784 l 1
 344 648 l 1
 359 648 373 648 388 648 c 0
 618 643 800 602 800 371 c 0
 800 205 680 120 502 120 c 0
EndSplineSet
EndChar

StartChar: four
Encoding: 52 52 21
Width: 1138
Flags: W
LayerCount: 2
Fore
SplineSet
715 1361 m 1
 117 477 l 1
 117 338 l 1
 732 338 l 1
 732 0 l 1
 885 0 l 1
 885 338 l 1
 1040 338 l 1
 1052 470 l 1
 885 470 l 1
 885 1361 l 1
 715 1361 l 1
732 470 m 1
 277 470 l 1
 732 1155 l 1
 732 470 l 1
EndSplineSet
EndChar

StartChar: five
Encoding: 53 53 22
Width: 1043
Flags: W
LayerCount: 2
Fore
SplineSet
957 434 m 0
 957 665 819 849 543 849 c 0
 467 849 393 830 320 784 c 1
 324 916 328 1080 333 1212 c 1
 889 1212 l 1
 902 1361 l 1
 204 1361 l 1
 169 633 l 1
 295 616 l 1
 352 679 426 706 512 706 c 0
 697 706 792 589 792 432 c 0
 792 254 672 126 470 126 c 0
 319 126 216 186 158 232 c 1
 99 104 l 1
 180 30 305 -21 464 -21 c 0
 771 -21 957 162 957 434 c 0
EndSplineSet
EndChar

StartChar: six
Encoding: 54 54 23
Width: 1172
Flags: W
LayerCount: 2
Fore
SplineSet
1040 412 m 0
 1040 663 860 841 631 841 c 0
 558 841 462 807 404 776 c 1
 886 1346 l 1
 678 1346 l 1
 678 1346 460 1092 383 994 c 0
 201 765 132 638 132 433 c 0
 132 187 294 -18 585 -18 c 0
 863 -18 1040 169 1040 412 c 0
290 415 m 0
 290 572 392 705 594 705 c 0
 778 705 868 576 868 409 c 0
 868 252 767 120 580 120 c 0
 393 120 290 258 290 415 c 0
EndSplineSet
EndChar

StartChar: seven
Encoding: 55 55 24
Width: 984
Flags: W
LayerCount: 2
Fore
SplineSet
888 1361 m 1
 109 1361 l 1
 119 1220 l 1
 703 1220 l 1
 236 0 l 1
 401 0 l 1
 888 1238 l 1
 888 1361 l 1
EndSplineSet
EndChar

StartChar: eight
Encoding: 56 56 25
Width: 1157
Flags: W
LayerCount: 2
Fore
SplineSet
1020 347 m 0
 1020 520 920 650 758 707 c 1
 900 762 991 867 991 1031 c 0
 991 1247 818 1366 578 1366 c 0
 338 1366 162 1247 162 1031 c 0
 162 867 260 762 416 707 c 1
 240 650 134 520 134 347 c 0
 134 108 336 -18 578 -18 c 0
 821 -18 1020 108 1020 347 c 0
293 358 m 0
 293 506 416 602 578 638 c 1
 741 602 860 506 860 358 c 0
 860 208 741 120 578 120 c 0
 416 120 293 208 293 358 c 0
322 1034 m 0
 322 1163 444 1228 578 1228 c 0
 713 1228 831 1163 831 1034 c 0
 831 891 745 797 578 760 c 1
 412 797 322 891 322 1034 c 0
EndSplineSet
EndChar

StartChar: nine
Encoding: 57 57 26
Width: 1156
Flags: W
LayerCount: 2
Fore
SplineSet
831 453 m 1
 968 639 1024 757 1024 934 c 0
 1024 1176 866 1367 581 1367 c 0
 309 1367 131 1183 131 944 c 0
 131 698 324 537 549 537 c 0
 620 537 693 561 749 591 c 1
 276 0 l 1
 472 0 l 1
 472 0 744 338 831 453 c 1
299 947 m 0
 299 1102 404 1229 587 1229 c 0
 770 1229 856 1107 856 952 c 0
 856 798 779 672 581 672 c 0
 401 672 299 783 299 947 c 0
EndSplineSet
EndChar

StartChar: colon
Encoding: 58 58 27
Width: 435
Flags: W
LayerCount: 2
Fore
SplineSet
125 -23 m 1
 312 -23 l 1
 312 189 l 1
 125 189 l 1
 125 -23 l 1
125 813 m 1
 312 813 l 1
 312 1023 l 1
 125 1023 l 1
 125 813 l 1
EndSplineSet
EndChar

StartChar: semicolon
Encoding: 59 59 28
Width: 451
Flags: W
LayerCount: 2
Fore
SplineSet
109 -282 m 1
 212 -282 l 1
 326 179 l 1
 160 179 l 1
 109 -282 l 1
142 813 m 1
 329 813 l 1
 329 1023 l 1
 142 1023 l 1
 142 813 l 1
EndSplineSet
EndChar

StartChar: less
Encoding: 60 60 29
Width: 1094
Flags: W
LayerCount: 2
Fore
SplineSet
976 944 m 1
 976 1087 l 1
 102 639 l 1
 102 551 l 1
 974 133 l 1
 974 277 l 1
 270 599 l 1
 976 944 l 1
EndSplineSet
EndChar

StartChar: equal
Encoding: 61 61 30
Width: 1114
Flags: W
LayerCount: 2
Fore
SplineSet
117 343 m 1
 117 472 l 1
 996 472 l 1
 996 343 l 1
 117 343 l 1
116 727 m 1
 116 858 l 1
 996 858 l 1
 996 727 l 1
 116 727 l 1
EndSplineSet
EndChar

StartChar: greater
Encoding: 62 62 31
Width: 1102
Flags: W
LayerCount: 2
Fore
SplineSet
123 1092 m 1
 123 950 l 1
 825 599 l 1
 121 283 l 1
 121 138 l 1
 995 550 l 1
 995 638 l 1
 123 1092 l 1
EndSplineSet
EndChar

StartChar: question
Encoding: 63 63 32
Width: 819
Flags: W
LayerCount: 2
Fore
SplineSet
714 1092 m 0
 714 1281 577 1387 386 1387 c 0
 285 1387 167 1364 85 1299 c 1
 126 1176 l 1
 170 1203 252 1249 361 1249 c 0
 482 1249 564 1199 566 1079 c 1
 566 900 307 608 307 396 c 1
 386 396 l 1
 522 701 714 844 714 1092 c 0
480 109 m 0
 480 169 440 229 359 229 c 0
 279 229 238 169 238 109 c 0
 238 49 279 -11 359 -11 c 0
 440 -11 480 49 480 109 c 0
EndSplineSet
EndChar

StartChar: at
Encoding: 64 64 33
Width: 1634
Flags: W
LayerCount: 2
Fore
SplineSet
1236 -3 m 1
 1204 98 l 1
 1085 30 945 -5 798 -5 c 0
 449 -5 215 215 215 591 c 0
 215 969 477 1245 849 1245 c 0
 1181 1245 1422 1048 1422 720 c 0
 1422 508 1297 347 1180 347 c 0
 1114 347 1079 388 1079 476 c 0
 1079 586 1113 770 1138 950 c 1
 1061 976 948 1000 862 1000 c 0
 616 1000 481 802 481 561 c 0
 481 365 583 244 740 244 c 0
 858 244 943 333 984 391 c 1
 998 292 1069 236 1166 236 c 0
 1353 236 1542 418 1542 713 c 0
 1542 1106 1246 1358 857 1358 c 0
 408 1358 93 1025 93 587 c 0
 93 148 376 -119 797 -119 c 0
 968 -119 1121 -80 1236 -3 c 1
611 554 m 0
 611 737 690 890 863 890 c 0
 907 890 962 884 996 872 c 1
 989 803 981 732 972 664 c 0
 950 487 893 360 757 360 c 0
 656 360 611 438 611 554 c 0
EndSplineSet
EndChar

StartChar: A
Encoding: 65 65 34
Width: 1186
Flags: W
LayerCount: 2
Fore
SplineSet
392 561 m 1
 808 561 l 1
 808 561 613 1110 593 1179 c 1
 575 1119 392 561 392 561 c 1
11 0 m 1
 495 1346 l 1
 693 1346 l 1
 1176 0 l 1
 1011 0 l 1
 856 430 l 1
 342 430 l 1
 185 0 l 1
 11 0 l 1
EndSplineSet
EndChar

StartChar: B
Encoding: 66 66 35
Width: 1179
Flags: W
LayerCount: 2
Fore
SplineSet
155 0 m 1
 155 1346 l 1
 541 1346 l 2
 882 1346 1051 1249 1051 1015 c 0
 1051 949 1034 779 825 713 c 1
 1012 678 1101 544 1101 383 c 0
 1101 145 946 0 625 0 c 2
 155 0 l 1
313 129 m 1
 594 129 l 2
 820 129 936 209 936 389 c 0
 936 581 806 641 556 641 c 2
 313 641 l 1
 313 129 l 1
313 767 m 1
 601 767 l 2
 775 767 886 814 886 991 c 0
 886 1168 760 1213 533 1213 c 2
 313 1213 l 1
 313 767 l 1
EndSplineSet
EndChar

StartChar: C
Encoding: 67 67 36
Width: 1182
Flags: W
LayerCount: 2
Fore
SplineSet
95 678 m 0
 95 1083 336 1366 740 1366 c 0
 899 1366 1024 1330 1123 1266 c 1
 1070 1142 l 1
 981 1196 862 1228 742 1228 c 0
 431 1228 264 991 264 672 c 0
 264 354 427 120 758 120 c 0
 873 120 981 149 1078 196 c 1
 1103 68 l 1
 1039 28 891 -18 723 -18 c 1
 337 -12 95 263 95 678 c 0
EndSplineSet
EndChar

StartChar: D
Encoding: 68 68 37
Width: 1356
Flags: W
LayerCount: 2
Fore
SplineSet
330 1208 m 1
 524 1208 l 2
 882 1208 1087 1058 1087 670 c 0
 1087 316 901 137 550 137 c 2
 330 137 l 1
 330 1208 l 1
155 0 m 1
 555 0 l 2
 994 0 1262 229 1262 674 c 0
 1262 1142 969 1346 528 1346 c 2
 155 1346 l 1
 155 0 l 1
EndSplineSet
EndChar

StartChar: E
Encoding: 69 69 38
Width: 1064
Flags: W
LayerCount: 2
Fore
SplineSet
330 1207 m 1
 964 1207 l 1
 971 1346 l 1
 155 1346 l 1
 155 0 l 1
 963 0 l 1
 971 139 l 1
 330 139 l 1
 330 629 l 1
 912 629 l 1
 912 766 l 1
 330 766 l 1
 330 1207 l 1
EndSplineSet
EndChar

StartChar: F
Encoding: 70 70 39
Width: 966
Flags: W
LayerCount: 2
Fore
SplineSet
330 1207 m 1
 908 1207 l 1
 918 1346 l 1
 155 1346 l 1
 155 0 l 1
 330 0 l 1
 330 601 l 1
 854 601 l 1
 854 734 l 1
 330 734 l 1
 330 1207 l 1
EndSplineSet
EndChar

StartChar: G
Encoding: 71 71 40
Width: 1319
Flags: W
LayerCount: 2
Fore
SplineSet
94 672 m 0
 94 1078 344 1366 771 1366 c 0
 929 1366 1059 1333 1170 1260 c 1
 1121 1138 l 1
 1078 1161 988 1228 771 1228 c 1
 436 1221 269 991 269 672 c 0
 269 341 422 120 764 120 c 0
 867 120 969 131 1026 147 c 1
 1026 559 l 1
 736 559 l 1
 741 696 l 1
 1201 696 l 1
 1201 59 l 1
 1061 4 922 -18 738 -18 c 0
 320 -18 94 271 94 672 c 0
EndSplineSet
EndChar

StartChar: H
Encoding: 72 72 41
Width: 1367
Flags: W
LayerCount: 2
Fore
SplineSet
329 766 m 1
 1038 766 l 1
 1038 1346 l 1
 1212 1346 l 1
 1212 0 l 1
 1038 0 l 1
 1038 634 l 1
 329 634 l 1
 329 0 l 1
 155 0 l 1
 155 1346 l 1
 329 1346 l 1
 329 766 l 1
EndSplineSet
EndChar

StartChar: I
Encoding: 73 73 42
Width: 491
Flags: W
LayerCount: 2
Fore
SplineSet
158 0 m 1
 333 0 l 1
 333 1346 l 1
 158 1346 l 1
 158 0 l 1
EndSplineSet
EndChar

StartChar: J
Encoding: 74 74 43
Width: 622
Flags: W
LayerCount: 2
Fore
SplineSet
72 -192 m 1
 58 -45 l 1
 291 -45 295 51 295 186 c 2
 295 1346 l 1
 470 1346 l 1
 470 219 l 2
 470 -61 424 -192 72 -192 c 1
EndSplineSet
EndChar

StartChar: K
Encoding: 75 75 44
Width: 1146
Flags: W
LayerCount: 2
Fore
SplineSet
897 1346 m 1
 330 732 l 1
 330 1346 l 1
 155 1346 l 1
 155 0 l 1
 330 0 l 1
 330 543 l 1
 434 646 l 1
 927 0 l 1
 1145 0 l 1
 572 743 l 1
 1117 1346 l 1
 897 1346 l 1
EndSplineSet
EndChar

StartChar: L
Encoding: 76 76 45
Width: 946
Flags: W
LayerCount: 2
Fore
SplineSet
906 140 m 1
 330 140 l 1
 330 1346 l 1
 155 1346 l 1
 155 0 l 1
 900 0 l 1
 906 140 l 1
EndSplineSet
EndChar

StartChar: M
Encoding: 77 77 46
Width: 1591
Flags: W
LayerCount: 2
Fore
SplineSet
1223 1346 m 1
 796 305 l 1
 374 1346 l 1
 155 1346 l 1
 155 0 l 1
 314 0 l 1
 314 795 l 1
 303 1125 l 1
 719 108 l 1
 873 108 l 1
 1284 1121 l 1
 1277 799 l 1
 1277 0 l 1
 1436 0 l 1
 1436 1346 l 1
 1223 1346 l 1
EndSplineSet
EndChar

StartChar: N
Encoding: 78 78 47
Width: 1417
Flags: W
LayerCount: 2
Fore
SplineSet
331 1346 m 1
 155 1346 l 1
 155 0 l 1
 308 0 l 1
 308 786 l 2
 308 894 303 1137 303 1137 c 1
 559 757 824 377 1083 0 c 1
 1262 0 l 1
 1262 1346 l 1
 1109 1346 l 1
 1109 555 l 2
 1109 509 1114 208 1114 208 c 1
 856 587 591 970 331 1346 c 1
EndSplineSet
EndChar

StartChar: O
Encoding: 79 79 48
Width: 1473
Flags: W
LayerCount: 2
Fore
SplineSet
737 -18 m 0
 322 -18 96 251 96 668 c 0
 96 1095 330 1366 738 1366 c 0
 1139 1366 1377 1092 1377 667 c 0
 1377 257 1147 -18 737 -18 c 0
1202 667 m 0
 1202 997 1049 1228 738 1228 c 0
 427 1228 271 998 271 667 c 0
 271 349 419 120 737 120 c 0
 1055 120 1202 349 1202 667 c 0
EndSplineSet
EndChar

StartChar: P
Encoding: 80 80 49
Width: 1094
Flags: W
LayerCount: 2
Fore
SplineSet
155 0 m 1
 330 0 l 1
 330 572 l 1
 399 568 488 569 544 569 c 0
 881 569 1029 726 1029 979 c 0
 1029 1224 823 1346 565 1346 c 2
 155 1346 l 1
 155 0 l 1
330 702 m 1
 330 1209 l 1
 561 1209 l 2
 729 1209 854 1138 854 976 c 0
 854 796 772 700 552 700 c 0
 490 700 330 702 330 702 c 1
EndSplineSet
EndChar

StartChar: Q
Encoding: 81 81 50
Width: 1473
Flags: W
LayerCount: 2
Fore
SplineSet
991 23 m 1
 1241 117 1377 356 1377 672 c 0
 1377 1097 1139 1366 738 1366 c 0
 330 1366 96 1100 96 673 c 0
 96 256 322 -18 737 -18 c 0
 772 -18 812 -12 844 -7 c 1
 920 -164 1104 -386 1139 -421 c 1
 1240 -318 l 1
 1132 -211 1012 -11 991 23 c 1
271 672 m 0
 271 1003 427 1228 738 1228 c 0
 1049 1228 1203 1002 1203 672 c 0
 1203 354 1055 120 737 120 c 0
 419 120 271 354 271 672 c 0
EndSplineSet
EndChar

StartChar: R
Encoding: 82 82 51
Width: 1248
Flags: W
LayerCount: 2
Fore
SplineSet
658 762 m 2
 330 762 l 1
 330 1208 l 1
 655 1208 l 2
 867 1208 968 1138 968 996 c 0
 968 836 898 762 658 762 c 2
155 0 m 1
 330 0 l 1
 330 624 l 1
 330 624 559 622 576 622 c 0
 607 622 708 625 734 627 c 1
 762 581 795 502 830 422 c 2
 1011 0 l 1
 1193 0 l 1
 978 475 l 2
 947 543 890 658 890 663 c 1
 1082 718 1142 830 1142 998 c 0
 1142 1305 923 1346 599 1346 c 2
 155 1346 l 1
 155 0 l 1
EndSplineSet
EndChar

StartChar: S
Encoding: 83 83 52
Width: 1059
Flags: W
LayerCount: 2
Fore
SplineSet
87 110 m 1
 141 238 l 1
 251 172 381 120 544 120 c 0
 725 120 845 192 838 367 c 0
 833 476 760 541 600 598 c 2
 375 678 l 1
 202 734 89 829 89 1009 c 0
 89 1274 303 1366 555 1366 c 0
 711 1366 850 1309 936 1251 c 1
 882 1126 l 1
 819 1165 699 1228 561 1228 c 0
 392 1228 245 1173 245 1020 c 0
 245 914 310 860 431 822 c 1
 644 746 l 1
 832 687 984 599 990 377 c 0
 998 94 805 -18 544 -18 c 0
 322 -18 164 59 87 110 c 1
EndSplineSet
EndChar

StartChar: T
Encoding: 84 84 53
Width: 1058
Flags: W
LayerCount: 2
Fore
SplineSet
1024 1346 m 1
 34 1346 l 1
 34 1207 l 1
 441 1207 l 1
 441 0 l 1
 616 0 l 1
 616 1207 l 1
 1024 1207 l 1
 1024 1346 l 1
EndSplineSet
EndChar

StartChar: U
Encoding: 85 85 54
Width: 1309
Flags: W
LayerCount: 2
Fore
SplineSet
1171 493 m 2
 1171 1346 l 1
 997 1346 l 1
 997 492 l 2
 997 248 884 120 649 120 c 0
 408 120 302 248 302 492 c 2
 302 1346 l 1
 128 1346 l 1
 128 495 l 2
 128 196 291 -18 649 -18 c 0
 1007 -18 1171 195 1171 493 c 2
EndSplineSet
EndChar

StartChar: V
Encoding: 86 86 55
Width: 1166
Flags: W
LayerCount: 2
Fore
SplineSet
665 0 m 1
 501 0 l 1
 1 1346 l 1
 183 1346 l 1
 482 492 l 2
 496 454 583 197 583 197 c 1
 583 197 670 458 685 495 c 1
 685 495 893 1088 985 1346 c 1
 1165 1346 l 1
 665 0 l 1
EndSplineSet
EndChar

StartChar: W
Encoding: 87 87 56
Width: 1896
Flags: W
LayerCount: 2
Fore
SplineSet
860 1321 m 1
 528 222 l 1
 206 1346 l 1
 31 1346 l 1
 435 0 l 1
 614 0 l 1
 956 1116 l 1
 1276 0 l 1
 1458 0 l 1
 1865 1346 l 1
 1691 1346 l 1
 1362 221 l 1
 1038 1321 l 1
 860 1321 l 1
EndSplineSet
EndChar

StartChar: X
Encoding: 88 88 57
Width: 1113
Flags: W
LayerCount: 2
Fore
SplineSet
647 679 m 1
 1095 0 l 1
 913 0 l 1
 556 542 l 1
 200 0 l 1
 18 0 l 1
 465 679 l 1
 18 1346 l 1
 200 1346 l 1
 556 816 l 1
 913 1346 l 1
 1095 1346 l 1
 647 679 l 1
EndSplineSet
EndChar

StartChar: Y
Encoding: 89 89 58
Width: 1099
Flags: W
LayerCount: 2
Fore
SplineSet
549 683 m 1
 171 1346 l 1
 -4 1346 l 1
 462 533 l 1
 462 0 l 1
 637 0 l 1
 637 537 l 1
 1103 1346 l 1
 928 1346 l 1
 549 683 l 1
EndSplineSet
EndChar

StartChar: Z
Encoding: 90 90 59
Width: 1081
Flags: W
LayerCount: 2
Fore
SplineSet
113 1346 m 1
 1007 1346 l 1
 1007 1228 l 1
 283 138 l 1
 1014 138 l 1
 1008 0 l 1
 86 0 l 1
 86 124 l 1
 806 1208 l 1
 113 1208 l 1
 113 1346 l 1
EndSplineSet
EndChar

StartChar: bracketleft
Encoding: 91 91 60
Width: 643
Flags: W
LayerCount: 2
Fore
SplineSet
294 1229 m 1
 549 1229 l 1
 549 1350 l 1
 136 1350 l 1
 136 -267 l 1
 549 -267 l 1
 549 -147 l 1
 294 -147 l 1
 294 1229 l 1
EndSplineSet
EndChar

StartChar: backslash
Encoding: 92 92 61
Width: 850
Flags: W
LayerCount: 2
Fore
SplineSet
625 -55 m 1
 767 -55 l 1
 222 1332 l 1
 80 1332 l 1
 625 -55 l 1
EndSplineSet
EndChar

StartChar: bracketright
Encoding: 93 93 62
Width: 645
Flags: W
LayerCount: 2
Fore
SplineSet
96 1229 m 1
 351 1229 l 1
 351 -147 l 1
 96 -147 l 1
 96 -267 l 1
 509 -267 l 1
 509 1350 l 1
 96 1350 l 1
 96 1229 l 1
EndSplineSet
EndChar

StartChar: asciicircum
Encoding: 94 94 63
Width: 1143
Flags: W
LayerCount: 2
Fore
SplineSet
109 536 m 1
 241 536 l 1
 561 1215 l 1
 905 536 l 1
 1035 536 l 1
 607 1380 l 1
 514 1380 l 1
 109 536 l 1
EndSplineSet
EndChar

StartChar: underscore
Encoding: 95 95 64
Width: 1009
Flags: W
LayerCount: 2
Fore
SplineSet
78 -277 m 1
 933 -277 l 1
 933 -155 l 1
 78 -155 l 1
 78 -277 l 1
EndSplineSet
EndChar

StartChar: quoteleft
Encoding: 8216 8216 65
Width: 431
Flags: W
LayerCount: 2
Fore
SplineSet
105 1003 m 1
 252 1003 l 1
 335 1432 l 1
 228 1432 l 1
 105 1003 l 1
EndSplineSet
EndChar

StartChar: a
Encoding: 97 97 66
Width: 1057
Flags: W
LayerCount: 2
Fore
SplineSet
111 263 m 0
 111 478 291 562 576 583 c 0
 622 587 751 597 751 597 c 1
 751 685 l 2
 751 823 681 886 538 886 c 0
 442 886 305 858 211 812 c 1
 203 831 171 916 164 935 c 1
 250 983 405 1019 534 1019 c 0
 778 1019 926 927 926 661 c 2
 926 0 l 1
 785 0 l 1
 780 24 763 125 758 149 c 1
 658 19 561 -18 432 -21 c 0
 251 -25 111 75 111 263 c 0
751 302 m 1
 751 490 l 1
 751 490 658 481 635 478 c 0
 374 447 285 402 285 262 c 0
 285 152 362 102 445 102 c 0
 586 102 697 175 751 302 c 1
EndSplineSet
EndChar

StartChar: b
Encoding: 98 98 67
Width: 1165
Flags: W
LayerCount: 2
Fore
SplineSet
322 163 m 1
 305 0 l 1
 147 0 l 1
 147 1417 l 1
 322 1431 l 1
 322 1053 l 2
 322 991 321 928 317 862 c 1
 383 955 509 1019 641 1019 c 0
 901 1019 1079 802 1079 504 c 0
 1079 198 919 -21 640 -21 c 0
 503 -21 377 45 322 163 c 1
904 499 m 0
 904 738 804 891 613 891 c 0
 398 891 322 741 322 482 c 0
 322 252 408 108 614 108 c 0
 808 108 904 265 904 499 c 0
EndSplineSet
EndChar

StartChar: c
Encoding: 99 99 68
Width: 881
Flags: W
LayerCount: 2
Fore
SplineSet
816 51 m 1
 793 175 l 1
 721 138 667 112 581 112 c 0
 367 112 260 265 260 495 c 0
 260 733 371 886 581 886 c 0
 647 886 709 870 780 832 c 1
 822 950 l 1
 767 990 663 1019 558 1019 c 0
 278 1019 86 810 86 496 c 0
 86 195 271 -21 552 -21 c 0
 652 -21 750 3 816 51 c 1
EndSplineSet
EndChar

StartChar: d
Encoding: 100 100 69
Width: 1165
Flags: W
LayerCount: 2
Fore
SplineSet
86 504 m 0
 86 807 263 1019 523 1019 c 0
 655 1019 781 955 847 862 c 1
 843 928 843 991 843 1053 c 2
 843 1417 l 1
 1018 1431 l 1
 1018 0 l 1
 860 0 l 1
 843 163 l 1
 788 45 661 -21 524 -21 c 0
 245 -21 86 198 86 504 c 0
843 482 m 0
 843 741 767 891 552 891 c 0
 361 891 260 738 260 499 c 0
 260 265 357 108 551 108 c 0
 757 108 843 252 843 482 c 0
EndSplineSet
EndChar

StartChar: e
Encoding: 101 101 70
Width: 1030
Flags: W
LayerCount: 2
Fore
SplineSet
262 582 m 1
 783 582 l 1
 778 779 709 888 548 888 c 0
 392 888 279 772 262 582 c 1
86 496 m 0
 86 805 280 1019 543 1019 c 0
 800 1019 947 832 947 553 c 0
 947 530 941 469 941 469 c 1
 258 469 l 1
 262 240 397 112 587 112 c 0
 712 112 813 151 901 197 c 1
 925 65 l 1
 829 7 711 -21 562 -21 c 0
 273 -21 86 176 86 496 c 0
EndSplineSet
EndChar

StartChar: f
Encoding: 102 102 71
Width: 670
Flags: W
LayerCount: 2
Fore
SplineSet
223 0 m 1
 223 886 l 1
 49 886 l 1
 54 981 l 1
 223 998 l 1
 223 1061 l 2
 223 1318 337 1410 515 1410 c 0
 560 1410 655 1398 673 1394 c 1
 661 1263 l 1
 636 1267 591 1273 555 1273 c 0
 453 1273 398 1230 398 1055 c 2
 398 998 l 1
 631 998 l 1
 631 886 l 1
 398 886 l 1
 398 0 l 1
 223 0 l 1
EndSplineSet
EndChar

StartChar: g
Encoding: 103 103 72
Width: 1149
Flags: W
LayerCount: 2
Fore
SplineSet
843 470 m 2
 843 543 l 2
 843 732 757 891 550 891 c 0
 333 891 260 677 260 504 c 0
 260 333 339 130 546 130 c 0
 761 130 843 291 843 470 c 2
250 -390 m 1
 261 -262 l 1
 301 -273 393 -291 494 -291 c 0
 738 -291 843 -83 843 73 c 2
 843 191 l 1
 796 73 691 0 533 0 c 0
 237 0 86 249 86 496 c 0
 86 780 231 1019 536 1019 c 0
 669 1019 771 968 847 865 c 1
 859 998 l 1
 1018 998 l 1
 1018 196 l 2
 1018 -52 916 -425 507 -425 c 0
 388 -425 290 -400 250 -390 c 1
EndSplineSet
EndChar

StartChar: h
Encoding: 104 104 73
Width: 1091
Flags: W
LayerCount: 2
Fore
SplineSet
147 1417 m 1
 322 1431 l 1
 322 1058 l 1
 322 864 l 1
 396 953 491 1019 629 1019 c 0
 859 1019 963 880 963 612 c 2
 963 0 l 1
 788 0 l 1
 788 623 l 2
 788 788 752 889 599 889 c 0
 437 889 361 801 331 686 c 1
 325 643 322 597 322 546 c 2
 322 0 l 1
 147 0 l 1
 147 1417 l 1
EndSplineSet
EndChar

StartChar: i
Encoding: 105 105 74
Width: 464
Flags: W
LayerCount: 2
Fore
SplineSet
153 0 m 1
 327 0 l 1
 327 998 l 1
 153 998 l 1
 153 0 l 1
153 1181 m 1
 327 1181 l 1
 327 1361 l 1
 153 1361 l 1
 153 1181 l 1
EndSplineSet
EndChar

StartChar: j
Encoding: 106 106 75
Width: 432
Flags: W
LayerCount: 2
Fore
SplineSet
135 1181 m 1
 135 1361 l 1
 310 1361 l 1
 310 1181 l 1
 135 1181 l 1
-41 -398 m 1
 -61 -257 l 1
 -13 -257 l 2
 152 -257 135 -205 135 -52 c 2
 135 998 l 1
 310 998 l 1
 310 -68 l 2
 310 -312 255 -398 7 -398 c 2
 -41 -398 l 1
EndSplineSet
EndChar

StartChar: k
Encoding: 107 107 76
Width: 1021
Flags: W
LayerCount: 2
Fore
SplineSet
147 1417 m 1
 147 0 l 1
 322 0 l 1
 322 350 l 1
 433 446 l 1
 815 0 l 1
 1011 0 l 1
 558 532 l 1
 1004 998 l 1
 789 998 l 1
 322 512 l 1
 322 708 l 1
 322 1431 l 1
 147 1417 l 1
EndSplineSet
EndChar

StartChar: l
Encoding: 108 108 77
Width: 530
Flags: W
LayerCount: 2
Fore
SplineSet
157 305 m 2
 157 1417 l 1
 332 1431 l 1
 332 345 l 2
 332 148 347 116 428 116 c 0
 454 116 452 116 481 120 c 1
 497 -9 l 1
 449 -16 413 -18 387 -18 c 0
 230 -18 157 45 157 305 c 2
EndSplineSet
EndChar

StartChar: m
Encoding: 109 109 78
Width: 1674
Flags: W
LayerCount: 2
Fore
SplineSet
318 525 m 2
 318 0 l 1
 149 0 l 1
 149 0 147 936 147 998 c 1
 292 998 l 1
 310 855 l 1
 362 939 462 1019 605 1019 c 0
 788 1019 855 920 882 842 c 1
 951 962 1081 1019 1216 1019 c 0
 1428 1019 1546 886 1546 642 c 2
 1546 0 l 1
 1377 0 l 1
 1377 520 l 2
 1377 734 1358 889 1191 889 c 0
 1057 889 979 813 941 684 c 1
 937 640 934 586 934 535 c 2
 934 0 l 1
 765 0 l 1
 765 563 l 2
 765 787 720 889 582 889 c 0
 432 889 356 797 325 677 c 1
 320 631 318 581 318 525 c 2
EndSplineSet
EndChar

StartChar: n
Encoding: 110 110 79
Width: 1091
Flags: W
LayerCount: 2
Fore
SplineSet
147 0 m 1
 147 998 l 1
 296 998 l 1
 315 855 l 1
 387 963 490 1019 633 1019 c 0
 863 1019 963 880 963 612 c 2
 963 0 l 1
 788 0 l 1
 788 623 l 2
 788 788 752 889 599 889 c 0
 437 889 361 801 331 686 c 1
 325 643 322 597 322 546 c 2
 322 0 l 1
 147 0 l 1
EndSplineSet
EndChar

StartChar: o
Encoding: 111 111 80
Width: 1104
Flags: W
LayerCount: 2
Fore
SplineSet
86 499 m 0
 86 804 257 1019 552 1019 c 0
 847 1019 1018 804 1018 499 c 0
 1018 200 837 -21 552 -21 c 0
 267 -21 86 200 86 499 c 0
843 497 m 0
 843 719 758 886 552 886 c 0
 346 886 260 719 260 497 c 0
 260 279 345 112 552 112 c 0
 759 112 843 279 843 497 c 0
EndSplineSet
EndChar

StartChar: p
Encoding: 112 112 81
Width: 1165
Flags: W
LayerCount: 2
Fore
SplineSet
147 998 m 1
 147 -433 l 1
 322 -423 l 1
 322 -55 l 2
 322 7 321 88 317 154 c 1
 373 48 509 -21 641 -21 c 0
 911 -21 1079 196 1079 494 c 0
 1079 800 929 1019 650 1019 c 0
 513 1019 379 956 322 835 c 1
 305 998 l 1
 147 998 l 1
322 516 m 0
 322 746 412 890 618 890 c 0
 812 890 904 734 904 500 c 0
 904 261 808 107 617 107 c 0
 430 107 322 257 322 516 c 0
EndSplineSet
EndChar

StartChar: q
Encoding: 113 113 82
Width: 1157
Flags: W
LayerCount: 2
Fore
SplineSet
1017 998 m 1
 1017 -423 l 1
 843 -433 l 1
 843 -55 l 2
 843 7 843 70 847 136 c 1
 781 43 655 -21 523 -21 c 0
 263 -21 86 196 86 494 c 0
 86 800 245 1019 524 1019 c 0
 661 1019 788 953 843 835 c 1
 860 998 l 1
 1017 998 l 1
843 516 m 0
 843 746 757 890 551 890 c 0
 357 890 260 734 260 500 c 0
 260 261 360 107 551 107 c 0
 766 107 843 257 843 516 c 0
EndSplineSet
EndChar

StartChar: r
Encoding: 114 114 83
Width: 704
Flags: W
LayerCount: 2
Fore
SplineSet
147 998 m 1
 147 0 l 1
 322 0 l 1
 322 561 l 2
 322 732 435 869 609 869 c 0
 631 869 655 867 681 862 c 1
 687 1002 l 1
 664 1006 639 1007 612 1007 c 0
 488 1007 376 928 310 819 c 1
 296 998 l 1
 147 998 l 1
EndSplineSet
EndChar

StartChar: s
Encoding: 115 115 84
Width: 798
Flags: W
LayerCount: 2
Fore
SplineSet
747 269 m 1
 747 420 670 502 468 568 c 0
 440 577 427 586 404 593 c 0
 259 642 220 672 220 751 c 0
 220 836 286 886 412 886 c 0
 508 886 587 860 664 828 c 1
 709 954 l 1
 620 996 530 1019 412 1019 c 0
 186 1019 69 896 69 745 c 1
 70 620 137 538 314 473 c 1
 382 447 l 1
 565 381 605 350 605 262 c 0
 605 162 533 112 394 112 c 0
 275 112 182 152 116 187 c 1
 76 56 l 1
 142 13 251 -21 394 -21 c 0
 612 -21 744 82 747 269 c 1
EndSplineSet
EndChar

StartChar: t
Encoding: 116 116 85
Width: 718
Flags: W
LayerCount: 2
Fore
SplineSet
681 13 m 1
 654 139 l 1
 609 122 553 114 518 114 c 0
 407 114 367 160 367 313 c 2
 367 885 l 1
 658 885 l 1
 658 998 l 1
 367 998 l 1
 367 1230 l 1
 243 1227 l 1
 191 998 l 1
 50 986 l 1
 44 885 l 1
 192 885 l 1
 192 313 l 2
 192 104 289 -18 489 -18 c 0
 528 -18 619 -13 681 13 c 1
EndSplineSet
EndChar

StartChar: u
Encoding: 117 117 86
Width: 1110
Flags: W
LayerCount: 2
Fore
SplineSet
961 998 m 1
 961 0 l 1
 813 0 l 1
 794 143 l 1
 719 49 623 -21 480 -21 c 0
 250 -21 146 119 146 387 c 2
 146 998 l 1
 320 998 l 1
 320 375 l 2
 320 210 357 109 510 109 c 0
 672 109 747 197 777 312 c 1
 783 355 786 401 786 452 c 2
 786 998 l 1
 961 998 l 1
EndSplineSet
EndChar

StartChar: v
Encoding: 118 118 87
Width: 998
Flags: W
LayerCount: 2
Fore
SplineSet
414 0 m 1
 22 998 l 1
 203 998 l 1
 414 432 l 2
 446 344 505 173 505 173 c 1
 538 277 565 358 591 434 c 0
 644 588 696 723 796 998 c 1
 976 998 l 1
 592 0 l 1
 414 0 l 1
EndSplineSet
EndChar

StartChar: w
Encoding: 119 119 88
Width: 1483
Flags: W
LayerCount: 2
Fore
SplineSet
44 998 m 1
 325 0 l 1
 492 0 l 1
 492 0 664 569 745 855 c 1
 830 574 1006 0 1006 0 c 1
 1165 0 l 1
 1440 998 l 1
 1280 998 l 1
 1082 193 l 1
 1000 467 855 937 836 998 c 1
 653 998 l 1
 628 924 499 466 415 190 c 1
 207 998 l 1
 44 998 l 1
EndSplineSet
EndChar

StartChar: x
Encoding: 120 120 89
Width: 983
Flags: W
LayerCount: 2
Fore
SplineSet
490 623 m 1
 223 998 l 1
 39 998 l 1
 391 508 l 1
 25 0 l 1
 209 0 l 1
 490 396 l 1
 772 0 l 1
 958 0 l 1
 588 506 l 1
 949 998 l 1
 757 998 l 1
 490 623 l 1
EndSplineSet
EndChar

StartChar: y
Encoding: 121 121 90
Width: 1004
Flags: W
LayerCount: 2
Fore
SplineSet
82 -412 m 1
 76 -281 l 1
 85 -284 196 -294 221 -294 c 0
 315 -294 378 -268 424 -124 c 0
 437 -84 460 33 460 33 c 1
 22 998 l 1
 210 998 l 1
 541 199 l 1
 795 998 l 1
 983 998 l 1
 983 998 586 -127 573 -161 c 0
 496 -365 405 -429 242 -429 c 0
 211 -429 102 -417 82 -412 c 1
EndSplineSet
EndChar

StartChar: z
Encoding: 122 122 91
Width: 808
Flags: W
LayerCount: 2
Fore
SplineSet
77 998 m 1
 77 878 l 1
 574 878 l 1
 56 117 l 1
 56 0 l 1
 761 0 l 1
 761 120 l 1
 235 120 l 1
 744 873 l 1
 744 998 l 1
 77 998 l 1
EndSplineSet
EndChar

StartChar: braceleft
Encoding: 123 123 92
Width: 717
Flags: W
LayerCount: 2
Fore
SplineSet
449 76 m 2
 449 318 l 2
 449 427 402 531 280 570 c 1
 396 639 449 715 449 826 c 2
 449 1067 l 2
 449 1217 484 1273 619 1275 c 1
 619 1400 l 1
 412 1400 298 1308 298 1119 c 2
 298 898 l 2
 298 729 296 641 104 638 c 1
 104 506 l 1
 273 506 298 401 298 245 c 2
 298 56 l 2
 298 -155 390 -255 619 -256 c 1
 619 -130 l 1
 485 -128 449 -78 449 76 c 2
EndSplineSet
EndChar

StartChar: bar
Encoding: 124 124 93
Width: 406
Flags: W
LayerCount: 2
Fore
SplineSet
137 -364 m 1
 269 -364 l 1
 269 1437 l 1
 137 1437 l 1
 137 -364 l 1
EndSplineSet
EndChar

StartChar: braceright
Encoding: 125 125 94
Width: 726
Flags: W
LayerCount: 2
Fore
SplineSet
421 25 m 2
 421 245 l 2
 421 401 447 506 617 506 c 1
 617 638 l 1
 441 640 421 741 421 898 c 2
 421 1087 l 2
 421 1297 328 1400 101 1400 c 1
 101 1275 l 1
 235 1273 271 1217 271 1067 c 2
 271 826 l 2
 271 718 317 613 439 575 c 1
 313 490 271 434 271 318 c 2
 271 76 l 2
 271 -78 233 -128 101 -130 c 1
 101 -256 l 1
 314 -255 421 -162 421 25 c 2
EndSplineSet
EndChar

StartChar: asciitilde
Encoding: 126 126 95
Width: 1132
Flags: W
LayerCount: 2
Fore
SplineSet
343 603 m 0
 408 603 475 573 567 531 c 0
 645 496 712 470 781 470 c 0
 899 470 980 543 1026 654 c 1
 975 742 l 1
 932 663 860 600 785 600 c 0
 730 600 658 634 571 672 c 0
 481 712 422 733 347 733 c 0
 224 733 143 654 100 553 c 1
 147 458 l 1
 189 537 261 603 343 603 c 0
EndSplineSet
EndChar

StartChar: exclamdown
Encoding: 161 161 96
Width: 481
Flags: W
LayerCount: 2
Fore
SplineSet
331 131 m 1
 275 967 l 1
 203 967 l 1
 152 131 l 1
 152 2 l 1
 331 2 l 1
 331 131 l 1
362 1254 m 0
 362 1314 321 1374 241 1374 c 0
 160 1374 120 1314 120 1254 c 0
 120 1194 160 1134 241 1134 c 0
 321 1134 362 1194 362 1254 c 0
EndSplineSet
EndChar

StartChar: cent
Encoding: 162 162 97
Width: 977
Flags: W
LayerCount: 2
Fore
SplineSet
543 1 m 1
 543 155 l 1
 263 179 109 411 109 675 c 1
 111 936 273 1172 543 1196 c 1
 543 1361 l 1
 630 1361 l 1
 630 1196 l 1
 728 1190 811 1158 861 1111 c 1
 823 1003 l 1
 761 1045 694 1065 630 1070 c 1
 630 279 l 1
 707 286 775 318 824 353 c 1
 862 244 l 1
 805 191 717 161 630 155 c 1
 630 1 l 1
 543 1 l 1
543 282 m 1
 543 1068 l 1
 382 1043 265 883 265 671 c 0
 265 464 374 309 543 282 c 1
EndSplineSet
EndChar

StartChar: sterling
Encoding: 163 163 98
Width: 1072
Flags: W
LayerCount: 2
Fore
SplineSet
108 0 m 1
 98 126 l 1
 222 172 266 264 266 409 c 2
 266 620 l 1
 96 620 l 1
 96 742 l 1
 266 742 l 1
 266 829 l 2
 266 1108 329 1368 654 1368 c 0
 790 1368 897 1318 979 1249 c 1
 908 1140 l 1
 828 1201 749 1235 655 1235 c 0
 478 1235 422 1104 422 904 c 2
 422 742 l 1
 795 742 l 1
 795 620 l 1
 422 620 l 1
 422 472 l 2
 422 325 407 213 311 139 c 1
 341 141 368 144 397 144 c 2
 993 144 l 1
 993 0 l 1
 108 0 l 1
EndSplineSet
EndChar

StartChar: fraction
Encoding: 8260 8260 99
Width: 1075
Flags: W
LayerCount: 2
Fore
SplineSet
88 0 m 1
 207 0 l 1
 1004 1408 l 1
 885 1408 l 1
 88 0 l 1
EndSplineSet
EndChar

StartChar: yen
Encoding: 165 165 100
Width: 1183
Flags: W
LayerCount: 2
Fore
SplineSet
520 385 m 1
 198 385 l 1
 198 272 l 1
 520 272 l 1
 520 0 l 1
 663 0 l 1
 663 272 l 1
 979 272 l 1
 979 385 l 1
 663 385 l 1
 663 551 l 1
 978 551 l 1
 978 663 l 1
 700 663 l 1
 1085 1346 l 1
 928 1346 l 1
 592 733 l 1
 261 1346 l 1
 99 1346 l 1
 476 663 l 1
 199 663 l 1
 199 551 l 1
 520 551 l 1
 520 385 l 1
EndSplineSet
EndChar

StartChar: florin
Encoding: 402 402 101
Width: 949
Flags: W
LayerCount: 2
Fore
SplineSet
446 118 m 1
 567 787 l 1
 746 787 l 1
 756 924 l 1
 587 924 l 1
 622 1117 l 1
 637 1214 667 1268 762 1268 c 0
 787 1268 816 1261 849 1246 c 1
 856 1388 l 1
 817 1399 775 1408 740 1408 c 0
 541 1408 471 1247 446 1072 c 1
 426 924 l 1
 268 924 l 1
 258 787 l 1
 402 787 l 1
 354 530 317 255 259 5 c 1
 237 -101 203 -191 126 -191 c 0
 109 -191 88 -185 63 -175 c 1
 53 -308 l 1
 86 -318 113 -326 136 -326 c 0
 343 -326 402 -116 446 118 c 1
EndSplineSet
EndChar

StartChar: section
Encoding: 167 167 102
Width: 927
Flags: W
LayerCount: 2
Fore
SplineSet
281 964 m 1
 192 918 130 833 130 725 c 0
 130 575 223 497 424 420 c 1
 582 355 647 328 647 242 c 0
 647 156 562 99 410 99 c 0
 324 99 219 124 134 168 c 1
 134 27 l 1
 207 -10 299 -26 408 -26 c 0
 637 -26 792 74 792 253 c 0
 792 355 741 420 656 468 c 1
 741 522 802 610 802 718 c 0
 802 852 707 930 521 1006 c 1
 346 1075 291 1117 291 1193 c 0
 291 1279 371 1316 499 1316 c 0
 576 1316 653 1299 739 1260 c 1
 747 1305 755 1347 763 1392 c 1
 681 1425 611 1443 523 1443 c 0
 300 1443 147 1361 147 1189 c 0
 147 1081 196 1018 281 964 c 1
268 740 m 0
 268 817 327 874 399 905 c 1
 552 849 663 806 663 699 c 0
 663 626 605 570 533 526 c 1
 481 548 l 1
 331 607 268 653 268 740 c 0
EndSplineSet
EndChar

StartChar: currency
Encoding: 164 164 103
Width: 1180
Flags: W
LayerCount: 2
Fore
SplineSet
1062 278 m 1
 896 439 l 1
 944 504 971 580 971 666 c 0
 971 747 943 825 895 893 c 1
 1063 1054 l 1
 999 1121 l 1
 829 961 l 1
 763 1016 682 1046 591 1046 c 0
 501 1046 417 1017 351 962 c 1
 184 1121 l 1
 116 1056 l 1
 286 893 l 1
 238 827 210 749 210 666 c 0
 210 582 238 505 286 439 c 1
 117 278 l 1
 184 212 l 1
 351 371 l 1
 417 316 499 287 591 287 c 0
 682 287 763 317 829 371 c 1
 999 211 l 1
 1062 278 l 1
309 666 m 0
 309 821 435 948 591 948 c 0
 747 948 873 821 873 666 c 0
 873 511 748 385 591 385 c 0
 435 385 309 510 309 666 c 0
EndSplineSet
EndChar

StartChar: quotesingle
Encoding: 39 39 104
Width: 364
Flags: W
LayerCount: 2
Fore
SplineSet
129 887 m 1
 234 887 l 1
 252 1352 l 1
 110 1352 l 1
 129 887 l 1
EndSplineSet
EndChar

StartChar: quotedblleft
Encoding: 8220 8220 105
Width: 711
Flags: W
LayerCount: 2
Fore
SplineSet
105 1003 m 1
 250 1003 l 1
 336 1432 l 1
 227 1432 l 1
 105 1003 l 1
386 1003 m 1
 533 1003 l 1
 615 1432 l 1
 509 1432 l 1
 386 1003 l 1
EndSplineSet
EndChar

StartChar: guillemotleft
Encoding: 171 171 106
Width: 941
Flags: W
LayerCount: 2
Fore
SplineSet
495 851 m 1
 365 883 l 1
 98 516 l 1
 116 473 l 1
 362 136 l 1
 490 168 l 1
 246 511 l 1
 495 851 l 1
592 511 m 1
 827 851 l 1
 711 883 l 1
 434 516 l 1
 709 136 l 1
 824 168 l 1
 592 511 l 1
EndSplineSet
EndChar

StartChar: guilsinglleft
Encoding: 8249 8249 107
Width: 560
Flags: W
LayerCount: 2
Fore
SplineSet
236 531 m 1
 447 894 l 1
 319 894 l 1
 100 531 l 1
 315 166 l 1
 441 166 l 1
 236 531 l 1
EndSplineSet
EndChar

StartChar: guilsinglright
Encoding: 8250 8250 108
Width: 566
Flags: W
LayerCount: 2
Fore
SplineSet
461 532 m 1
 247 894 l 1
 120 894 l 1
 325 532 l 1
 115 166 l 1
 242 166 l 1
 461 532 l 1
EndSplineSet
EndChar

StartChar: endash
Encoding: 8211 8211 109
Width: 1166
Flags: W
LayerCount: 2
Fore
SplineSet
104 480 m 1
 1057 480 l 1
 1057 614 l 1
 104 614 l 1
 104 480 l 1
EndSplineSet
EndChar

StartChar: dagger
Encoding: 8224 8224 110
Width: 866
Flags: W
LayerCount: 2
Fore
SplineSet
368 1046 m 1
 96 1046 l 1
 96 953 l 1
 368 953 l 1
 368 110 l 1
 486 110 l 1
 486 953 l 1
 765 953 l 1
 765 1046 l 1
 486 1046 l 1
 486 1421 l 1
 368 1421 l 1
 368 1046 l 1
EndSplineSet
EndChar

StartChar: daggerdbl
Encoding: 8225 8225 111
Width: 921
Flags: W
LayerCount: 2
Fore
SplineSet
401 550 m 1
 123 550 l 1
 123 425 l 1
 401 425 l 1
 401 110 l 1
 520 110 l 1
 520 425 l 1
 793 425 l 1
 793 550 l 1
 520 550 l 1
 520 964 l 1
 799 964 l 1
 799 1091 l 1
 520 1091 l 1
 520 1421 l 1
 401 1421 l 1
 401 1091 l 1
 127 1091 l 1
 127 964 l 1
 401 964 l 1
 401 550 l 1
EndSplineSet
EndChar

StartChar: periodcentered
Encoding: 183 183 112
Width: 372
Flags: W
LayerCount: 2
Fore
SplineSet
107 511 m 1
 260 511 l 1
 260 691 l 1
 107 691 l 1
 107 511 l 1
EndSplineSet
EndChar

StartChar: paragraph
Encoding: 182 182 113
Width: 1043
Flags: W
LayerCount: 2
Fore
SplineSet
557 -144 m 1
 557 1301 l 1
 756 1301 l 1
 756 -144 l 1
 861 -144 l 1
 861 1301 l 1
 929 1301 l 1
 929 1421 l 1
 505 1421 l 2
 211 1421 97 1263 97 1103 c 0
 97 940 241 775 443 771 c 1
 443 -144 l 1
 557 -144 l 1
EndSplineSet
EndChar

StartChar: bullet
Encoding: 8226 8226 114
Width: 756
Flags: W
LayerCount: 2
Fore
SplineSet
646 685 m 0
 646 850 525 988 378 988 c 0
 234 988 106 847 106 680 c 0
 106 516 223 378 374 378 c 0
 521 378 646 518 646 685 c 0
EndSplineSet
EndChar

StartChar: quotesinglbase
Encoding: 8218 8218 115
Width: 431
Flags: W
LayerCount: 2
Fore
SplineSet
92 -233 m 1
 200 -233 l 1
 322 197 l 1
 176 197 l 1
 92 -233 l 1
EndSplineSet
EndChar

StartChar: quotedblbase
Encoding: 8222 8222 116
Width: 717
Flags: W
LayerCount: 2
Fore
SplineSet
92 -233 m 1
 199 -233 l 1
 320 197 l 1
 174 197 l 1
 92 -233 l 1
379 -233 m 1
 486 -233 l 1
 609 197 l 1
 461 197 l 1
 379 -233 l 1
EndSplineSet
EndChar

StartChar: quotedblright
Encoding: 8221 8221 117
Width: 689
Flags: W
LayerCount: 2
Fore
SplineSet
107 1003 m 1
 214 1003 l 1
 337 1432 l 1
 192 1432 l 1
 107 1003 l 1
369 1003 m 1
 475 1003 l 1
 600 1432 l 1
 451 1432 l 1
 369 1003 l 1
EndSplineSet
EndChar

StartChar: guillemotright
Encoding: 187 187 118
Width: 960
Flags: W
LayerCount: 2
Fore
SplineSet
233 883 m 1
 117 851 l 1
 351 511 l 1
 116 168 l 1
 232 136 l 1
 509 504 l 1
 233 883 l 1
592 883 m 1
 467 851 l 1
 708 511 l 1
 462 168 l 1
 589 136 l 1
 855 504 l 1
 592 883 l 1
EndSplineSet
EndChar

StartChar: ellipsis
Encoding: 8230 8230 119
Width: 1354
Flags: W
LayerCount: 2
Fore
SplineSet
1249 109 m 0
 1249 169 1208 229 1127 229 c 0
 1046 229 1006 169 1006 109 c 0
 1006 49 1047 -11 1127 -11 c 0
 1208 -11 1249 49 1249 109 c 0
799 109 m 0
 799 169 759 229 678 229 c 0
 597 229 557 169 557 109 c 0
 557 49 598 -11 678 -11 c 0
 759 -11 799 49 799 109 c 0
349 109 m 0
 349 169 309 229 228 229 c 0
 147 229 107 169 107 109 c 0
 107 49 148 -11 228 -11 c 0
 309 -11 349 49 349 109 c 0
EndSplineSet
EndChar

StartChar: perthousand
Encoding: 8240 8240 120
Width: 2129
Flags: W
LayerCount: 2
Fore
SplineSet
226 1074 m 0
 226 1200 275 1309 378 1309 c 0
 483 1309 532 1206 532 1072 c 0
 532 946 482 836 381 836 c 0
 275 836 226 940 226 1074 c 0
649 1070 m 0
 649 1283 556 1419 379 1419 c 0
 204 1419 108 1273 108 1074 c 0
 108 865 205 724 378 724 c 0
 550 724 649 873 649 1070 c 0
246 -20 m 1
 369 -20 l 1
 1168 1408 l 1
 1025 1408 l 1
 246 -20 l 1
836 322 m 0
 836 448 895 555 1016 555 c 0
 1141 555 1198 455 1198 322 c 0
 1198 197 1138 85 1017 85 c 0
 896 85 836 188 836 322 c 0
1315 320 m 0
 1315 531 1221 669 1017 669 c 0
 813 669 717 520 717 322 c 0
 717 113 815 -27 1015 -27 c 0
 1216 -27 1315 123 1315 320 c 0
1536 322 m 0
 1536 448 1596 555 1720 555 c 0
 1840 555 1904 452 1904 322 c 0
 1904 195 1843 85 1722 85 c 0
 1597 85 1536 188 1536 322 c 0
2018 320 m 0
 2018 535 1922 669 1722 669 c 0
 1519 669 1421 520 1421 322 c 0
 1421 113 1519 -27 1717 -27 c 0
 1918 -27 2018 123 2018 320 c 0
EndSplineSet
EndChar

StartChar: questiondown
Encoding: 191 191 121
Width: 832
Flags: W
LayerCount: 2
Fore
SplineSet
107 284 m 0
 107 95 245 -11 436 -11 c 0
 537 -11 655 12 737 77 c 1
 696 200 l 1
 652 173 569 126 460 126 c 0
 339 126 258 177 256 297 c 1
 256 476 515 768 515 980 c 1
 436 980 l 1
 300 675 107 532 107 284 c 0
341 1267 m 0
 341 1207 381 1147 462 1147 c 0
 542 1147 583 1207 583 1267 c 0
 583 1327 542 1387 462 1387 c 0
 381 1387 341 1327 341 1267 c 0
EndSplineSet
EndChar

StartChar: grave
Encoding: 96 96 122
Width: 585
Flags: W
LayerCount: 2
Fore
SplineSet
371 1138 m 1
 473 1138 l 1
 305 1491 l 1
 77 1491 l 1
 371 1138 l 1
EndSplineSet
EndChar

StartChar: acute
Encoding: 180 180 123
Width: 581
Flags: W
LayerCount: 2
Fore
SplineSet
116 1138 m 1
 220 1138 l 1
 516 1491 l 1
 286 1491 l 1
 116 1138 l 1
EndSplineSet
EndChar

StartChar: circumflex
Encoding: 710 710 124
Width: 728
Flags: W
LayerCount: 2
Fore
SplineSet
98 1138 m 1
 217 1138 l 1
 364 1386 l 1
 511 1138 l 1
 632 1138 l 1
 462 1491 l 1
 268 1491 l 1
 98 1138 l 1
EndSplineSet
EndChar

StartChar: tilde
Encoding: 732 732 125
Width: 805
Flags: W
LayerCount: 2
Fore
SplineSet
261 1374 m 0
 374 1374 530 1289 530 1289 c 1
 566 1292 569 1336 572 1374 c 1
 672 1374 l 1
 672 1249 632 1175 536 1175 c 0
 454 1175 252 1263 252 1263 c 1
 222 1262 205 1225 202 1175 c 1
 105 1175 l 1
 105 1311 164 1374 261 1374 c 0
EndSplineSet
EndChar

StartChar: macron
Encoding: 175 175 126
Width: 966
Flags: W
LayerCount: 2
Fore
SplineSet
121 1352 m 1
 849 1352 l 1
 849 1479 l 1
 121 1479 l 1
 121 1352 l 1
EndSplineSet
EndChar

StartChar: breve
Encoding: 728 728 127
Width: 686
Flags: W
LayerCount: 2
Fore
SplineSet
343 1182 m 0
 231 1182 116 1247 116 1404 c 1
 222 1404 l 1
 222 1317 277 1276 343 1276 c 0
 409 1276 467 1317 467 1404 c 1
 573 1404 l 1
 573 1247 456 1182 343 1182 c 0
EndSplineSet
EndChar

StartChar: dotaccent
Encoding: 729 729 128
Width: 374
Flags: W
LayerCount: 2
Fore
SplineSet
111 1181 m 1
 264 1181 l 1
 264 1361 l 1
 111 1361 l 1
 111 1181 l 1
EndSplineSet
EndChar

StartChar: dieresis
Encoding: 168 168 129
Width: 700
Flags: W
LayerCount: 2
Fore
SplineSet
107 1141 m 1
 248 1141 l 1
 248 1334 l 1
 107 1334 l 1
 107 1141 l 1
462 1141 m 1
 603 1141 l 1
 603 1334 l 1
 462 1334 l 1
 462 1141 l 1
EndSplineSet
EndChar

StartChar: ring
Encoding: 730 730 130
Width: 576
Flags: W
LayerCount: 2
Fore
SplineSet
201 1312 m 0
 201 1368 245 1417 291 1417 c 0
 341 1417 379 1368 379 1312 c 0
 379 1256 337 1210 291 1210 c 0
 235 1210 201 1251 201 1312 c 0
468 1312 m 0
 468 1414 386 1491 291 1491 c 0
 199 1491 114 1420 114 1312 c 0
 114 1207 198 1144 293 1144 c 0
 383 1144 468 1207 468 1312 c 0
EndSplineSet
EndChar

StartChar: cedilla
Encoding: 184 184 131
Width: 542
Flags: W
LayerCount: 2
Fore
SplineSet
104 -373 m 1
 244 -373 l 1
 284 15 l 1
 206 15 l 1
 104 -373 l 1
EndSplineSet
EndChar

StartChar: hungarumlaut
Encoding: 733 733 132
Width: 743
Flags: W
LayerCount: 2
Fore
SplineSet
116 1146 m 1
 207 1146 l 1
 436 1451 l 1
 297 1451 l 1
 116 1146 l 1
329 1146 m 1
 421 1146 l 1
 649 1451 l 1
 512 1451 l 1
 329 1146 l 1
EndSplineSet
EndChar

StartChar: ogonek
Encoding: 731 731 133
Width: 536
Flags: W
LayerCount: 2
Fore
SplineSet
426 -352 m 1
 426 -246 l 1
 380 -265 350 -276 301 -276 c 0
 264 -276 221 -243 221 -195 c 0
 221 -133 290 -65 385 5 c 1
 281 5 l 1
 194 -46 107 -122 107 -221 c 0
 107 -325 185 -381 283 -381 c 0
 332 -381 391 -367 426 -352 c 1
EndSplineSet
EndChar

StartChar: caron
Encoding: 711 711 134
Width: 728
Flags: W
LayerCount: 2
Fore
SplineSet
268 1138 m 1
 462 1138 l 1
 632 1491 l 1
 511 1491 l 1
 364 1208 l 1
 217 1491 l 1
 98 1491 l 1
 268 1138 l 1
EndSplineSet
EndChar

StartChar: emdash
Encoding: 8212 8212 135
Width: 2176
Flags: W
LayerCount: 2
Fore
SplineSet
104 480 m 1
 2067 480 l 1
 2067 614 l 1
 104 614 l 1
 104 480 l 1
EndSplineSet
EndChar

StartChar: AE
Encoding: 198 198 136
Width: 1918
Flags: W
LayerCount: 2
Fore
SplineSet
1136 1282 m 1
 1777 1282 l 1
 1777 1427 l 1
 917 1427 l 1
 84 0 l 1
 241 0 l 1
 460 389 l 1
 1055 389 l 1
 1083 0 l 1
 1795 0 l 1
 1795 144 l 1
 1228 144 l 1
 1189 659 l 1
 1745 659 l 1
 1745 803 l 1
 1171 803 l 1
 1136 1282 l 1
1035 536 m 1
 536 536 l 1
 979 1282 l 1
 1035 536 l 1
EndSplineSet
EndChar

StartChar: ordfeminine
Encoding: 170 170 137
Width: 751
Flags: W
LayerCount: 2
Fore
SplineSet
126 956 m 0
 126 1131 287 1159 503 1173 c 1
 503 1189 l 1
 500 1295 474 1340 385 1340 c 0
 319 1340 255 1335 189 1260 c 1
 134 1331 l 1
 202 1420 289 1447 390 1447 c 0
 508 1447 610 1380 610 1210 c 1
 608 894 l 2
 608 882 608 854 613 771 c 1
 506 771 l 1
 503 843 l 1
 467 788 408 752 328 752 c 0
 212 752 126 831 126 956 c 0
131 578 m 1
 131 674 l 1
 627 674 l 1
 627 578 l 1
 131 578 l 1
503 1063 m 1
 503 1087 l 1
 390 1075 234 1080 234 954 c 0
 234 881 279 853 345 853 c 0
 453 853 498 953 503 1063 c 1
EndSplineSet
EndChar

StartChar: Lslash
Encoding: 321 321 138
Width: 1096
Flags: W
LayerCount: 2
Fore
SplineSet
246 688 m 1
 111 614 l 1
 111 480 l 1
 246 551 l 1
 246 0 l 1
 994 0 l 1
 1005 141 l 1
 407 141 l 1
 407 638 l 1
 725 809 l 1
 725 951 l 1
 407 776 l 1
 407 1361 l 1
 246 1361 l 1
 246 688 l 1
EndSplineSet
EndChar

StartChar: Oslash
Encoding: 216 216 139
Width: 1560
Flags: W
LayerCount: 2
Fore
SplineSet
500 -164 m 1
 568 5 l 1
 632 -13 702 -23 779 -23 c 0
 1216 -23 1443 283 1443 708 c 0
 1443 1017 1329 1246 1121 1362 c 1
 1196 1546 l 1
 1077 1588 l 1
 1006 1411 l 1
 937 1432 861 1443 779 1443 c 0
 358 1443 115 1156 115 708 c 0
 115 406 231 162 456 48 c 1
 386 -125 l 1
 500 -164 l 1
288 714 m 0
 288 1031 450 1282 779 1282 c 0
 840 1282 895 1274 944 1258 c 1
 520 207 l 1
 364 302 288 491 288 714 c 0
631 157 m 1
 1056 1203 l 1
 1199 1104 1269 923 1269 714 c 0
 1269 390 1110 138 779 138 c 0
 724 138 676 144 631 157 c 1
EndSplineSet
EndChar

StartChar: OE
Encoding: 338 338 140
Width: 1866
Flags: W
LayerCount: 2
Fore
SplineSet
1066 75 m 1
 1066 0 l 1
 1734 0 l 1
 1748 142 l 1
 1227 142 l 1
 1227 630 l 1
 1678 630 l 1
 1678 769 l 1
 1227 769 l 1
 1227 1220 l 1
 1711 1220 l 1
 1726 1360 l 1
 1066 1360 l 1
 1066 1286 l 1
 998 1345 884 1387 749 1387 c 0
 383 1387 122 1099 113 702 c 1
 113 272 338 -21 770 -21 c 0
 876 -21 1027 33 1066 75 c 1
286 703 m 1
 293 1020 468 1249 763 1249 c 0
 890 1249 996 1203 1066 1146 c 1
 1066 202 l 1
 1022 176 888 117 771 117 c 1
 415 121 286 380 286 703 c 1
EndSplineSet
EndChar

StartChar: ordmasculine
Encoding: 186 186 141
Width: 788
Flags: W
LayerCount: 2
Fore
SplineSet
217 1098 m 0
 217 1229 280 1340 392 1340 c 0
 508 1340 571 1230 571 1095 c 0
 571 967 510 856 396 856 c 0
 277 856 217 962 217 1098 c 0
683 1097 m 0
 683 1292 580 1447 394 1447 c 0
 209 1447 103 1294 103 1101 c 0
 103 904 203 752 396 752 c 0
 580 752 683 905 683 1097 c 0
EndSplineSet
EndChar

StartChar: ae
Encoding: 230 230 142
Width: 1587
Flags: W
LayerCount: 2
Fore
SplineSet
113 273 m 0
 113 513 356 543 632 558 c 2
 690 561 l 1
 690 711 l 2
 690 832 645 888 517 888 c 0
 392 888 269 854 193 814 c 1
 160 939 l 1
 233 981 377 1023 513 1023 c 0
 658 1023 775 966 802 848 c 1
 868 967 993 1023 1125 1023 c 0
 1373 1023 1465 827 1465 622 c 0
 1465 535 1442 493 1295 486 c 2
 843 463 l 1
 858 250 933 108 1127 108 c 0
 1244 108 1357 163 1421 208 c 1
 1468 98 l 1
 1394 34 1277 -23 1117 -23 c 0
 986 -23 892 22 819 102 c 1
 712 36 550 -24 408 -24 c 0
 250 -24 113 54 113 273 c 0
756 189 m 1
 715 264 692 351 687 454 c 1
 667 453 647 452 629 450 c 0
 337 428 266 373 266 265 c 0
 266 144 332 103 419 103 c 0
 520 103 652 154 756 189 c 1
848 560 m 1
 1318 586 l 1
 1318 595 l 1
 1316 802 1256 895 1122 895 c 0
 939 895 858 747 848 560 c 1
EndSplineSet
EndChar

StartChar: dotlessi
Encoding: 305 305 143
Width: 413
Flags: W
LayerCount: 2
Fore
SplineSet
130 0 m 1
 284 0 l 1
 284 999 l 1
 130 999 l 1
 130 0 l 1
EndSplineSet
EndChar

StartChar: lslash
Encoding: 322 322 144
Width: 740
Flags: W
LayerCount: 2
Fore
SplineSet
642 -7 m 1
 628 116 l 1
 583 112 527 107 502 107 c 0
 372 107 369 175 369 392 c 2
 369 640 l 1
 529 763 l 1
 529 896 l 1
 369 772 l 1
 369 1374 l 1
 216 1356 l 1
 216 653 l 1
 114 574 l 1
 114 442 l 1
 216 521 l 1
 216 426 l 2
 216 97 237 -19 480 -19 c 0
 497 -19 596 -12 642 -7 c 1
EndSplineSet
EndChar

StartChar: oslash
Encoding: 248 248 145
Width: 1158
Flags: W
LayerCount: 2
Fore
SplineSet
299 -250 m 1
 409 6 l 1
 460 -13 517 -23 580 -23 c 0
 879 -23 1042 223 1042 500 c 0
 1042 701 966 878 816 965 c 1
 923 1216 l 1
 853 1244 l 1
 748 996 l 1
 699 1013 643 1023 582 1023 c 0
 280 1023 109 784 109 498 c 0
 109 299 191 124 342 37 c 1
 235 -216 l 1
 299 -250 l 1
267 495 m 0
 267 699 365 897 580 897 c 0
 625 897 663 890 697 876 c 1
 396 166 l 1
 308 239 267 365 267 495 c 0
460 126 m 1
 762 838 l 1
 849 766 884 637 884 498 c 0
 884 294 798 103 582 103 c 0
 536 103 495 111 460 126 c 1
EndSplineSet
EndChar

StartChar: oe
Encoding: 339 339 146
Width: 1821
Flags: W
LayerCount: 2
Fore
SplineSet
945 192 m 1
 1021 56 1154 -23 1331 -23 c 0
 1491 -23 1607 27 1689 97 c 1
 1642 208 l 1
 1571 160 1478 108 1336 108 c 0
 1160 108 1029 247 1029 472 c 1
 1702 472 l 1
 1702 489 1704 526 1704 541 c 0
 1704 836 1569 1023 1321 1023 c 1
 1164 1018 1024 938 949 809 c 1
 879 938 754 1023 571 1023 c 0
 269 1023 109 784 109 498 c 0
 109 211 267 -23 569 -23 c 0
 746 -23 872 64 945 192 c 1
267 495 m 0
 267 699 354 897 569 897 c 0
 794 897 873 710 873 498 c 0
 873 294 787 103 571 103 c 0
 353 103 267 294 267 495 c 0
1312 899 m 0
 1458 899 1552 794 1556 589 c 1
 1556 577 l 1
 1035 577 l 1
 1052 774 1161 899 1312 899 c 0
EndSplineSet
EndChar

StartChar: germandbls
Encoding: 223 223 147
Width: 1103
Flags: W
LayerCount: 2
Fore
SplineSet
302 0 m 1
 302 961 l 2
 302 1134 373 1249 559 1249 c 0
 671 1249 733 1187 733 1077 c 0
 733 952 560 836 560 684 c 0
 560 521 832 465 876 312 c 0
 904 213 853 116 734 116 c 0
 657 116 548 156 490 187 c 1
 436 56 l 1
 493 22 617 -18 748 -18 c 0
 945 -18 1075 127 1048 317 c 0
 1015 548 718 588 718 699 c 0
 718 792 895 903 895 1076 c 0
 895 1273 787 1388 559 1388 c 0
 279 1388 149 1222 149 952 c 2
 149 0 l 1
 302 0 l 1
EndSplineSet
EndChar

StartChar: logicalnot
Encoding: 172 172 148
Width: 1128
Flags: W
LayerCount: 2
Fore
SplineSet
1008 751 m 1
 106 751 l 1
 106 620 l 1
 885 620 l 1
 885 237 l 1
 1008 237 l 1
 1008 751 l 1
EndSplineSet
EndChar

StartChar: mu
Encoding: 956 956 149
Width: 451
Flags: W
LayerCount: 2
Fore
SplineSet
344 604 m 0
 344 664 304 724 223 724 c 0
 143 724 102 664 102 604 c 0
 102 544 143 484 223 484 c 0
 304 484 344 544 344 604 c 0
EndSplineSet
EndChar

StartChar: trademark
Encoding: 8482 8482 150
Width: 1672
Flags: W
LayerCount: 2
Fore
SplineSet
766 554 m 1
 766 1361 l 1
 909 1361 l 1
 1153 750 l 1
 1409 1361 l 1
 1544 1361 l 1
 1544 554 l 1
 1441 554 l 1
 1441 1228 l 1
 1186 619 l 1
 1107 619 l 1
 867 1228 l 1
 867 554 l 1
 766 554 l 1
311 554 m 1
 311 1269 l 1
 76 1269 l 1
 76 1361 l 1
 655 1361 l 1
 655 1269 l 1
 415 1269 l 1
 415 554 l 1
 311 554 l 1
EndSplineSet
EndChar

StartChar: Eth
Encoding: 208 208 151
Width: 1490
Flags: W
LayerCount: 2
Fore
SplineSet
384 634 m 1
 604 634 l 1
 604 757 l 1
 384 757 l 1
 384 1220 l 1
 581 1220 l 2
 953 1220 1202 1097 1202 668 c 0
 1202 316 1004 141 671 141 c 2
 384 141 l 1
 384 634 l 1
223 757 m 1
 116 757 l 1
 116 634 l 1
 223 634 l 1
 223 0 l 1
 654 0 l 2
 1084 0 1374 219 1374 672 c 0
 1374 1197 1031 1361 561 1361 c 2
 223 1361 l 1
 223 757 l 1
EndSplineSet
EndChar

StartChar: onehalf
Encoding: 189 189 152
Width: 1494
Flags: W
LayerCount: 2
Fore
SplineSet
133 679 m 1
 133 592 l 1
 458 592 l 1
 458 679 l 1
 345 679 l 1
 345 1400 l 1
 257 1400 l 1
 221 1364 177 1335 121 1307 c 1
 121 1214 l 1
 161 1235 205 1259 240 1282 c 1
 240 679 l 1
 133 679 l 1
1363 -27 m 1
 1363 63 l 1
 1005 63 l 1
 1203 244 1374 395 1374 572 c 0
 1374 721 1259 790 1136 790 c 0
 1027 790 911 735 868 636 c 1
 938 577 l 1
 992 657 1067 692 1132 692 c 0
 1197 692 1257 643 1257 561 c 0
 1257 447 1084 282 860 57 c 1
 860 -27 l 1
 1363 -27 l 1
233 0 m 1
 355 0 l 1
 1193 1408 l 1
 1070 1408 l 1
 233 0 l 1
EndSplineSet
EndChar

StartChar: plusminus
Encoding: 177 177 153
Width: 1126
Flags: W
LayerCount: 2
Fore
SplineSet
499 719 m 1
 122 719 l 1
 122 589 l 1
 500 589 l 1
 500 212 l 1
 624 212 l 1
 624 589 l 1
 1003 589 l 1
 1003 719 l 1
 622 719 l 1
 622 1097 l 1
 499 1097 l 1
 499 719 l 1
122 0 m 1
 1005 0 l 1
 1005 130 l 1
 122 130 l 1
 122 0 l 1
EndSplineSet
EndChar

StartChar: Thorn
Encoding: 222 222 154
Width: 1213
Flags: W
LayerCount: 2
Fore
SplineSet
298 1361 m 1
 136 1361 l 1
 136 0 l 1
 298 0 l 1
 298 318 l 1
 298 318 650 311 657 311 c 0
 973 311 1103 478 1103 720 c 0
 1103 1008 920 1107 592 1107 c 2
 298 1107 l 1
 298 1361 l 1
298 972 m 1
 609 972 l 2
 859 972 949 891 949 712 c 0
 949 560 873 449 647 449 c 2
 298 449 l 1
 298 972 l 1
EndSplineSet
EndChar

StartChar: onequarter
Encoding: 188 188 155
Width: 1506
Flags: W
LayerCount: 2
Fore
SplineSet
133 679 m 1
 133 592 l 1
 458 592 l 1
 458 679 l 1
 345 679 l 1
 345 1400 l 1
 257 1400 l 1
 221 1364 177 1335 121 1307 c 1
 121 1214 l 1
 161 1235 205 1259 240 1282 c 1
 240 679 l 1
 133 679 l 1
1195 818 m 1
 850 308 l 1
 850 218 l 1
 1205 218 l 1
 1205 36 l 1
 1302 36 l 1
 1302 218 l 1
 1399 218 l 1
 1390 326 l 1
 1304 326 l 1
 1304 818 l 1
 1195 818 l 1
233 0 m 1
 355 0 l 1
 1193 1408 l 1
 1070 1408 l 1
 233 0 l 1
1205 652 m 1
 1204 326 l 1
 980 326 l 1
 1205 652 l 1
EndSplineSet
EndChar

StartChar: divide
Encoding: 247 247 156
Width: 1119
Flags: W
LayerCount: 2
Fore
SplineSet
460 20 m 1
 633 20 l 1
 633 227 l 1
 460 227 l 1
 460 20 l 1
101 476 m 1
 1012 476 l 1
 1012 612 l 1
 101 612 l 1
 101 476 l 1
460 854 m 1
 664 854 l 1
 664 1061 l 1
 460 1061 l 1
 460 854 l 1
EndSplineSet
EndChar

StartChar: brokenbar
Encoding: 166 166 157
Width: 399
Flags: W
LayerCount: 2
Fore
SplineSet
134 -363 m 1
 267 -363 l 1
 267 282 l 1
 134 282 l 1
 134 -363 l 1
134 794 m 1
 267 794 l 1
 267 1437 l 1
 134 1437 l 1
 134 794 l 1
EndSplineSet
EndChar

StartChar: degree
Encoding: 176 176 158
Width: 766
Flags: W
LayerCount: 2
Fore
SplineSet
210 1097 m 0
 210 1196 289 1273 382 1273 c 0
 476 1273 554 1196 554 1097 c 0
 554 999 476 919 382 919 c 0
 288 919 210 998 210 1097 c 0
665 1097 m 0
 665 1254 537 1382 381 1382 c 0
 226 1382 98 1254 98 1097 c 0
 98 939 226 809 381 809 c 0
 541 809 665 944 665 1097 c 0
EndSplineSet
EndChar

StartChar: thorn
Encoding: 254 254 159
Width: 1136
Flags: W
LayerCount: 2
Fore
SplineSet
136 1374 m 1
 136 -418 l 1
 289 -418 l 1
 289 147 l 1
 357 31 471 -23 609 -23 c 0
 889 -23 1024 244 1024 510 c 0
 1024 800 860 1021 609 1023 c 1
 473 1023 367 965 289 849 c 1
 289 1374 l 1
 136 1374 l 1
288 501 m 0
 288 710 392 897 598 897 c 0
 806 897 866 676 866 501 c 0
 866 327 805 103 592 103 c 0
 375 103 288 291 288 501 c 0
EndSplineSet
EndChar

StartChar: threequarters
Encoding: 190 190 160
Width: 1530
Flags: W
LayerCount: 2
Fore
SplineSet
118 669 m 1
 166 763 l 1
 212 712 260 685 311 685 c 0
 387 685 453 738 453 822 c 0
 453 918 385 952 279 952 c 2
 235 952 l 1
 235 1068 l 1
 275 1068 l 2
 367 1068 433 1098 433 1186 c 0
 433 1262 385 1296 319 1296 c 0
 261 1296 210 1264 164 1218 c 1
 118 1312 l 1
 167 1370 243 1413 320 1413 c 0
 433 1413 559 1330 559 1188 c 0
 559 1112 522 1048 456 1012 c 1
 532 976 577 913 577 818 c 0
 577 667 448 574 316 574 c 0
 240 574 170 607 118 669 c 1
1227 40 m 1
 1227 223 l 1
 870 223 l 1
 870 312 l 1
 1215 822 l 1
 1325 822 l 1
 1325 329 l 1
 1412 329 l 1
 1420 223 l 1
 1324 223 l 1
 1324 40 l 1
 1227 40 l 1
314 0 m 1
 1149 1408 l 1
 1280 1408 l 1
 436 0 l 1
 314 0 l 1
1000 329 m 1
 1224 329 l 1
 1225 464 1226 573 1227 656 c 1
 1000 329 l 1
EndSplineSet
EndChar

StartChar: registered
Encoding: 174 174 161
Width: 1671
Flags: W
LayerCount: 2
Fore
SplineSet
552 274 m 1
 552 1162 l 1
 838 1162 l 2
 1077 1162 1190 1077 1190 916 c 0
 1190 798 1133 691 954 669 c 1
 1038 603 1082 483 1208 274 c 1
 1073 274 l 1
 1013 381 921 589 839 652 c 1
 672 652 l 1
 672 274 l 1
 552 274 l 1
672 1046 m 1
 672 767 l 1
 838 767 l 2
 973 767 1046 793 1046 909 c 0
 1046 1029 982 1046 829 1046 c 2
 672 1046 l 1
1452 708 m 0
 1452 1063 1236 1359 824 1359 c 0
 434 1359 217 1064 217 713 c 0
 217 354 434 61 828 61 c 0
 1238 61 1452 352 1452 708 c 0
114 711 m 0
 114 1200 467 1443 824 1443 c 0
 1202 1443 1555 1198 1555 711 c 0
 1555 221 1206 -24 828 -24 c 0
 471 -24 114 221 114 711 c 0
EndSplineSet
EndChar

StartChar: minus
Encoding: 8722 8722 162
Width: 1124
Flags: W
LayerCount: 2
Fore
SplineSet
104 486 m 1
 1015 486 l 1
 1015 621 l 1
 104 621 l 1
 104 486 l 1
EndSplineSet
EndChar

StartChar: eth
Encoding: 240 240 163
Width: 1164
Flags: W
LayerCount: 2
Fore
SplineSet
1051 448 m 0
 1051 575 1021 686 958 804 c 1
 891 921 788 1046 646 1201 c 1
 866 1286 l 1
 824 1403 l 1
 561 1300 l 1
 429 1445 l 1
 226 1445 l 1
 440 1241 l 1
 240 1162 l 1
 279 1042 l 1
 527 1144 l 1
 672 997 761 877 803 798 c 1
 751 836 671 885 552 885 c 0
 288 885 114 707 114 442 c 0
 114 193 281 -23 583 -23 c 0
 892 -23 1051 181 1051 448 c 0
279 441 m 0
 279 614 390 758 583 758 c 0
 785 758 895 595 895 430 c 0
 895 247 786 104 589 104 c 0
 382 104 279 267 279 441 c 0
EndSplineSet
EndChar

StartChar: multiply
Encoding: 215 215 164
Width: 920
Flags: W
LayerCount: 2
Fore
SplineSet
373 550 m 1
 114 253 l 1
 212 165 l 1
 460 450 l 1
 707 165 l 1
 805 253 l 1
 546 550 l 1
 805 848 l 1
 709 935 l 1
 460 649 l 1
 210 935 l 1
 114 848 l 1
 373 550 l 1
EndSplineSet
EndChar

StartChar: copyright
Encoding: 169 169 165
Width: 1671
Flags: W
LayerCount: 2
Fore
SplineSet
402 714 m 0
 402 983 577 1184 844 1184 c 0
 953 1184 1049 1154 1124 1102 c 1
 1069 1014 l 1
 1013 1054 920 1076 835 1076 c 0
 622 1076 526 907 526 718 c 0
 526 513 628 352 853 352 c 0
 937 352 1040 383 1091 418 c 1
 1127 320 l 1
 1063 279 947 246 834 246 c 0
 583 246 402 445 402 714 c 0
1452 708 m 0
 1452 1063 1236 1359 824 1359 c 0
 434 1359 217 1064 217 713 c 0
 217 354 434 61 828 61 c 0
 1238 61 1452 352 1452 708 c 0
114 711 m 0
 114 1200 467 1443 824 1443 c 0
 1202 1443 1555 1198 1555 711 c 0
 1555 221 1206 -24 828 -24 c 0
 471 -24 114 221 114 711 c 0
EndSplineSet
EndChar

StartChar: Aacute
Encoding: 193 193 166
Width: 1186
Flags: W
LayerCount: 2
Fore
SplineSet
392 561 m 1
 808 561 l 1
 808 561 613 1110 593 1179 c 1
 575 1119 392 561 392 561 c 1
11 0 m 1
 495 1346 l 1
 693 1346 l 1
 1176 0 l 1
 1011 0 l 1
 856 430 l 1
 342 430 l 1
 185 0 l 1
 11 0 l 1
393 1485 m 1
 497 1485 l 1
 793 1838 l 1
 563 1838 l 1
 393 1485 l 1
EndSplineSet
EndChar

StartChar: Acircumflex
Encoding: 194 194 167
Width: 1186
Flags: W
LayerCount: 2
Fore
SplineSet
392 561 m 1
 808 561 l 1
 808 561 613 1110 593 1179 c 1
 575 1119 392 561 392 561 c 1
11 0 m 1
 495 1346 l 1
 693 1346 l 1
 1176 0 l 1
 1011 0 l 1
 856 430 l 1
 342 430 l 1
 185 0 l 1
 11 0 l 1
326 1485 m 1
 445 1485 l 1
 592 1733 l 1
 739 1485 l 1
 860 1485 l 1
 690 1838 l 1
 496 1838 l 1
 326 1485 l 1
EndSplineSet
EndChar

StartChar: Adieresis
Encoding: 196 196 168
Width: 1186
Flags: W
LayerCount: 2
Fore
SplineSet
392 561 m 1
 808 561 l 1
 808 561 613 1110 593 1179 c 1
 575 1119 392 561 392 561 c 1
11 0 m 1
 495 1346 l 1
 693 1346 l 1
 1176 0 l 1
 1011 0 l 1
 856 430 l 1
 342 430 l 1
 185 0 l 1
 11 0 l 1
345 1488 m 1
 486 1488 l 1
 486 1681 l 1
 345 1681 l 1
 345 1488 l 1
700 1488 m 1
 841 1488 l 1
 841 1681 l 1
 700 1681 l 1
 700 1488 l 1
EndSplineSet
EndChar

StartChar: Agrave
Encoding: 192 192 169
Width: 1186
Flags: W
LayerCount: 2
Fore
SplineSet
392 561 m 1
 808 561 l 1
 808 561 613 1110 593 1179 c 1
 575 1119 392 561 392 561 c 1
11 0 m 1
 495 1346 l 1
 693 1346 l 1
 1176 0 l 1
 1011 0 l 1
 856 430 l 1
 342 430 l 1
 185 0 l 1
 11 0 l 1
689 1485 m 1
 791 1485 l 1
 623 1838 l 1
 395 1838 l 1
 689 1485 l 1
EndSplineSet
EndChar

StartChar: Aring
Encoding: 197 197 170
Width: 1186
Flags: W
LayerCount: 2
Fore
SplineSet
392 561 m 1
 808 561 l 1
 808 561 613 1110 593 1179 c 1
 575 1119 392 561 392 561 c 1
11 0 m 1
 495 1346 l 1
 693 1346 l 1
 1176 0 l 1
 1011 0 l 1
 856 430 l 1
 342 430 l 1
 185 0 l 1
 11 0 l 1
503 1659 m 0
 503 1715 547 1764 593 1764 c 0
 643 1764 681 1715 681 1659 c 0
 681 1603 639 1557 593 1557 c 0
 537 1557 503 1598 503 1659 c 0
770 1659 m 0
 770 1761 688 1838 593 1838 c 0
 501 1838 416 1767 416 1659 c 0
 416 1554 500 1491 595 1491 c 0
 685 1491 770 1554 770 1659 c 0
EndSplineSet
EndChar

StartChar: Atilde
Encoding: 195 195 171
Width: 1186
Flags: W
LayerCount: 2
Fore
SplineSet
392 561 m 1
 808 561 l 1
 808 561 613 1110 593 1179 c 1
 575 1119 392 561 392 561 c 1
11 0 m 1
 495 1346 l 1
 693 1346 l 1
 1176 0 l 1
 1011 0 l 1
 856 430 l 1
 342 430 l 1
 185 0 l 1
 11 0 l 1
466 1721 m 0
 579 1721 735 1636 735 1636 c 1
 771 1639 774 1683 777 1721 c 1
 877 1721 l 1
 877 1596 837 1522 741 1522 c 0
 659 1522 457 1610 457 1610 c 1
 427 1609 410 1572 407 1522 c 1
 310 1522 l 1
 310 1658 369 1721 466 1721 c 0
EndSplineSet
EndChar

StartChar: Ccedilla
Encoding: 199 199 172
Width: 1182
Flags: W
LayerCount: 2
Fore
SplineSet
95 678 m 0
 95 1083 336 1366 740 1366 c 0
 899 1366 1024 1330 1123 1266 c 1
 1070 1142 l 1
 981 1196 862 1228 742 1228 c 0
 431 1228 264 991 264 672 c 0
 264 354 427 120 758 120 c 0
 873 120 981 149 1078 196 c 1
 1103 68 l 1
 1039 28 891 -18 723 -18 c 1
 337 -12 95 263 95 678 c 0
502 -373 m 1
 642 -373 l 1
 682 15 l 1
 604 15 l 1
 502 -373 l 1
EndSplineSet
EndChar

StartChar: Eacute
Encoding: 201 201 173
Width: 1064
Flags: W
LayerCount: 2
Fore
SplineSet
330 1207 m 1
 964 1207 l 1
 971 1346 l 1
 155 1346 l 1
 155 0 l 1
 963 0 l 1
 971 139 l 1
 330 139 l 1
 330 629 l 1
 912 629 l 1
 912 766 l 1
 330 766 l 1
 330 1207 l 1
333 1485 m 1
 437 1485 l 1
 733 1838 l 1
 503 1838 l 1
 333 1485 l 1
EndSplineSet
EndChar

StartChar: Ecircumflex
Encoding: 202 202 174
Width: 1064
Flags: W
LayerCount: 2
Fore
SplineSet
330 1207 m 1
 964 1207 l 1
 971 1346 l 1
 155 1346 l 1
 155 0 l 1
 963 0 l 1
 971 139 l 1
 330 139 l 1
 330 629 l 1
 912 629 l 1
 912 766 l 1
 330 766 l 1
 330 1207 l 1
266 1485 m 1
 385 1485 l 1
 532 1733 l 1
 679 1485 l 1
 800 1485 l 1
 630 1838 l 1
 436 1838 l 1
 266 1485 l 1
EndSplineSet
EndChar

StartChar: Edieresis
Encoding: 203 203 175
Width: 1064
Flags: W
LayerCount: 2
Fore
SplineSet
330 1207 m 1
 964 1207 l 1
 971 1346 l 1
 155 1346 l 1
 155 0 l 1
 963 0 l 1
 971 139 l 1
 330 139 l 1
 330 629 l 1
 912 629 l 1
 912 766 l 1
 330 766 l 1
 330 1207 l 1
285 1488 m 1
 426 1488 l 1
 426 1681 l 1
 285 1681 l 1
 285 1488 l 1
640 1488 m 1
 781 1488 l 1
 781 1681 l 1
 640 1681 l 1
 640 1488 l 1
EndSplineSet
EndChar

StartChar: Egrave
Encoding: 200 200 176
Width: 1064
Flags: W
LayerCount: 2
Fore
SplineSet
330 1207 m 1
 964 1207 l 1
 971 1346 l 1
 155 1346 l 1
 155 0 l 1
 963 0 l 1
 971 139 l 1
 330 139 l 1
 330 629 l 1
 912 629 l 1
 912 766 l 1
 330 766 l 1
 330 1207 l 1
629 1485 m 1
 731 1485 l 1
 563 1838 l 1
 335 1838 l 1
 629 1485 l 1
EndSplineSet
EndChar

StartChar: Iacute
Encoding: 205 205 177
Width: 491
Flags: W
LayerCount: 2
Fore
SplineSet
158 0 m 1
 333 0 l 1
 333 1346 l 1
 158 1346 l 1
 158 0 l 1
46 1485 m 1
 150 1485 l 1
 446 1838 l 1
 216 1838 l 1
 46 1485 l 1
EndSplineSet
EndChar

StartChar: Icircumflex
Encoding: 206 206 178
Width: 491
Flags: W
LayerCount: 2
Fore
SplineSet
158 0 m 1
 333 0 l 1
 333 1346 l 1
 158 1346 l 1
 158 0 l 1
-21 1485 m 1
 98 1485 l 1
 245 1733 l 1
 392 1485 l 1
 513 1485 l 1
 343 1838 l 1
 149 1838 l 1
 -21 1485 l 1
EndSplineSet
EndChar

StartChar: Idieresis
Encoding: 207 207 179
Width: 491
Flags: W
LayerCount: 2
Fore
SplineSet
158 0 m 1
 333 0 l 1
 333 1346 l 1
 158 1346 l 1
 158 0 l 1
-2 1488 m 1
 139 1488 l 1
 139 1681 l 1
 -2 1681 l 1
 -2 1488 l 1
353 1488 m 1
 494 1488 l 1
 494 1681 l 1
 353 1681 l 1
 353 1488 l 1
EndSplineSet
EndChar

StartChar: Igrave
Encoding: 204 204 180
Width: 491
Flags: W
LayerCount: 2
Fore
SplineSet
158 0 m 1
 333 0 l 1
 333 1346 l 1
 158 1346 l 1
 158 0 l 1
342 1485 m 1
 444 1485 l 1
 276 1838 l 1
 48 1838 l 1
 342 1485 l 1
EndSplineSet
EndChar

StartChar: Ntilde
Encoding: 209 209 181
Width: 1417
Flags: W
LayerCount: 2
Fore
SplineSet
331 1346 m 1
 155 1346 l 1
 155 0 l 1
 308 0 l 1
 308 786 l 2
 308 894 303 1137 303 1137 c 1
 559 757 824 377 1083 0 c 1
 1262 0 l 1
 1262 1346 l 1
 1109 1346 l 1
 1109 555 l 2
 1109 509 1114 208 1114 208 c 1
 856 587 591 970 331 1346 c 1
581 1721 m 0
 694 1721 850 1636 850 1636 c 1
 886 1639 889 1683 892 1721 c 1
 992 1721 l 1
 992 1596 952 1522 856 1522 c 0
 774 1522 572 1610 572 1610 c 1
 542 1609 525 1572 522 1522 c 1
 425 1522 l 1
 425 1658 484 1721 581 1721 c 0
EndSplineSet
EndChar

StartChar: Oacute
Encoding: 211 211 182
Width: 1473
Flags: W
LayerCount: 2
Fore
SplineSet
737 -18 m 0
 322 -18 96 251 96 668 c 0
 96 1095 330 1366 738 1366 c 0
 1139 1366 1377 1092 1377 667 c 0
 1377 257 1147 -18 737 -18 c 0
1202 667 m 0
 1202 997 1049 1228 738 1228 c 0
 427 1228 271 998 271 667 c 0
 271 349 419 120 737 120 c 0
 1055 120 1202 349 1202 667 c 0
537 1485 m 1
 641 1485 l 1
 937 1838 l 1
 707 1838 l 1
 537 1485 l 1
EndSplineSet
EndChar

StartChar: Ocircumflex
Encoding: 212 212 183
Width: 1473
Flags: W
LayerCount: 2
Fore
SplineSet
737 -18 m 0
 322 -18 96 251 96 668 c 0
 96 1095 330 1366 738 1366 c 0
 1139 1366 1377 1092 1377 667 c 0
 1377 257 1147 -18 737 -18 c 0
1202 667 m 0
 1202 997 1049 1228 738 1228 c 0
 427 1228 271 998 271 667 c 0
 271 349 419 120 737 120 c 0
 1055 120 1202 349 1202 667 c 0
470 1485 m 1
 589 1485 l 1
 736 1733 l 1
 883 1485 l 1
 1004 1485 l 1
 834 1838 l 1
 640 1838 l 1
 470 1485 l 1
EndSplineSet
EndChar

StartChar: Odieresis
Encoding: 214 214 184
Width: 1473
Flags: W
LayerCount: 2
Fore
SplineSet
737 -18 m 0
 322 -18 96 251 96 668 c 0
 96 1095 330 1366 738 1366 c 0
 1139 1366 1377 1092 1377 667 c 0
 1377 257 1147 -18 737 -18 c 0
1202 667 m 0
 1202 997 1049 1228 738 1228 c 0
 427 1228 271 998 271 667 c 0
 271 349 419 120 737 120 c 0
 1055 120 1202 349 1202 667 c 0
489 1488 m 1
 630 1488 l 1
 630 1681 l 1
 489 1681 l 1
 489 1488 l 1
844 1488 m 1
 985 1488 l 1
 985 1681 l 1
 844 1681 l 1
 844 1488 l 1
EndSplineSet
EndChar

StartChar: Ograve
Encoding: 210 210 185
Width: 1473
Flags: W
LayerCount: 2
Fore
SplineSet
737 -18 m 0
 322 -18 96 251 96 668 c 0
 96 1095 330 1366 738 1366 c 0
 1139 1366 1377 1092 1377 667 c 0
 1377 257 1147 -18 737 -18 c 0
1202 667 m 0
 1202 997 1049 1228 738 1228 c 0
 427 1228 271 998 271 667 c 0
 271 349 419 120 737 120 c 0
 1055 120 1202 349 1202 667 c 0
833 1485 m 1
 935 1485 l 1
 767 1838 l 1
 539 1838 l 1
 833 1485 l 1
EndSplineSet
EndChar

StartChar: Otilde
Encoding: 213 213 186
Width: 1473
Flags: W
LayerCount: 2
Fore
SplineSet
737 -18 m 0
 322 -18 96 251 96 668 c 0
 96 1095 330 1366 738 1366 c 0
 1139 1366 1377 1092 1377 667 c 0
 1377 257 1147 -18 737 -18 c 0
1202 667 m 0
 1202 997 1049 1228 738 1228 c 0
 427 1228 271 998 271 667 c 0
 271 349 419 120 737 120 c 0
 1055 120 1202 349 1202 667 c 0
610 1721 m 0
 723 1721 879 1636 879 1636 c 1
 915 1639 918 1683 921 1721 c 1
 1021 1721 l 1
 1021 1596 981 1522 885 1522 c 0
 803 1522 601 1610 601 1610 c 1
 571 1609 554 1572 551 1522 c 1
 454 1522 l 1
 454 1658 513 1721 610 1721 c 0
EndSplineSet
EndChar

StartChar: Scaron
Encoding: 352 352 187
Width: 1059
Flags: W
LayerCount: 2
Fore
SplineSet
87 110 m 1
 141 238 l 1
 251 172 381 120 544 120 c 0
 725 120 845 192 838 367 c 0
 833 476 760 541 600 598 c 2
 375 678 l 1
 202 734 89 829 89 1009 c 0
 89 1274 303 1366 555 1366 c 0
 711 1366 850 1309 936 1251 c 1
 882 1126 l 1
 819 1165 699 1228 561 1228 c 0
 392 1228 245 1173 245 1020 c 0
 245 914 310 860 431 822 c 1
 644 746 l 1
 832 687 984 599 990 377 c 0
 998 94 805 -18 544 -18 c 0
 322 -18 164 59 87 110 c 1
436 1485 m 1
 630 1485 l 1
 800 1838 l 1
 679 1838 l 1
 532 1555 l 1
 385 1838 l 1
 266 1838 l 1
 436 1485 l 1
EndSplineSet
EndChar

StartChar: Uacute
Encoding: 218 218 188
Width: 1309
Flags: W
LayerCount: 2
Fore
SplineSet
1171 493 m 2
 1171 1346 l 1
 997 1346 l 1
 997 492 l 2
 997 248 884 120 649 120 c 0
 408 120 302 248 302 492 c 2
 302 1346 l 1
 128 1346 l 1
 128 495 l 2
 128 196 291 -18 649 -18 c 0
 1007 -18 1171 195 1171 493 c 2
451 1485 m 1
 555 1485 l 1
 851 1838 l 1
 621 1838 l 1
 451 1485 l 1
EndSplineSet
EndChar

StartChar: Ucircumflex
Encoding: 219 219 189
Width: 1309
Flags: W
LayerCount: 2
Fore
SplineSet
1171 493 m 2
 1171 1346 l 1
 997 1346 l 1
 997 492 l 2
 997 248 884 120 649 120 c 0
 408 120 302 248 302 492 c 2
 302 1346 l 1
 128 1346 l 1
 128 495 l 2
 128 196 291 -18 649 -18 c 0
 1007 -18 1171 195 1171 493 c 2
384 1485 m 1
 503 1485 l 1
 650 1733 l 1
 797 1485 l 1
 918 1485 l 1
 748 1838 l 1
 554 1838 l 1
 384 1485 l 1
EndSplineSet
EndChar

StartChar: Udieresis
Encoding: 220 220 190
Width: 1309
Flags: W
LayerCount: 2
Fore
SplineSet
1171 493 m 2
 1171 1346 l 1
 997 1346 l 1
 997 492 l 2
 997 248 884 120 649 120 c 0
 408 120 302 248 302 492 c 2
 302 1346 l 1
 128 1346 l 1
 128 495 l 2
 128 196 291 -18 649 -18 c 0
 1007 -18 1171 195 1171 493 c 2
403 1488 m 1
 544 1488 l 1
 544 1681 l 1
 403 1681 l 1
 403 1488 l 1
758 1488 m 1
 899 1488 l 1
 899 1681 l 1
 758 1681 l 1
 758 1488 l 1
EndSplineSet
EndChar

StartChar: Ugrave
Encoding: 217 217 191
Width: 1309
Flags: W
LayerCount: 2
Fore
SplineSet
1171 493 m 2
 1171 1346 l 1
 997 1346 l 1
 997 492 l 2
 997 248 884 120 649 120 c 0
 408 120 302 248 302 492 c 2
 302 1346 l 1
 128 1346 l 1
 128 495 l 2
 128 196 291 -18 649 -18 c 0
 1007 -18 1171 195 1171 493 c 2
747 1485 m 1
 849 1485 l 1
 681 1838 l 1
 453 1838 l 1
 747 1485 l 1
EndSplineSet
EndChar

StartChar: Yacute
Encoding: 221 221 192
Width: 1099
Flags: W
LayerCount: 2
Fore
SplineSet
549 683 m 1
 171 1346 l 1
 -4 1346 l 1
 462 533 l 1
 462 0 l 1
 637 0 l 1
 637 537 l 1
 1103 1346 l 1
 928 1346 l 1
 549 683 l 1
349 1485 m 1
 453 1485 l 1
 749 1838 l 1
 519 1838 l 1
 349 1485 l 1
EndSplineSet
EndChar

StartChar: Ydieresis
Encoding: 376 376 193
Width: 1099
Flags: W
LayerCount: 2
Fore
SplineSet
549 683 m 1
 171 1346 l 1
 -4 1346 l 1
 462 533 l 1
 462 0 l 1
 637 0 l 1
 637 537 l 1
 1103 1346 l 1
 928 1346 l 1
 549 683 l 1
301 1488 m 1
 442 1488 l 1
 442 1681 l 1
 301 1681 l 1
 301 1488 l 1
656 1488 m 1
 797 1488 l 1
 797 1681 l 1
 656 1681 l 1
 656 1488 l 1
EndSplineSet
EndChar

StartChar: Zcaron
Encoding: 381 381 194
Width: 1081
Flags: W
LayerCount: 2
Fore
SplineSet
113 1346 m 1
 1007 1346 l 1
 1007 1228 l 1
 283 138 l 1
 1014 138 l 1
 1008 0 l 1
 86 0 l 1
 86 124 l 1
 806 1208 l 1
 113 1208 l 1
 113 1346 l 1
457 1485 m 1
 651 1485 l 1
 821 1838 l 1
 700 1838 l 1
 553 1555 l 1
 406 1838 l 1
 287 1838 l 1
 457 1485 l 1
EndSplineSet
EndChar

StartChar: aacute
Encoding: 225 225 195
Width: 1057
Flags: W
LayerCount: 2
Fore
SplineSet
111 263 m 0
 111 478 291 562 576 583 c 0
 622 587 751 597 751 597 c 1
 751 685 l 2
 751 823 681 886 538 886 c 0
 442 886 305 858 211 812 c 1
 203 831 171 916 164 935 c 1
 250 983 405 1019 534 1019 c 0
 778 1019 926 927 926 661 c 2
 926 0 l 1
 785 0 l 1
 780 24 763 125 758 149 c 1
 658 19 561 -18 432 -21 c 0
 251 -25 111 75 111 263 c 0
751 302 m 1
 751 490 l 1
 751 490 658 481 635 478 c 0
 374 447 285 402 285 262 c 0
 285 152 362 102 445 102 c 0
 586 102 697 175 751 302 c 1
329 1137 m 1
 433 1137 l 1
 729 1490 l 1
 499 1490 l 1
 329 1137 l 1
EndSplineSet
EndChar

StartChar: acircumflex
Encoding: 226 226 196
Width: 1057
Flags: W
LayerCount: 2
Fore
SplineSet
111 263 m 0
 111 478 291 562 576 583 c 0
 622 587 751 597 751 597 c 1
 751 685 l 2
 751 823 681 886 538 886 c 0
 442 886 305 858 211 812 c 1
 203 831 171 916 164 935 c 1
 250 983 405 1019 534 1019 c 0
 778 1019 926 927 926 661 c 2
 926 0 l 1
 785 0 l 1
 780 24 763 125 758 149 c 1
 658 19 561 -18 432 -21 c 0
 251 -25 111 75 111 263 c 0
751 302 m 1
 751 490 l 1
 751 490 658 481 635 478 c 0
 374 447 285 402 285 262 c 0
 285 152 362 102 445 102 c 0
 586 102 697 175 751 302 c 1
262 1137 m 1
 381 1137 l 1
 528 1385 l 1
 675 1137 l 1
 796 1137 l 1
 626 1490 l 1
 432 1490 l 1
 262 1137 l 1
EndSplineSet
EndChar

StartChar: adieresis
Encoding: 228 228 197
Width: 1057
Flags: W
LayerCount: 2
Fore
SplineSet
111 263 m 0
 111 478 291 562 576 583 c 0
 622 587 751 597 751 597 c 1
 751 685 l 2
 751 823 681 886 538 886 c 0
 442 886 305 858 211 812 c 1
 203 831 171 916 164 935 c 1
 250 983 405 1019 534 1019 c 0
 778 1019 926 927 926 661 c 2
 926 0 l 1
 785 0 l 1
 780 24 763 125 758 149 c 1
 658 19 561 -18 432 -21 c 0
 251 -25 111 75 111 263 c 0
751 302 m 1
 751 490 l 1
 751 490 658 481 635 478 c 0
 374 447 285 402 285 262 c 0
 285 152 362 102 445 102 c 0
 586 102 697 175 751 302 c 1
281 1140 m 1
 422 1140 l 1
 422 1333 l 1
 281 1333 l 1
 281 1140 l 1
636 1140 m 1
 777 1140 l 1
 777 1333 l 1
 636 1333 l 1
 636 1140 l 1
EndSplineSet
EndChar

StartChar: agrave
Encoding: 224 224 198
Width: 1057
Flags: W
LayerCount: 2
Fore
SplineSet
111 263 m 0
 111 478 291 562 576 583 c 0
 622 587 751 597 751 597 c 1
 751 685 l 2
 751 823 681 886 538 886 c 0
 442 886 305 858 211 812 c 1
 203 831 171 916 164 935 c 1
 250 983 405 1019 534 1019 c 0
 778 1019 926 927 926 661 c 2
 926 0 l 1
 785 0 l 1
 780 24 763 125 758 149 c 1
 658 19 561 -18 432 -21 c 0
 251 -25 111 75 111 263 c 0
751 302 m 1
 751 490 l 1
 751 490 658 481 635 478 c 0
 374 447 285 402 285 262 c 0
 285 152 362 102 445 102 c 0
 586 102 697 175 751 302 c 1
625 1137 m 1
 727 1137 l 1
 559 1490 l 1
 331 1490 l 1
 625 1137 l 1
EndSplineSet
EndChar

StartChar: aring
Encoding: 229 229 199
Width: 1057
Flags: W
LayerCount: 2
Fore
SplineSet
111 263 m 0
 111 478 291 562 576 583 c 0
 622 587 751 597 751 597 c 1
 751 685 l 2
 751 823 681 886 538 886 c 0
 442 886 305 858 211 812 c 1
 203 831 171 916 164 935 c 1
 250 983 405 1019 534 1019 c 0
 778 1019 926 927 926 661 c 2
 926 0 l 1
 785 0 l 1
 780 24 763 125 758 149 c 1
 658 19 561 -18 432 -21 c 0
 251 -25 111 75 111 263 c 0
751 302 m 1
 751 490 l 1
 751 490 658 481 635 478 c 0
 374 447 285 402 285 262 c 0
 285 152 362 102 445 102 c 0
 586 102 697 175 751 302 c 1
439 1311 m 0
 439 1367 483 1416 529 1416 c 0
 579 1416 617 1367 617 1311 c 0
 617 1255 575 1209 529 1209 c 0
 473 1209 439 1250 439 1311 c 0
706 1311 m 0
 706 1413 624 1490 529 1490 c 0
 437 1490 352 1419 352 1311 c 0
 352 1206 436 1143 531 1143 c 0
 621 1143 706 1206 706 1311 c 0
EndSplineSet
EndChar

StartChar: atilde
Encoding: 227 227 200
Width: 1057
Flags: W
LayerCount: 2
Fore
SplineSet
111 263 m 0
 111 478 291 562 576 583 c 0
 622 587 751 597 751 597 c 1
 751 685 l 2
 751 823 681 886 538 886 c 0
 442 886 305 858 211 812 c 1
 203 831 171 916 164 935 c 1
 250 983 405 1019 534 1019 c 0
 778 1019 926 927 926 661 c 2
 926 0 l 1
 785 0 l 1
 780 24 763 125 758 149 c 1
 658 19 561 -18 432 -21 c 0
 251 -25 111 75 111 263 c 0
751 302 m 1
 751 490 l 1
 751 490 658 481 635 478 c 0
 374 447 285 402 285 262 c 0
 285 152 362 102 445 102 c 0
 586 102 697 175 751 302 c 1
402 1373 m 0
 515 1373 671 1288 671 1288 c 1
 707 1291 710 1335 713 1373 c 1
 813 1373 l 1
 813 1248 773 1174 677 1174 c 0
 595 1174 393 1262 393 1262 c 1
 363 1261 346 1224 343 1174 c 1
 246 1174 l 1
 246 1310 305 1373 402 1373 c 0
EndSplineSet
EndChar

StartChar: ccedilla
Encoding: 231 231 201
Width: 881
Flags: W
LayerCount: 2
Fore
SplineSet
816 51 m 1
 793 175 l 1
 721 138 667 112 581 112 c 0
 367 112 260 265 260 495 c 0
 260 733 371 886 581 886 c 0
 647 886 709 870 780 832 c 1
 822 950 l 1
 767 990 663 1019 558 1019 c 0
 278 1019 86 810 86 496 c 0
 86 195 271 -21 552 -21 c 0
 652 -21 750 3 816 51 c 1
359 -373 m 1
 499 -373 l 1
 539 15 l 1
 461 15 l 1
 359 -373 l 1
EndSplineSet
EndChar

StartChar: eacute
Encoding: 233 233 202
Width: 1030
Flags: W
LayerCount: 2
Fore
SplineSet
463 1182 m 1
 567 1182 l 1
 863 1535 l 1
 633 1535 l 1
 463 1182 l 1
262 582 m 1
 783 582 l 1
 778 779 709 888 548 888 c 0
 392 888 279 772 262 582 c 1
86 496 m 0
 86 805 280 1019 543 1019 c 0
 800 1019 947 832 947 553 c 0
 947 530 941 469 941 469 c 1
 258 469 l 1
 262 240 397 112 587 112 c 0
 712 112 813 151 901 197 c 1
 925 65 l 1
 829 7 711 -21 562 -21 c 0
 273 -21 86 176 86 496 c 0
EndSplineSet
EndChar

StartChar: ecircumflex
Encoding: 234 234 203
Width: 1030
Flags: W
LayerCount: 2
Fore
SplineSet
248 1182 m 1
 367 1182 l 1
 514 1430 l 1
 661 1182 l 1
 782 1182 l 1
 612 1535 l 1
 418 1535 l 1
 248 1182 l 1
262 582 m 1
 783 582 l 1
 778 779 709 888 548 888 c 0
 392 888 279 772 262 582 c 1
86 496 m 0
 86 805 280 1019 543 1019 c 0
 800 1019 947 832 947 553 c 0
 947 530 941 469 941 469 c 1
 258 469 l 1
 262 240 397 112 587 112 c 0
 712 112 813 151 901 197 c 1
 925 65 l 1
 829 7 711 -21 562 -21 c 0
 273 -21 86 176 86 496 c 0
EndSplineSet
EndChar

StartChar: edieresis
Encoding: 235 235 204
Width: 1030
Flags: W
LayerCount: 2
Fore
SplineSet
267 1182 m 1
 408 1182 l 1
 408 1375 l 1
 267 1375 l 1
 267 1182 l 1
622 1182 m 1
 763 1182 l 1
 763 1375 l 1
 622 1375 l 1
 622 1182 l 1
262 582 m 1
 783 582 l 1
 778 779 709 888 548 888 c 0
 392 888 279 772 262 582 c 1
86 496 m 0
 86 805 280 1019 543 1019 c 0
 800 1019 947 832 947 553 c 0
 947 530 941 469 941 469 c 1
 258 469 l 1
 262 240 397 112 587 112 c 0
 712 112 813 151 901 197 c 1
 925 65 l 1
 829 7 711 -21 562 -21 c 0
 273 -21 86 176 86 496 c 0
EndSplineSet
EndChar

StartChar: egrave
Encoding: 232 232 205
Width: 1030
Flags: W
LayerCount: 2
Fore
SplineSet
262 582 m 1
 783 582 l 1
 778 779 709 888 548 888 c 0
 392 888 279 772 262 582 c 1
86 496 m 0
 86 805 280 1019 543 1019 c 0
 800 1019 947 832 947 553 c 0
 947 530 941 469 941 469 c 1
 258 469 l 1
 262 240 397 112 587 112 c 0
 712 112 813 151 901 197 c 1
 925 65 l 1
 829 7 711 -21 562 -21 c 0
 273 -21 86 176 86 496 c 0
608 1138 m 1
 710 1138 l 1
 542 1491 l 1
 314 1491 l 1
 608 1138 l 1
EndSplineSet
EndChar

StartChar: iacute
Encoding: 237 237 206
Width: 413
Flags: W
LayerCount: 2
Fore
SplineSet
155 1182 m 1
 259 1182 l 1
 555 1535 l 1
 325 1535 l 1
 155 1182 l 1
130 0 m 1
 284 0 l 1
 284 999 l 1
 130 999 l 1
 130 0 l 1
EndSplineSet
EndChar

StartChar: icircumflex
Encoding: 238 238 207
Width: 413
Flags: W
LayerCount: 2
Fore
SplineSet
-60 1182 m 1
 59 1182 l 1
 206 1430 l 1
 353 1182 l 1
 474 1182 l 1
 304 1535 l 1
 110 1535 l 1
 -60 1182 l 1
130 0 m 1
 284 0 l 1
 284 999 l 1
 130 999 l 1
 130 0 l 1
EndSplineSet
EndChar

StartChar: idieresis
Encoding: 239 239 208
Width: 413
Flags: W
LayerCount: 2
Fore
SplineSet
-41 1182 m 1
 100 1182 l 1
 100 1375 l 1
 -41 1375 l 1
 -41 1182 l 1
314 1182 m 1
 455 1182 l 1
 455 1375 l 1
 314 1375 l 1
 314 1182 l 1
130 0 m 1
 284 0 l 1
 284 999 l 1
 130 999 l 1
 130 0 l 1
EndSplineSet
EndChar

StartChar: igrave
Encoding: 236 236 209
Width: 413
Flags: W
LayerCount: 2
Fore
SplineSet
130 0 m 1
 284 0 l 1
 284 999 l 1
 130 999 l 1
 130 0 l 1
303 1138 m 1
 405 1138 l 1
 237 1491 l 1
 9 1491 l 1
 303 1138 l 1
EndSplineSet
EndChar

StartChar: ntilde
Encoding: 241 241 210
Width: 1091
Flags: W
LayerCount: 2
Fore
SplineSet
147 0 m 1
 147 998 l 1
 296 998 l 1
 315 855 l 1
 387 963 490 1019 633 1019 c 0
 863 1019 963 880 963 612 c 2
 963 0 l 1
 788 0 l 1
 788 623 l 2
 788 788 752 889 599 889 c 0
 437 889 361 801 331 686 c 1
 325 643 322 597 322 546 c 2
 322 0 l 1
 147 0 l 1
419 1374 m 0
 532 1374 688 1289 688 1289 c 1
 724 1292 727 1336 730 1374 c 1
 830 1374 l 1
 830 1249 790 1175 694 1175 c 0
 612 1175 410 1263 410 1263 c 1
 380 1262 363 1225 360 1175 c 1
 263 1175 l 1
 263 1311 322 1374 419 1374 c 0
EndSplineSet
EndChar

StartChar: oacute
Encoding: 243 243 211
Width: 1104
Flags: W
LayerCount: 2
Fore
SplineSet
494 1182 m 1
 598 1182 l 1
 894 1535 l 1
 664 1535 l 1
 494 1182 l 1
86 499 m 0
 86 804 257 1019 552 1019 c 0
 847 1019 1018 804 1018 499 c 0
 1018 200 837 -21 552 -21 c 0
 267 -21 86 200 86 499 c 0
843 497 m 0
 843 719 758 886 552 886 c 0
 346 886 260 719 260 497 c 0
 260 279 345 112 552 112 c 0
 759 112 843 279 843 497 c 0
EndSplineSet
EndChar

StartChar: ocircumflex
Encoding: 244 244 212
Width: 1104
Flags: W
LayerCount: 2
Fore
SplineSet
279 1182 m 1
 398 1182 l 1
 545 1430 l 1
 692 1182 l 1
 813 1182 l 1
 643 1535 l 1
 449 1535 l 1
 279 1182 l 1
86 499 m 0
 86 804 257 1019 552 1019 c 0
 847 1019 1018 804 1018 499 c 0
 1018 200 837 -21 552 -21 c 0
 267 -21 86 200 86 499 c 0
843 497 m 0
 843 719 758 886 552 886 c 0
 346 886 260 719 260 497 c 0
 260 279 345 112 552 112 c 0
 759 112 843 279 843 497 c 0
EndSplineSet
EndChar

StartChar: odieresis
Encoding: 246 246 213
Width: 1104
Flags: W
LayerCount: 2
Fore
SplineSet
298 1182 m 1
 439 1182 l 1
 439 1375 l 1
 298 1375 l 1
 298 1182 l 1
653 1182 m 1
 794 1182 l 1
 794 1375 l 1
 653 1375 l 1
 653 1182 l 1
86 499 m 0
 86 804 257 1019 552 1019 c 0
 847 1019 1018 804 1018 499 c 0
 1018 200 837 -21 552 -21 c 0
 267 -21 86 200 86 499 c 0
843 497 m 0
 843 719 758 886 552 886 c 0
 346 886 260 719 260 497 c 0
 260 279 345 112 552 112 c 0
 759 112 843 279 843 497 c 0
EndSplineSet
EndChar

StartChar: ograve
Encoding: 242 242 214
Width: 1104
Flags: W
LayerCount: 2
Fore
SplineSet
495 1182 m 1
 597 1182 l 1
 429 1535 l 1
 201 1535 l 1
 495 1182 l 1
86 499 m 0
 86 804 257 1019 552 1019 c 0
 847 1019 1018 804 1018 499 c 0
 1018 200 837 -21 552 -21 c 0
 267 -21 86 200 86 499 c 0
843 497 m 0
 843 719 758 886 552 886 c 0
 346 886 260 719 260 497 c 0
 260 279 345 112 552 112 c 0
 759 112 843 279 843 497 c 0
EndSplineSet
EndChar

StartChar: otilde
Encoding: 245 245 215
Width: 1104
Flags: W
LayerCount: 2
Fore
SplineSet
86 499 m 0
 86 804 257 1019 552 1019 c 0
 847 1019 1018 804 1018 499 c 0
 1018 200 837 -21 552 -21 c 0
 267 -21 86 200 86 499 c 0
843 497 m 0
 843 719 758 886 552 886 c 0
 346 886 260 719 260 497 c 0
 260 279 345 112 552 112 c 0
 759 112 843 279 843 497 c 0
425 1374 m 0
 538 1374 694 1289 694 1289 c 1
 730 1292 733 1336 736 1374 c 1
 836 1374 l 1
 836 1249 796 1175 700 1175 c 0
 618 1175 416 1263 416 1263 c 1
 386 1262 369 1225 366 1175 c 1
 269 1175 l 1
 269 1311 328 1374 425 1374 c 0
EndSplineSet
EndChar

StartChar: scaron
Encoding: 353 353 216
Width: 798
Flags: W
LayerCount: 2
Fore
SplineSet
311 1182 m 1
 505 1182 l 1
 675 1535 l 1
 554 1535 l 1
 407 1252 l 1
 260 1535 l 1
 141 1535 l 1
 311 1182 l 1
747 269 m 1
 747 420 670 502 468 568 c 0
 440 577 427 586 404 593 c 0
 259 642 220 672 220 751 c 0
 220 836 286 886 412 886 c 0
 508 886 587 860 664 828 c 1
 709 954 l 1
 620 996 530 1019 412 1019 c 0
 186 1019 69 896 69 745 c 1
 70 620 137 538 314 473 c 1
 382 447 l 1
 565 381 605 350 605 262 c 0
 605 162 533 112 394 112 c 0
 275 112 182 152 116 187 c 1
 76 56 l 1
 142 13 251 -21 394 -21 c 0
 612 -21 744 82 747 269 c 1
EndSplineSet
EndChar

StartChar: uacute
Encoding: 250 250 217
Width: 1110
Flags: W
LayerCount: 2
Fore
SplineSet
502 1182 m 1
 606 1182 l 1
 902 1535 l 1
 672 1535 l 1
 502 1182 l 1
961 998 m 1
 961 0 l 1
 813 0 l 1
 794 143 l 1
 719 49 623 -21 480 -21 c 0
 250 -21 146 119 146 387 c 2
 146 998 l 1
 320 998 l 1
 320 375 l 2
 320 210 357 109 510 109 c 0
 672 109 747 197 777 312 c 1
 783 355 786 401 786 452 c 2
 786 998 l 1
 961 998 l 1
EndSplineSet
EndChar

StartChar: ucircumflex
Encoding: 251 251 218
Width: 1110
Flags: W
LayerCount: 2
Fore
SplineSet
287 1182 m 1
 406 1182 l 1
 553 1430 l 1
 700 1182 l 1
 821 1182 l 1
 651 1535 l 1
 457 1535 l 1
 287 1182 l 1
961 998 m 1
 961 0 l 1
 813 0 l 1
 794 143 l 1
 719 49 623 -21 480 -21 c 0
 250 -21 146 119 146 387 c 2
 146 998 l 1
 320 998 l 1
 320 375 l 2
 320 210 357 109 510 109 c 0
 672 109 747 197 777 312 c 1
 783 355 786 401 786 452 c 2
 786 998 l 1
 961 998 l 1
EndSplineSet
EndChar

StartChar: udieresis
Encoding: 252 252 219
Width: 1110
Flags: W
LayerCount: 2
Fore
SplineSet
306 1182 m 1
 447 1182 l 1
 447 1375 l 1
 306 1375 l 1
 306 1182 l 1
661 1182 m 1
 802 1182 l 1
 802 1375 l 1
 661 1375 l 1
 661 1182 l 1
961 998 m 1
 961 0 l 1
 813 0 l 1
 794 143 l 1
 719 49 623 -21 480 -21 c 0
 250 -21 146 119 146 387 c 2
 146 998 l 1
 320 998 l 1
 320 375 l 2
 320 210 357 109 510 109 c 0
 672 109 747 197 777 312 c 1
 783 355 786 401 786 452 c 2
 786 998 l 1
 961 998 l 1
EndSplineSet
EndChar

StartChar: ugrave
Encoding: 249 249 220
Width: 1110
Flags: W
LayerCount: 2
Fore
SplineSet
503 1182 m 1
 605 1182 l 1
 437 1535 l 1
 209 1535 l 1
 503 1182 l 1
961 998 m 1
 961 0 l 1
 813 0 l 1
 794 143 l 1
 719 49 623 -21 480 -21 c 0
 250 -21 146 119 146 387 c 2
 146 998 l 1
 320 998 l 1
 320 375 l 2
 320 210 357 109 510 109 c 0
 672 109 747 197 777 312 c 1
 783 355 786 401 786 452 c 2
 786 998 l 1
 961 998 l 1
EndSplineSet
EndChar

StartChar: yacute
Encoding: 253 253 221
Width: 1004
Flags: W
LayerCount: 2
Fore
SplineSet
451 1182 m 1
 555 1182 l 1
 851 1535 l 1
 621 1535 l 1
 451 1182 l 1
82 -412 m 1
 76 -281 l 1
 85 -284 196 -294 221 -294 c 0
 315 -294 378 -268 424 -124 c 0
 437 -84 460 33 460 33 c 1
 22 998 l 1
 210 998 l 1
 541 199 l 1
 795 998 l 1
 983 998 l 1
 983 998 586 -127 573 -161 c 0
 496 -365 405 -429 242 -429 c 0
 211 -429 102 -417 82 -412 c 1
EndSplineSet
EndChar

StartChar: ydieresis
Encoding: 255 255 222
Width: 1004
Flags: W
LayerCount: 2
Fore
SplineSet
255 1182 m 1
 396 1182 l 1
 396 1375 l 1
 255 1375 l 1
 255 1182 l 1
610 1182 m 1
 751 1182 l 1
 751 1375 l 1
 610 1375 l 1
 610 1182 l 1
82 -412 m 1
 76 -281 l 1
 85 -284 196 -294 221 -294 c 0
 315 -294 378 -268 424 -124 c 0
 437 -84 460 33 460 33 c 1
 22 998 l 1
 210 998 l 1
 541 199 l 1
 795 998 l 1
 983 998 l 1
 983 998 586 -127 573 -161 c 0
 496 -365 405 -429 242 -429 c 0
 211 -429 102 -417 82 -412 c 1
EndSplineSet
EndChar

StartChar: zcaron
Encoding: 382 382 223
Width: 808
Flags: W
LayerCount: 2
Fore
SplineSet
312 1182 m 1
 506 1182 l 1
 676 1535 l 1
 555 1535 l 1
 408 1252 l 1
 261 1535 l 1
 142 1535 l 1
 312 1182 l 1
77 998 m 1
 77 878 l 1
 574 878 l 1
 56 117 l 1
 56 0 l 1
 761 0 l 1
 761 120 l 1
 235 120 l 1
 744 873 l 1
 744 998 l 1
 77 998 l 1
EndSplineSet
EndChar

StartChar: Abreve
Encoding: 258 258 224
Width: 1186
Flags: W
LayerCount: 2
Fore
SplineSet
392 561 m 1
 808 561 l 1
 808 561 613 1110 593 1179 c 1
 575 1119 392 561 392 561 c 1
11 0 m 1
 495 1346 l 1
 693 1346 l 1
 1176 0 l 1
 1011 0 l 1
 856 430 l 1
 342 430 l 1
 185 0 l 1
 11 0 l 1
592 1529 m 0
 480 1529 365 1594 365 1751 c 1
 471 1751 l 1
 471 1664 526 1623 592 1623 c 0
 658 1623 716 1664 716 1751 c 1
 822 1751 l 1
 822 1594 705 1529 592 1529 c 0
EndSplineSet
EndChar

StartChar: Amacron
Encoding: 256 256 225
Width: 1186
Flags: W
LayerCount: 2
Fore
SplineSet
392 561 m 1
 808 561 l 1
 808 561 613 1110 593 1179 c 1
 575 1119 392 561 392 561 c 1
11 0 m 1
 495 1346 l 1
 693 1346 l 1
 1176 0 l 1
 1011 0 l 1
 856 430 l 1
 342 430 l 1
 185 0 l 1
 11 0 l 1
229 1699 m 1
 957 1699 l 1
 957 1826 l 1
 229 1826 l 1
 229 1699 l 1
EndSplineSet
EndChar

StartChar: Aogonek
Encoding: 260 260 226
Width: 1186
Flags: W
LayerCount: 2
Fore
SplineSet
392 561 m 1
 808 561 l 1
 808 561 613 1110 593 1179 c 1
 575 1119 392 561 392 561 c 1
11 0 m 1
 495 1346 l 1
 693 1346 l 1
 1176 0 l 1
 1011 0 l 1
 856 430 l 1
 342 430 l 1
 185 0 l 1
 11 0 l 1
1067 -352 m 1
 1067 -246 l 1
 1021 -265 991 -276 942 -276 c 0
 905 -276 862 -243 862 -195 c 0
 862 -133 931 -65 1026 5 c 1
 922 5 l 1
 835 -46 748 -122 748 -221 c 0
 748 -325 826 -381 924 -381 c 0
 973 -381 1032 -367 1067 -352 c 1
EndSplineSet
EndChar

StartChar: Aringacute
Encoding: 506 506 227
Width: 1186
Flags: W
LayerCount: 2
Fore
SplineSet
392 561 m 1
 808 561 l 1
 808 561 613 1110 593 1179 c 1
 575 1119 392 561 392 561 c 1
11 0 m 1
 495 1346 l 1
 693 1346 l 1
 1176 0 l 1
 1011 0 l 1
 856 430 l 1
 342 430 l 1
 185 0 l 1
 11 0 l 1
503 1659 m 0
 503 1715 547 1764 593 1764 c 0
 643 1764 681 1715 681 1659 c 0
 681 1603 639 1557 593 1557 c 0
 537 1557 503 1598 503 1659 c 0
770 1659 m 0
 770 1761 688 1838 593 1838 c 0
 501 1838 416 1767 416 1659 c 0
 416 1554 500 1491 595 1491 c 0
 685 1491 770 1554 770 1659 c 0
542 1864 m 1
 646 1864 l 1
 942 2217 l 1
 712 2217 l 1
 542 1864 l 1
EndSplineSet
EndChar

StartChar: AEacute
Encoding: 508 508 228
Width: 1918
Flags: W
LayerCount: 2
Fore
SplineSet
1136 1282 m 1
 1777 1282 l 1
 1777 1427 l 1
 917 1427 l 1
 84 0 l 1
 241 0 l 1
 460 389 l 1
 1055 389 l 1
 1083 0 l 1
 1795 0 l 1
 1795 144 l 1
 1228 144 l 1
 1189 659 l 1
 1745 659 l 1
 1745 803 l 1
 1171 803 l 1
 1136 1282 l 1
1035 536 m 1
 536 536 l 1
 979 1282 l 1
 1035 536 l 1
759 1485 m 1
 863 1485 l 1
 1159 1838 l 1
 929 1838 l 1
 759 1485 l 1
EndSplineSet
EndChar

StartChar: uni01E2
Encoding: 482 482 229
Width: 1918
Flags: W
LayerCount: 2
Fore
SplineSet
1136 1282 m 1
 1777 1282 l 1
 1777 1427 l 1
 917 1427 l 1
 84 0 l 1
 241 0 l 1
 460 389 l 1
 1055 389 l 1
 1083 0 l 1
 1795 0 l 1
 1795 144 l 1
 1228 144 l 1
 1189 659 l 1
 1745 659 l 1
 1745 803 l 1
 1171 803 l 1
 1136 1282 l 1
1035 536 m 1
 536 536 l 1
 979 1282 l 1
 1035 536 l 1
595 1699 m 1
 1323 1699 l 1
 1323 1826 l 1
 595 1826 l 1
 595 1699 l 1
EndSplineSet
EndChar

StartChar: Cacute
Encoding: 262 262 230
Width: 1182
Flags: W
LayerCount: 2
Fore
SplineSet
95 678 m 0
 95 1083 336 1366 740 1366 c 0
 899 1366 1024 1330 1123 1266 c 1
 1070 1142 l 1
 981 1196 862 1228 742 1228 c 0
 431 1228 264 991 264 672 c 0
 264 354 427 120 758 120 c 0
 873 120 981 149 1078 196 c 1
 1103 68 l 1
 1039 28 891 -18 723 -18 c 1
 337 -12 95 263 95 678 c 0
392 1485 m 1
 496 1485 l 1
 792 1838 l 1
 562 1838 l 1
 392 1485 l 1
EndSplineSet
EndChar

StartChar: Ccaron
Encoding: 268 268 231
Width: 1182
Flags: W
LayerCount: 2
Fore
SplineSet
95 678 m 0
 95 1083 336 1366 740 1366 c 0
 899 1366 1024 1330 1123 1266 c 1
 1070 1142 l 1
 981 1196 862 1228 742 1228 c 0
 431 1228 264 991 264 672 c 0
 264 354 427 120 758 120 c 0
 873 120 981 149 1078 196 c 1
 1103 68 l 1
 1039 28 891 -18 723 -18 c 1
 337 -12 95 263 95 678 c 0
495 1485 m 1
 689 1485 l 1
 859 1838 l 1
 738 1838 l 1
 591 1555 l 1
 444 1838 l 1
 325 1838 l 1
 495 1485 l 1
EndSplineSet
EndChar

StartChar: Ccircumflex
Encoding: 264 264 232
Width: 1182
Flags: W
LayerCount: 2
Fore
SplineSet
95 678 m 0
 95 1083 336 1366 740 1366 c 0
 899 1366 1024 1330 1123 1266 c 1
 1070 1142 l 1
 981 1196 862 1228 742 1228 c 0
 431 1228 264 991 264 672 c 0
 264 354 427 120 758 120 c 0
 873 120 981 149 1078 196 c 1
 1103 68 l 1
 1039 28 891 -18 723 -18 c 1
 337 -12 95 263 95 678 c 0
325 1485 m 1
 444 1485 l 1
 591 1733 l 1
 738 1485 l 1
 859 1485 l 1
 689 1838 l 1
 495 1838 l 1
 325 1485 l 1
EndSplineSet
EndChar

StartChar: Cdotaccent
Encoding: 266 266 233
Width: 1182
Flags: W
LayerCount: 2
Fore
SplineSet
95 678 m 0
 95 1083 336 1366 740 1366 c 0
 899 1366 1024 1330 1123 1266 c 1
 1070 1142 l 1
 981 1196 862 1228 742 1228 c 0
 431 1228 264 991 264 672 c 0
 264 354 427 120 758 120 c 0
 873 120 981 149 1078 196 c 1
 1103 68 l 1
 1039 28 891 -18 723 -18 c 1
 337 -12 95 263 95 678 c 0
516 1528 m 1
 669 1528 l 1
 669 1708 l 1
 516 1708 l 1
 516 1528 l 1
EndSplineSet
EndChar

StartChar: Dcaron
Encoding: 270 270 234
Width: 1356
Flags: W
LayerCount: 2
Fore
SplineSet
330 1208 m 1
 524 1208 l 2
 882 1208 1087 1058 1087 670 c 0
 1087 316 901 137 550 137 c 2
 330 137 l 1
 330 1208 l 1
155 0 m 1
 555 0 l 2
 994 0 1262 229 1262 674 c 0
 1262 1142 969 1346 528 1346 c 2
 155 1346 l 1
 155 0 l 1
577 1485 m 1
 771 1485 l 1
 941 1838 l 1
 820 1838 l 1
 673 1555 l 1
 526 1838 l 1
 407 1838 l 1
 577 1485 l 1
EndSplineSet
EndChar

StartChar: Dcroat
Encoding: 272 272 235
Width: 1490
Flags: W
LayerCount: 2
Fore
SplineSet
384 634 m 1
 604 634 l 1
 604 757 l 1
 384 757 l 1
 384 1220 l 1
 581 1220 l 2
 953 1220 1202 1097 1202 668 c 0
 1202 316 1004 141 671 141 c 2
 384 141 l 1
 384 634 l 1
223 757 m 1
 116 757 l 1
 116 634 l 1
 223 634 l 1
 223 0 l 1
 654 0 l 2
 1084 0 1374 219 1374 672 c 0
 1374 1197 1031 1361 561 1361 c 2
 223 1361 l 1
 223 757 l 1
EndSplineSet
EndChar

StartChar: Ebreve
Encoding: 276 276 236
Width: 1064
Flags: W
LayerCount: 2
Fore
SplineSet
330 1207 m 1
 964 1207 l 1
 971 1346 l 1
 155 1346 l 1
 155 0 l 1
 963 0 l 1
 971 139 l 1
 330 139 l 1
 330 629 l 1
 912 629 l 1
 912 766 l 1
 330 766 l 1
 330 1207 l 1
532 1529 m 0
 420 1529 305 1594 305 1751 c 1
 411 1751 l 1
 411 1664 466 1623 532 1623 c 0
 598 1623 656 1664 656 1751 c 1
 762 1751 l 1
 762 1594 645 1529 532 1529 c 0
EndSplineSet
EndChar

StartChar: Ecaron
Encoding: 282 282 237
Width: 1064
Flags: W
LayerCount: 2
Fore
SplineSet
330 1207 m 1
 964 1207 l 1
 971 1346 l 1
 155 1346 l 1
 155 0 l 1
 963 0 l 1
 971 139 l 1
 330 139 l 1
 330 629 l 1
 912 629 l 1
 912 766 l 1
 330 766 l 1
 330 1207 l 1
436 1485 m 1
 630 1485 l 1
 800 1838 l 1
 679 1838 l 1
 532 1555 l 1
 385 1838 l 1
 266 1838 l 1
 436 1485 l 1
EndSplineSet
EndChar

StartChar: Edotaccent
Encoding: 278 278 238
Width: 1064
Flags: W
LayerCount: 2
Fore
SplineSet
330 1207 m 1
 964 1207 l 1
 971 1346 l 1
 155 1346 l 1
 155 0 l 1
 963 0 l 1
 971 139 l 1
 330 139 l 1
 330 629 l 1
 912 629 l 1
 912 766 l 1
 330 766 l 1
 330 1207 l 1
457 1528 m 1
 610 1528 l 1
 610 1708 l 1
 457 1708 l 1
 457 1528 l 1
EndSplineSet
EndChar

StartChar: Emacron
Encoding: 274 274 239
Width: 1064
Flags: W
LayerCount: 2
Fore
SplineSet
330 1207 m 1
 964 1207 l 1
 971 1346 l 1
 155 1346 l 1
 155 0 l 1
 963 0 l 1
 971 139 l 1
 330 139 l 1
 330 629 l 1
 912 629 l 1
 912 766 l 1
 330 766 l 1
 330 1207 l 1
169 1699 m 1
 897 1699 l 1
 897 1826 l 1
 169 1826 l 1
 169 1699 l 1
EndSplineSet
EndChar

StartChar: Eogonek
Encoding: 280 280 240
Width: 1064
Flags: W
LayerCount: 2
Fore
SplineSet
330 1207 m 1
 964 1207 l 1
 971 1346 l 1
 155 1346 l 1
 155 0 l 1
 963 0 l 1
 971 139 l 1
 330 139 l 1
 330 629 l 1
 912 629 l 1
 912 766 l 1
 330 766 l 1
 330 1207 l 1
963 -352 m 1
 963 -246 l 1
 917 -265 887 -276 838 -276 c 0
 801 -276 758 -243 758 -195 c 0
 758 -133 827 -65 922 5 c 1
 818 5 l 1
 731 -46 644 -122 644 -221 c 0
 644 -325 722 -381 820 -381 c 0
 869 -381 928 -367 963 -352 c 1
EndSplineSet
EndChar

StartChar: Gbreve
Encoding: 286 286 241
Width: 1319
Flags: W
LayerCount: 2
Fore
SplineSet
94 672 m 0
 94 1078 344 1366 771 1366 c 0
 929 1366 1059 1333 1170 1260 c 1
 1121 1138 l 1
 1078 1161 988 1228 771 1228 c 1
 436 1221 269 991 269 672 c 0
 269 341 422 120 764 120 c 0
 867 120 969 131 1026 147 c 1
 1026 559 l 1
 736 559 l 1
 741 696 l 1
 1201 696 l 1
 1201 59 l 1
 1061 4 922 -18 738 -18 c 0
 320 -18 94 271 94 672 c 0
660 1529 m 0
 548 1529 433 1594 433 1751 c 1
 539 1751 l 1
 539 1664 594 1623 660 1623 c 0
 726 1623 784 1664 784 1751 c 1
 890 1751 l 1
 890 1594 773 1529 660 1529 c 0
EndSplineSet
EndChar

StartChar: Gcaron
Encoding: 486 486 242
Width: 1319
Flags: W
LayerCount: 2
Fore
SplineSet
94 672 m 0
 94 1078 344 1366 771 1366 c 0
 929 1366 1059 1333 1170 1260 c 1
 1121 1138 l 1
 1078 1161 988 1228 771 1228 c 1
 436 1221 269 991 269 672 c 0
 269 341 422 120 764 120 c 0
 867 120 969 131 1026 147 c 1
 1026 559 l 1
 736 559 l 1
 741 696 l 1
 1201 696 l 1
 1201 59 l 1
 1061 4 922 -18 738 -18 c 0
 320 -18 94 271 94 672 c 0
564 1485 m 1
 758 1485 l 1
 928 1838 l 1
 807 1838 l 1
 660 1555 l 1
 513 1838 l 1
 394 1838 l 1
 564 1485 l 1
EndSplineSet
EndChar

StartChar: Gcircumflex
Encoding: 284 284 243
Width: 1319
Flags: W
LayerCount: 2
Fore
SplineSet
94 672 m 0
 94 1078 344 1366 771 1366 c 0
 929 1366 1059 1333 1170 1260 c 1
 1121 1138 l 1
 1078 1161 988 1228 771 1228 c 1
 436 1221 269 991 269 672 c 0
 269 341 422 120 764 120 c 0
 867 120 969 131 1026 147 c 1
 1026 559 l 1
 736 559 l 1
 741 696 l 1
 1201 696 l 1
 1201 59 l 1
 1061 4 922 -18 738 -18 c 0
 320 -18 94 271 94 672 c 0
394 1485 m 1
 513 1485 l 1
 660 1733 l 1
 807 1485 l 1
 928 1485 l 1
 758 1838 l 1
 564 1838 l 1
 394 1485 l 1
EndSplineSet
EndChar

StartChar: Gcommaaccent
Encoding: 290 290 244
Width: 1319
Flags: W
LayerCount: 2
Fore
SplineSet
94 672 m 0
 94 1078 344 1366 771 1366 c 0
 929 1366 1059 1333 1170 1260 c 1
 1121 1138 l 1
 1078 1161 988 1228 771 1228 c 1
 436 1221 269 991 269 672 c 0
 269 341 422 120 764 120 c 0
 867 120 969 131 1026 147 c 1
 1026 559 l 1
 736 559 l 1
 741 696 l 1
 1201 696 l 1
 1201 59 l 1
 1061 4 922 -18 738 -18 c 0
 320 -18 94 271 94 672 c 0
EndSplineSet
EndChar

StartChar: Gdotaccent
Encoding: 288 288 245
Width: 1319
Flags: W
LayerCount: 2
Fore
SplineSet
94 672 m 0
 94 1078 344 1366 771 1366 c 0
 929 1366 1059 1333 1170 1260 c 1
 1121 1138 l 1
 1078 1161 988 1228 771 1228 c 1
 436 1221 269 991 269 672 c 0
 269 341 422 120 764 120 c 0
 867 120 969 131 1026 147 c 1
 1026 559 l 1
 736 559 l 1
 741 696 l 1
 1201 696 l 1
 1201 59 l 1
 1061 4 922 -18 738 -18 c 0
 320 -18 94 271 94 672 c 0
585 1528 m 1
 738 1528 l 1
 738 1708 l 1
 585 1708 l 1
 585 1528 l 1
EndSplineSet
EndChar

StartChar: Hbar
Encoding: 294 294 246
Width: 1458
Flags: W
LayerCount: 2
Fore
SplineSet
196 1138 m 1
 114 1138 l 1
 114 1043 l 1
 196 1043 l 1
 196 0 l 1
 357 0 l 1
 357 633 l 1
 1100 633 l 1
 1100 0 l 1
 1261 0 l 1
 1261 1043 l 1
 1343 1043 l 1
 1343 1138 l 1
 1261 1138 l 1
 1261 1361 l 1
 1100 1361 l 1
 1100 1138 l 1
 357 1138 l 1
 357 1361 l 1
 196 1361 l 1
 196 1138 l 1
357 772 m 1
 357 1043 l 1
 1100 1043 l 1
 1100 772 l 1
 357 772 l 1
EndSplineSet
EndChar

StartChar: Hcircumflex
Encoding: 292 292 247
Width: 1367
Flags: W
LayerCount: 2
Fore
SplineSet
329 766 m 1
 1038 766 l 1
 1038 1346 l 1
 1212 1346 l 1
 1212 0 l 1
 1038 0 l 1
 1038 634 l 1
 329 634 l 1
 329 0 l 1
 155 0 l 1
 155 1346 l 1
 329 1346 l 1
 329 766 l 1
412 1485 m 1
 531 1485 l 1
 678 1733 l 1
 825 1485 l 1
 946 1485 l 1
 776 1838 l 1
 582 1838 l 1
 412 1485 l 1
EndSplineSet
EndChar

StartChar: IJ
Encoding: 306 306 248
Width: 1108
Flags: W
LayerCount: 2
Fore
SplineSet
136 0 m 1
 311 0 l 1
 311 1346 l 1
 136 1346 l 1
 136 0 l 1
576 -195 m 1
 608 -195 l 2
 928 -195 974 -61 974 219 c 2
 974 1346 l 1
 799 1346 l 1
 799 186 l 2
 799 51 790 -45 624 -45 c 2
 557 -45 l 1
 576 -195 l 1
EndSplineSet
EndChar

StartChar: Ibreve
Encoding: 300 300 249
Width: 491
Flags: W
LayerCount: 2
Fore
SplineSet
158 0 m 1
 333 0 l 1
 333 1346 l 1
 158 1346 l 1
 158 0 l 1
245 1529 m 0
 133 1529 18 1594 18 1751 c 1
 124 1751 l 1
 124 1664 179 1623 245 1623 c 0
 311 1623 369 1664 369 1751 c 1
 475 1751 l 1
 475 1594 358 1529 245 1529 c 0
EndSplineSet
EndChar

StartChar: Idotaccent
Encoding: 304 304 250
Width: 491
Flags: W
LayerCount: 2
Fore
SplineSet
158 0 m 1
 333 0 l 1
 333 1346 l 1
 158 1346 l 1
 158 0 l 1
170 1528 m 1
 323 1528 l 1
 323 1708 l 1
 170 1708 l 1
 170 1528 l 1
EndSplineSet
EndChar

StartChar: Imacron
Encoding: 298 298 251
Width: 491
Flags: W
LayerCount: 2
Fore
SplineSet
158 0 m 1
 333 0 l 1
 333 1346 l 1
 158 1346 l 1
 158 0 l 1
-118 1699 m 1
 610 1699 l 1
 610 1826 l 1
 -118 1826 l 1
 -118 1699 l 1
EndSplineSet
EndChar

StartChar: Iogonek
Encoding: 302 302 252
Width: 491
Flags: W
LayerCount: 2
Fore
SplineSet
158 0 m 1
 333 0 l 1
 333 1346 l 1
 158 1346 l 1
 158 0 l 1
442 -352 m 1
 442 -246 l 1
 396 -265 366 -276 317 -276 c 0
 280 -276 237 -243 237 -195 c 0
 237 -133 306 -65 401 5 c 1
 297 5 l 1
 210 -46 123 -122 123 -221 c 0
 123 -325 201 -381 299 -381 c 0
 348 -381 407 -367 442 -352 c 1
EndSplineSet
EndChar

StartChar: Itilde
Encoding: 296 296 253
Width: 491
Flags: W
LayerCount: 2
Fore
SplineSet
158 0 m 1
 333 0 l 1
 333 1346 l 1
 158 1346 l 1
 158 0 l 1
119 1721 m 0
 232 1721 388 1636 388 1636 c 1
 424 1639 427 1683 430 1721 c 1
 530 1721 l 1
 530 1596 490 1522 394 1522 c 0
 312 1522 110 1610 110 1610 c 1
 80 1609 63 1572 60 1522 c 1
 -38 1522 l 1
 -38 1658 22 1721 119 1721 c 0
EndSplineSet
EndChar

StartChar: Jcircumflex
Encoding: 308 308 254
Width: 622
Flags: W
LayerCount: 2
Fore
SplineSet
72 -192 m 1
 58 -45 l 1
 291 -45 295 51 295 186 c 2
 295 1346 l 1
 470 1346 l 1
 470 219 l 2
 470 -61 424 -192 72 -192 c 1
44 1485 m 1
 163 1485 l 1
 310 1733 l 1
 457 1485 l 1
 578 1485 l 1
 408 1838 l 1
 214 1838 l 1
 44 1485 l 1
EndSplineSet
EndChar

StartChar: Kcommaaccent
Encoding: 310 310 255
Width: 1146
Flags: W
LayerCount: 2
Fore
SplineSet
897 1346 m 1
 330 732 l 1
 330 1346 l 1
 155 1346 l 1
 155 0 l 1
 330 0 l 1
 330 543 l 1
 434 646 l 1
 927 0 l 1
 1145 0 l 1
 572 743 l 1
 1117 1346 l 1
 897 1346 l 1
EndSplineSet
EndChar

StartChar: Lacute
Encoding: 313 313 256
Width: 946
Flags: W
LayerCount: 2
Fore
SplineSet
906 140 m 1
 330 140 l 1
 330 1346 l 1
 155 1346 l 1
 155 0 l 1
 900 0 l 1
 906 140 l 1
272 1485 m 1
 376 1485 l 1
 672 1838 l 1
 442 1838 l 1
 272 1485 l 1
EndSplineSet
EndChar

StartChar: Lcaron
Encoding: 317 317 257
Width: 946
Flags: W
LayerCount: 2
Fore
SplineSet
906 140 m 1
 330 140 l 1
 330 1346 l 1
 155 1346 l 1
 155 0 l 1
 900 0 l 1
 906 140 l 1
1156 937 m 1
 1262 937 l 1
 1384 1366 l 1
 1241 1366 l 1
 1156 937 l 1
EndSplineSet
EndChar

StartChar: Lcommaaccent
Encoding: 315 315 258
Width: 946
Flags: W
LayerCount: 2
Fore
SplineSet
906 140 m 1
 330 140 l 1
 330 1346 l 1
 155 1346 l 1
 155 0 l 1
 900 0 l 1
 906 140 l 1
EndSplineSet
EndChar

StartChar: Ldot
Encoding: 319 319 259
Width: 946
Flags: W
LayerCount: 2
Fore
SplineSet
906 140 m 1
 330 140 l 1
 330 1346 l 1
 155 1346 l 1
 155 0 l 1
 900 0 l 1
 906 140 l 1
459 593 m 1
 612 593 l 1
 612 773 l 1
 459 773 l 1
 459 593 l 1
EndSplineSet
EndChar

StartChar: Nacute
Encoding: 323 323 260
Width: 1417
Flags: W
LayerCount: 2
Fore
SplineSet
331 1346 m 1
 155 1346 l 1
 155 0 l 1
 308 0 l 1
 308 786 l 2
 308 894 303 1137 303 1137 c 1
 559 757 824 377 1083 0 c 1
 1262 0 l 1
 1262 1346 l 1
 1109 1346 l 1
 1109 555 l 2
 1109 509 1114 208 1114 208 c 1
 856 587 591 970 331 1346 c 1
508 1485 m 1
 612 1485 l 1
 908 1838 l 1
 678 1838 l 1
 508 1485 l 1
EndSplineSet
EndChar

StartChar: Ncaron
Encoding: 327 327 261
Width: 1417
Flags: W
LayerCount: 2
Fore
SplineSet
331 1346 m 1
 155 1346 l 1
 155 0 l 1
 308 0 l 1
 308 786 l 2
 308 894 303 1137 303 1137 c 1
 559 757 824 377 1083 0 c 1
 1262 0 l 1
 1262 1346 l 1
 1109 1346 l 1
 1109 555 l 2
 1109 509 1114 208 1114 208 c 1
 856 587 591 970 331 1346 c 1
611 1485 m 1
 805 1485 l 1
 975 1838 l 1
 854 1838 l 1
 707 1555 l 1
 560 1838 l 1
 441 1838 l 1
 611 1485 l 1
EndSplineSet
EndChar

StartChar: Ncommaaccent
Encoding: 325 325 262
Width: 1417
Flags: W
LayerCount: 2
Fore
SplineSet
331 1346 m 1
 155 1346 l 1
 155 0 l 1
 308 0 l 1
 308 786 l 2
 308 894 303 1137 303 1137 c 1
 559 757 824 377 1083 0 c 1
 1262 0 l 1
 1262 1346 l 1
 1109 1346 l 1
 1109 555 l 2
 1109 509 1114 208 1114 208 c 1
 856 587 591 970 331 1346 c 1
EndSplineSet
EndChar

StartChar: Eng
Encoding: 330 330 263
Width: 1292
Flags: W
LayerCount: 2
Fore
SplineSet
1160 150 m 2
 1160 918 l 2
 1160 1220 1032 1383 785 1383 c 0
 627 1383 463 1346 298 1168 c 1
 282 1361 l 1
 136 1361 l 1
 138 0 l 1
 298 0 l 1
 298 991 l 1
 384 1121 539 1236 737 1236 c 0
 934 1236 1001 1155 1001 913 c 2
 1001 156 l 2
 1001 -92 980 -159 728 -159 c 0
 709 -159 690 -158 566 -151 c 1
 587 -286 l 1
 698 -297 744 -298 769 -298 c 0
 1098 -298 1160 -130 1160 150 c 2
EndSplineSet
EndChar

StartChar: Obreve
Encoding: 334 334 264
Width: 1473
Flags: W
LayerCount: 2
Fore
SplineSet
737 -18 m 0
 322 -18 96 251 96 668 c 0
 96 1095 330 1366 738 1366 c 0
 1139 1366 1377 1092 1377 667 c 0
 1377 257 1147 -18 737 -18 c 0
1202 667 m 0
 1202 997 1049 1228 738 1228 c 0
 427 1228 271 998 271 667 c 0
 271 349 419 120 737 120 c 0
 1055 120 1202 349 1202 667 c 0
736 1529 m 0
 624 1529 509 1594 509 1751 c 1
 615 1751 l 1
 615 1664 670 1623 736 1623 c 0
 802 1623 860 1664 860 1751 c 1
 966 1751 l 1
 966 1594 849 1529 736 1529 c 0
EndSplineSet
EndChar

StartChar: Ohorn
Encoding: 416 416 265
Width: 1473
Flags: W
LayerCount: 2
Fore
SplineSet
737 -18 m 0
 322 -18 96 251 96 668 c 0
 96 1095 330 1366 738 1366 c 0
 1139 1366 1377 1092 1377 667 c 0
 1377 257 1147 -18 737 -18 c 0
1202 667 m 0
 1202 997 1049 1228 738 1228 c 0
 427 1228 271 998 271 667 c 0
 271 349 419 120 737 120 c 0
 1055 120 1202 349 1202 667 c 0
1674 1229 m 0
 1674 1274 1664 1321 1645 1366 c 1
 1539 1366 l 1
 1553 1329 1566 1277 1566 1232 c 0
 1566 1182 1550 1141 1497 1141 c 0
 1482 1141 1466 1143 1452 1143 c 1
 1452 1057 l 1
 1480 1054 1510 1052 1536 1052 c 0
 1628 1052 1674 1133 1674 1229 c 0
EndSplineSet
EndChar

StartChar: Ohungarumlaut
Encoding: 336 336 266
Width: 1473
Flags: W
LayerCount: 2
Fore
SplineSet
737 -18 m 0
 322 -18 96 251 96 668 c 0
 96 1095 330 1366 738 1366 c 0
 1139 1366 1377 1092 1377 667 c 0
 1377 257 1147 -18 737 -18 c 0
1202 667 m 0
 1202 997 1049 1228 738 1228 c 0
 427 1228 271 998 271 667 c 0
 271 349 419 120 737 120 c 0
 1055 120 1202 349 1202 667 c 0
471 1493 m 1
 562 1493 l 1
 791 1798 l 1
 652 1798 l 1
 471 1493 l 1
684 1493 m 1
 776 1493 l 1
 1004 1798 l 1
 867 1798 l 1
 684 1493 l 1
EndSplineSet
EndChar

StartChar: Omacron
Encoding: 332 332 267
Width: 1473
Flags: W
LayerCount: 2
Fore
SplineSet
737 -18 m 0
 322 -18 96 251 96 668 c 0
 96 1095 330 1366 738 1366 c 0
 1139 1366 1377 1092 1377 667 c 0
 1377 257 1147 -18 737 -18 c 0
1202 667 m 0
 1202 997 1049 1228 738 1228 c 0
 427 1228 271 998 271 667 c 0
 271 349 419 120 737 120 c 0
 1055 120 1202 349 1202 667 c 0
373 1699 m 1
 1101 1699 l 1
 1101 1826 l 1
 373 1826 l 1
 373 1699 l 1
EndSplineSet
EndChar

StartChar: Oslashacute
Encoding: 510 510 268
Width: 1560
Flags: W
LayerCount: 2
Fore
SplineSet
500 -164 m 1
 568 5 l 1
 632 -13 702 -23 779 -23 c 0
 1216 -23 1443 283 1443 708 c 0
 1443 1017 1329 1246 1121 1362 c 1
 1196 1546 l 1
 1077 1588 l 1
 1006 1411 l 1
 937 1432 861 1443 779 1443 c 0
 358 1443 115 1156 115 708 c 0
 115 406 231 162 456 48 c 1
 386 -125 l 1
 500 -164 l 1
288 714 m 0
 288 1031 450 1282 779 1282 c 0
 840 1282 895 1274 944 1258 c 1
 520 207 l 1
 364 302 288 491 288 714 c 0
631 157 m 1
 1056 1203 l 1
 1199 1104 1269 923 1269 714 c 0
 1269 390 1110 138 779 138 c 0
 724 138 676 144 631 157 c 1
580 1485 m 1
 684 1485 l 1
 980 1838 l 1
 750 1838 l 1
 580 1485 l 1
EndSplineSet
EndChar

StartChar: Racute
Encoding: 340 340 269
Width: 1248
Flags: W
LayerCount: 2
Fore
SplineSet
658 762 m 2
 330 762 l 1
 330 1208 l 1
 655 1208 l 2
 867 1208 968 1138 968 996 c 0
 968 836 898 762 658 762 c 2
155 0 m 1
 330 0 l 1
 330 624 l 1
 330 624 559 622 576 622 c 0
 607 622 708 625 734 627 c 1
 762 581 795 502 830 422 c 2
 1011 0 l 1
 1193 0 l 1
 978 475 l 2
 947 543 890 658 890 663 c 1
 1082 718 1142 830 1142 998 c 0
 1142 1305 923 1346 599 1346 c 2
 155 1346 l 1
 155 0 l 1
425 1485 m 1
 529 1485 l 1
 825 1838 l 1
 595 1838 l 1
 425 1485 l 1
EndSplineSet
EndChar

StartChar: Rcaron
Encoding: 344 344 270
Width: 1248
Flags: W
LayerCount: 2
Fore
SplineSet
658 762 m 2
 330 762 l 1
 330 1208 l 1
 655 1208 l 2
 867 1208 968 1138 968 996 c 0
 968 836 898 762 658 762 c 2
155 0 m 1
 330 0 l 1
 330 624 l 1
 330 624 559 622 576 622 c 0
 607 622 708 625 734 627 c 1
 762 581 795 502 830 422 c 2
 1011 0 l 1
 1193 0 l 1
 978 475 l 2
 947 543 890 658 890 663 c 1
 1082 718 1142 830 1142 998 c 0
 1142 1305 923 1346 599 1346 c 2
 155 1346 l 1
 155 0 l 1
528 1485 m 1
 722 1485 l 1
 892 1838 l 1
 771 1838 l 1
 624 1555 l 1
 477 1838 l 1
 358 1838 l 1
 528 1485 l 1
EndSplineSet
EndChar

StartChar: Rcommaaccent
Encoding: 342 342 271
Width: 1248
Flags: W
LayerCount: 2
Fore
SplineSet
658 762 m 2
 330 762 l 1
 330 1208 l 1
 655 1208 l 2
 867 1208 968 1138 968 996 c 0
 968 836 898 762 658 762 c 2
155 0 m 1
 330 0 l 1
 330 624 l 1
 330 624 559 622 576 622 c 0
 607 622 708 625 734 627 c 1
 762 581 795 502 830 422 c 2
 1011 0 l 1
 1193 0 l 1
 978 475 l 2
 947 543 890 658 890 663 c 1
 1082 718 1142 830 1142 998 c 0
 1142 1305 923 1346 599 1346 c 2
 155 1346 l 1
 155 0 l 1
EndSplineSet
EndChar

StartChar: Sacute
Encoding: 346 346 272
Width: 1059
Flags: W
LayerCount: 2
Fore
SplineSet
87 110 m 1
 141 238 l 1
 251 172 381 120 544 120 c 0
 725 120 845 192 838 367 c 0
 833 476 760 541 600 598 c 2
 375 678 l 1
 202 734 89 829 89 1009 c 0
 89 1274 303 1366 555 1366 c 0
 711 1366 850 1309 936 1251 c 1
 882 1126 l 1
 819 1165 699 1228 561 1228 c 0
 392 1228 245 1173 245 1020 c 0
 245 914 310 860 431 822 c 1
 644 746 l 1
 832 687 984 599 990 377 c 0
 998 94 805 -18 544 -18 c 0
 322 -18 164 59 87 110 c 1
333 1485 m 1
 437 1485 l 1
 733 1838 l 1
 503 1838 l 1
 333 1485 l 1
EndSplineSet
EndChar

StartChar: Scedilla
Encoding: 350 350 273
Width: 1059
Flags: W
LayerCount: 2
Fore
SplineSet
87 110 m 1
 141 238 l 1
 251 172 381 120 544 120 c 0
 725 120 845 192 838 367 c 0
 833 476 760 541 600 598 c 2
 375 678 l 1
 202 734 89 829 89 1009 c 0
 89 1274 303 1366 555 1366 c 0
 711 1366 850 1309 936 1251 c 1
 882 1126 l 1
 819 1165 699 1228 561 1228 c 0
 392 1228 245 1173 245 1020 c 0
 245 914 310 860 431 822 c 1
 644 746 l 1
 832 687 984 599 990 377 c 0
 998 94 805 -18 544 -18 c 0
 322 -18 164 59 87 110 c 1
443 -373 m 1
 583 -373 l 1
 623 15 l 1
 545 15 l 1
 443 -373 l 1
EndSplineSet
EndChar

StartChar: Scircumflex
Encoding: 348 348 274
Width: 1059
Flags: W
LayerCount: 2
Fore
SplineSet
87 110 m 1
 141 238 l 1
 251 172 381 120 544 120 c 0
 725 120 845 192 838 367 c 0
 833 476 760 541 600 598 c 2
 375 678 l 1
 202 734 89 829 89 1009 c 0
 89 1274 303 1366 555 1366 c 0
 711 1366 850 1309 936 1251 c 1
 882 1126 l 1
 819 1165 699 1228 561 1228 c 0
 392 1228 245 1173 245 1020 c 0
 245 914 310 860 431 822 c 1
 644 746 l 1
 832 687 984 599 990 377 c 0
 998 94 805 -18 544 -18 c 0
 322 -18 164 59 87 110 c 1
266 1485 m 1
 385 1485 l 1
 532 1733 l 1
 679 1485 l 1
 800 1485 l 1
 630 1838 l 1
 436 1838 l 1
 266 1485 l 1
EndSplineSet
EndChar

StartChar: Scommaaccent
Encoding: 536 536 275
Width: 1059
Flags: W
LayerCount: 2
Fore
SplineSet
87 110 m 1
 141 238 l 1
 251 172 381 120 544 120 c 0
 725 120 845 192 838 367 c 0
 833 476 760 541 600 598 c 2
 375 678 l 1
 202 734 89 829 89 1009 c 0
 89 1274 303 1366 555 1366 c 0
 711 1366 850 1309 936 1251 c 1
 882 1126 l 1
 819 1165 699 1228 561 1228 c 0
 392 1228 245 1173 245 1020 c 0
 245 914 310 860 431 822 c 1
 644 746 l 1
 832 687 984 599 990 377 c 0
 998 94 805 -18 544 -18 c 0
 322 -18 164 59 87 110 c 1
EndSplineSet
EndChar

StartChar: uni018F
Encoding: 399 399 276
Width: 1398
Flags: W
LayerCount: 2
Fore
SplineSet
1282 689 m 0
 1282 1074 1059 1388 631 1388 c 0
 444 1388 333 1345 217 1259 c 1
 278 1138 l 1
 370 1198 476 1249 618 1249 c 0
 968 1249 1105 988 1110 707 c 1
 119 707 l 1
 119 707 113 624 113 583 c 1
 126 306 271 -21 681 -21 c 0
 1039 -21 1282 281 1282 689 c 0
277 574 m 1
 1103 574 l 1
 1073 319 924 117 684 117 c 0
 359 117 290 379 277 574 c 1
EndSplineSet
EndChar

StartChar: Tbar
Encoding: 358 358 277
Width: 1131
Flags: W
LayerCount: 2
Fore
SplineSet
484 595 m 1
 330 595 l 1
 330 483 l 1
 484 483 l 1
 484 0 l 1
 645 0 l 1
 645 483 l 1
 793 483 l 1
 793 595 l 1
 645 595 l 1
 645 1220 l 1
 1053 1220 l 1
 1053 1361 l 1
 77 1361 l 1
 77 1220 l 1
 484 1220 l 1
 484 595 l 1
EndSplineSet
EndChar

StartChar: Tcaron
Encoding: 356 356 278
Width: 1058
Flags: W
LayerCount: 2
Fore
SplineSet
1024 1346 m 1
 34 1346 l 1
 34 1207 l 1
 441 1207 l 1
 441 0 l 1
 616 0 l 1
 616 1207 l 1
 1024 1207 l 1
 1024 1346 l 1
432 1485 m 1
 626 1485 l 1
 796 1838 l 1
 675 1838 l 1
 528 1555 l 1
 381 1838 l 1
 262 1838 l 1
 432 1485 l 1
EndSplineSet
EndChar

StartChar: Ubreve
Encoding: 364 364 279
Width: 1309
Flags: W
LayerCount: 2
Fore
SplineSet
1171 493 m 2
 1171 1346 l 1
 997 1346 l 1
 997 492 l 2
 997 248 884 120 649 120 c 0
 408 120 302 248 302 492 c 2
 302 1346 l 1
 128 1346 l 1
 128 495 l 2
 128 196 291 -18 649 -18 c 0
 1007 -18 1171 195 1171 493 c 2
650 1529 m 0
 538 1529 423 1594 423 1751 c 1
 529 1751 l 1
 529 1664 584 1623 650 1623 c 0
 716 1623 774 1664 774 1751 c 1
 880 1751 l 1
 880 1594 763 1529 650 1529 c 0
EndSplineSet
EndChar

StartChar: Uhorn
Encoding: 431 431 280
Width: 1309
Flags: W
LayerCount: 2
Fore
SplineSet
1171 493 m 2
 1171 1346 l 1
 997 1346 l 1
 997 492 l 2
 997 248 884 120 649 120 c 0
 408 120 302 248 302 492 c 2
 302 1346 l 1
 128 1346 l 1
 128 495 l 2
 128 196 291 -18 649 -18 c 0
 1007 -18 1171 195 1171 493 c 2
1476 1229 m 0
 1476 1274 1466 1321 1447 1366 c 1
 1341 1366 l 1
 1355 1329 1368 1277 1368 1232 c 0
 1368 1182 1352 1141 1299 1141 c 0
 1284 1141 1268 1143 1254 1143 c 1
 1254 1057 l 1
 1282 1054 1312 1052 1338 1052 c 0
 1430 1052 1476 1133 1476 1229 c 0
EndSplineSet
EndChar

StartChar: Uhungarumlaut
Encoding: 368 368 281
Width: 1309
Flags: W
LayerCount: 2
Fore
SplineSet
1171 493 m 2
 1171 1346 l 1
 997 1346 l 1
 997 492 l 2
 997 248 884 120 649 120 c 0
 408 120 302 248 302 492 c 2
 302 1346 l 1
 128 1346 l 1
 128 495 l 2
 128 196 291 -18 649 -18 c 0
 1007 -18 1171 195 1171 493 c 2
385 1493 m 1
 476 1493 l 1
 705 1798 l 1
 566 1798 l 1
 385 1493 l 1
598 1493 m 1
 690 1493 l 1
 918 1798 l 1
 781 1798 l 1
 598 1493 l 1
EndSplineSet
EndChar

StartChar: Umacron
Encoding: 362 362 282
Width: 1309
Flags: W
LayerCount: 2
Fore
SplineSet
1171 493 m 2
 1171 1346 l 1
 997 1346 l 1
 997 492 l 2
 997 248 884 120 649 120 c 0
 408 120 302 248 302 492 c 2
 302 1346 l 1
 128 1346 l 1
 128 495 l 2
 128 196 291 -18 649 -18 c 0
 1007 -18 1171 195 1171 493 c 2
287 1699 m 1
 1015 1699 l 1
 1015 1826 l 1
 287 1826 l 1
 287 1699 l 1
EndSplineSet
EndChar

StartChar: Uogonek
Encoding: 370 370 283
Width: 1309
Flags: W
LayerCount: 2
Fore
SplineSet
1171 493 m 2
 1171 1346 l 1
 997 1346 l 1
 997 492 l 2
 997 248 884 120 649 120 c 0
 408 120 302 248 302 492 c 2
 302 1346 l 1
 128 1346 l 1
 128 495 l 2
 128 196 291 -18 649 -18 c 0
 1007 -18 1171 195 1171 493 c 2
1181 -352 m 1
 1181 -246 l 1
 1135 -265 1105 -276 1056 -276 c 0
 1019 -276 976 -243 976 -195 c 0
 976 -133 1045 -65 1140 5 c 1
 1036 5 l 1
 949 -46 862 -122 862 -221 c 0
 862 -325 940 -381 1038 -381 c 0
 1087 -381 1146 -367 1181 -352 c 1
EndSplineSet
EndChar

StartChar: Uring
Encoding: 366 366 284
Width: 1309
Flags: W
LayerCount: 2
Fore
SplineSet
1171 493 m 2
 1171 1346 l 1
 997 1346 l 1
 997 492 l 2
 997 248 884 120 649 120 c 0
 408 120 302 248 302 492 c 2
 302 1346 l 1
 128 1346 l 1
 128 495 l 2
 128 196 291 -18 649 -18 c 0
 1007 -18 1171 195 1171 493 c 2
561 1659 m 0
 561 1715 605 1764 651 1764 c 0
 701 1764 739 1715 739 1659 c 0
 739 1603 697 1557 651 1557 c 0
 595 1557 561 1598 561 1659 c 0
828 1659 m 0
 828 1761 746 1838 651 1838 c 0
 559 1838 474 1767 474 1659 c 0
 474 1554 558 1491 653 1491 c 0
 743 1491 828 1554 828 1659 c 0
EndSplineSet
EndChar

StartChar: Utilde
Encoding: 360 360 285
Width: 1309
Flags: W
LayerCount: 2
Fore
SplineSet
1171 493 m 2
 1171 1346 l 1
 997 1346 l 1
 997 492 l 2
 997 248 884 120 649 120 c 0
 408 120 302 248 302 492 c 2
 302 1346 l 1
 128 1346 l 1
 128 495 l 2
 128 196 291 -18 649 -18 c 0
 1007 -18 1171 195 1171 493 c 2
524 1721 m 0
 637 1721 793 1636 793 1636 c 1
 829 1639 832 1683 835 1721 c 1
 935 1721 l 1
 935 1596 895 1522 799 1522 c 0
 717 1522 515 1610 515 1610 c 1
 485 1609 468 1572 465 1522 c 1
 368 1522 l 1
 368 1658 427 1721 524 1721 c 0
EndSplineSet
EndChar

StartChar: Wacute
Encoding: 7810 7810 286
Width: 1896
Flags: W
LayerCount: 2
Fore
SplineSet
860 1321 m 1
 528 222 l 1
 206 1346 l 1
 31 1346 l 1
 435 0 l 1
 614 0 l 1
 956 1116 l 1
 1276 0 l 1
 1458 0 l 1
 1865 1346 l 1
 1691 1346 l 1
 1362 221 l 1
 1038 1321 l 1
 860 1321 l 1
748 1485 m 1
 852 1485 l 1
 1148 1838 l 1
 918 1838 l 1
 748 1485 l 1
EndSplineSet
EndChar

StartChar: Wcircumflex
Encoding: 372 372 287
Width: 1896
Flags: W
LayerCount: 2
Fore
SplineSet
860 1321 m 1
 528 222 l 1
 206 1346 l 1
 31 1346 l 1
 435 0 l 1
 614 0 l 1
 956 1116 l 1
 1276 0 l 1
 1458 0 l 1
 1865 1346 l 1
 1691 1346 l 1
 1362 221 l 1
 1038 1321 l 1
 860 1321 l 1
681 1485 m 1
 800 1485 l 1
 947 1733 l 1
 1094 1485 l 1
 1215 1485 l 1
 1045 1838 l 1
 851 1838 l 1
 681 1485 l 1
EndSplineSet
EndChar

StartChar: Wdieresis
Encoding: 7812 7812 288
Width: 1896
Flags: W
LayerCount: 2
Fore
SplineSet
860 1321 m 1
 528 222 l 1
 206 1346 l 1
 31 1346 l 1
 435 0 l 1
 614 0 l 1
 956 1116 l 1
 1276 0 l 1
 1458 0 l 1
 1865 1346 l 1
 1691 1346 l 1
 1362 221 l 1
 1038 1321 l 1
 860 1321 l 1
700 1488 m 1
 841 1488 l 1
 841 1681 l 1
 700 1681 l 1
 700 1488 l 1
1055 1488 m 1
 1196 1488 l 1
 1196 1681 l 1
 1055 1681 l 1
 1055 1488 l 1
EndSplineSet
EndChar

StartChar: Wgrave
Encoding: 7808 7808 289
Width: 1896
Flags: W
LayerCount: 2
Fore
SplineSet
860 1321 m 1
 528 222 l 1
 206 1346 l 1
 31 1346 l 1
 435 0 l 1
 614 0 l 1
 956 1116 l 1
 1276 0 l 1
 1458 0 l 1
 1865 1346 l 1
 1691 1346 l 1
 1362 221 l 1
 1038 1321 l 1
 860 1321 l 1
1044 1485 m 1
 1146 1485 l 1
 978 1838 l 1
 750 1838 l 1
 1044 1485 l 1
EndSplineSet
EndChar

StartChar: Ycircumflex
Encoding: 374 374 290
Width: 1099
Flags: W
LayerCount: 2
Fore
SplineSet
549 683 m 1
 171 1346 l 1
 -4 1346 l 1
 462 533 l 1
 462 0 l 1
 637 0 l 1
 637 537 l 1
 1103 1346 l 1
 928 1346 l 1
 549 683 l 1
282 1485 m 1
 401 1485 l 1
 548 1733 l 1
 695 1485 l 1
 816 1485 l 1
 646 1838 l 1
 452 1838 l 1
 282 1485 l 1
EndSplineSet
EndChar

StartChar: Ygrave
Encoding: 7922 7922 291
Width: 1099
Flags: W
LayerCount: 2
Fore
SplineSet
549 683 m 1
 171 1346 l 1
 -4 1346 l 1
 462 533 l 1
 462 0 l 1
 637 0 l 1
 637 537 l 1
 1103 1346 l 1
 928 1346 l 1
 549 683 l 1
645 1485 m 1
 747 1485 l 1
 579 1838 l 1
 351 1838 l 1
 645 1485 l 1
EndSplineSet
EndChar

StartChar: Zacute
Encoding: 377 377 292
Width: 1081
Flags: W
LayerCount: 2
Fore
SplineSet
113 1346 m 1
 1007 1346 l 1
 1007 1228 l 1
 283 138 l 1
 1014 138 l 1
 1008 0 l 1
 86 0 l 1
 86 124 l 1
 806 1208 l 1
 113 1208 l 1
 113 1346 l 1
354 1485 m 1
 458 1485 l 1
 754 1838 l 1
 524 1838 l 1
 354 1485 l 1
EndSplineSet
EndChar

StartChar: Zdotaccent
Encoding: 379 379 293
Width: 1081
Flags: W
LayerCount: 2
Fore
SplineSet
113 1346 m 1
 1007 1346 l 1
 1007 1228 l 1
 283 138 l 1
 1014 138 l 1
 1008 0 l 1
 86 0 l 1
 86 124 l 1
 806 1208 l 1
 113 1208 l 1
 113 1346 l 1
478 1528 m 1
 631 1528 l 1
 631 1708 l 1
 478 1708 l 1
 478 1528 l 1
EndSplineSet
EndChar

StartChar: uni01C4
Encoding: 452 452 294
Width: 2509
Flags: W
LayerCount: 2
Fore
SplineSet
311 1208 m 1
 505 1208 l 2
 863 1208 1068 1058 1068 670 c 0
 1068 316 882 137 531 137 c 2
 311 137 l 1
 311 1208 l 1
136 0 m 1
 536 0 l 2
 975 0 1243 229 1243 674 c 0
 1243 1142 951 1346 510 1346 c 2
 136 1346 l 1
 136 0 l 1
2243 1865 m 1
 2121 1865 l 1
 1975 1581 l 1
 1828 1865 l 1
 1709 1865 l 1
 1879 1512 l 1
 2073 1512 l 1
 2243 1865 l 1
1488 1346 m 1
 1488 1206 l 1
 2193 1206 l 1
 1461 124 l 1
 1461 0 l 1
 2395 0 l 1
 2401 140 l 1
 1658 140 l 1
 2394 1228 l 1
 2394 1346 l 1
 1488 1346 l 1
EndSplineSet
EndChar

StartChar: uni01C5
Encoding: 453 453 295
Width: 2285
Flags: W
LayerCount: 2
Fore
SplineSet
311 1208 m 1
 505 1208 l 2
 863 1208 1068 1058 1068 670 c 0
 1068 316 882 137 531 137 c 2
 311 137 l 1
 311 1208 l 1
136 0 m 1
 536 0 l 2
 975 0 1243 229 1243 674 c 0
 1243 1142 951 1346 510 1346 c 2
 136 1346 l 1
 136 0 l 1
2082 1521 m 1
 1960 1521 l 1
 1815 1237 l 1
 1667 1521 l 1
 1549 1521 l 1
 1718 1168 l 1
 1913 1168 l 1
 2082 1521 l 1
1484 998 m 1
 1484 878 l 1
 1981 878 l 1
 1463 117 l 1
 1463 0 l 1
 2168 0 l 1
 2168 120 l 1
 1642 120 l 1
 2151 873 l 1
 2151 998 l 1
 1484 998 l 1
EndSplineSet
EndChar

StartChar: uni01C7
Encoding: 455 455 296
Width: 1546
Flags: W
LayerCount: 2
Fore
SplineSet
887 140 m 1
 311 140 l 1
 311 1346 l 1
 136 1346 l 1
 136 0 l 1
 882 0 l 1
 887 140 l 1
1014 -195 m 1
 1046 -195 l 2
 1366 -195 1411 -61 1411 219 c 2
 1411 1346 l 1
 1237 1346 l 1
 1237 186 l 2
 1237 51 1228 -45 1062 -45 c 2
 995 -45 l 1
 1014 -195 l 1
EndSplineSet
EndChar

StartChar: uni01C8
Encoding: 456 456 297
Width: 1447
Flags: W
LayerCount: 2
Fore
SplineSet
887 140 m 1
 311 140 l 1
 311 1346 l 1
 136 1346 l 1
 136 0 l 1
 882 0 l 1
 887 140 l 1
961 -398 m 1
 1008 -398 l 2
 1256 -398 1311 -312 1311 -68 c 2
 1311 998 l 1
 1137 998 l 1
 1137 -52 l 2
 1137 -78 1138 -101 1138 -121 c 0
 1138 -219 1125 -257 988 -257 c 2
 941 -257 l 1
 961 -398 l 1
1137 1181 m 1
 1311 1181 l 1
 1311 1361 l 1
 1137 1361 l 1
 1137 1181 l 1
EndSplineSet
EndChar

StartChar: uni01CA
Encoding: 458 458 298
Width: 1996
Flags: W
LayerCount: 2
Fore
SplineSet
312 1346 m 1
 136 1346 l 1
 136 0 l 1
 289 0 l 1
 289 786 l 2
 289 894 284 1127 284 1127 c 1
 540 747 806 377 1065 0 c 1
 1243 0 l 1
 1243 1346 l 1
 1090 1346 l 1
 1090 555 l 2
 1090 509 1096 219 1096 219 c 1
 838 598 572 970 312 1346 c 1
1464 -195 m 1
 1496 -195 l 2
 1816 -195 1862 -61 1862 219 c 2
 1862 1346 l 1
 1687 1346 l 1
 1687 186 l 2
 1687 51 1678 -45 1512 -45 c 2
 1445 -45 l 1
 1464 -195 l 1
EndSplineSet
EndChar

StartChar: uni01CB
Encoding: 459 459 299
Width: 1898
Flags: W
LayerCount: 2
Fore
SplineSet
312 1346 m 1
 136 1346 l 1
 136 0 l 1
 289 0 l 1
 289 786 l 2
 289 894 284 1127 284 1127 c 1
 540 747 806 377 1065 0 c 1
 1243 0 l 1
 1243 1346 l 1
 1090 1346 l 1
 1090 555 l 2
 1090 509 1096 219 1096 219 c 1
 838 598 572 970 312 1346 c 1
1411 -398 m 1
 1459 -398 l 2
 1707 -398 1762 -312 1762 -68 c 2
 1762 998 l 1
 1587 998 l 1
 1587 -52 l 2
 1587 -78 1588 -101 1588 -121 c 0
 1588 -219 1576 -257 1439 -257 c 2
 1391 -257 l 1
 1411 -398 l 1
1587 1181 m 1
 1762 1181 l 1
 1762 1361 l 1
 1587 1361 l 1
 1587 1181 l 1
EndSplineSet
EndChar

StartChar: uni01CD
Encoding: 461 461 300
Width: 1186
Flags: W
LayerCount: 2
Fore
SplineSet
392 561 m 1
 808 561 l 1
 808 561 613 1110 593 1179 c 1
 575 1119 392 561 392 561 c 1
11 0 m 1
 495 1346 l 1
 693 1346 l 1
 1176 0 l 1
 1011 0 l 1
 856 430 l 1
 342 430 l 1
 185 0 l 1
 11 0 l 1
496 1485 m 1
 690 1485 l 1
 860 1838 l 1
 739 1838 l 1
 592 1555 l 1
 445 1838 l 1
 326 1838 l 1
 496 1485 l 1
EndSplineSet
EndChar

StartChar: uni01CF
Encoding: 463 463 301
Width: 491
Flags: W
LayerCount: 2
Fore
SplineSet
158 0 m 1
 333 0 l 1
 333 1346 l 1
 158 1346 l 1
 158 0 l 1
149 1485 m 1
 343 1485 l 1
 513 1838 l 1
 392 1838 l 1
 245 1555 l 1
 98 1838 l 1
 -21 1838 l 1
 149 1485 l 1
EndSplineSet
EndChar

StartChar: uni01D1
Encoding: 465 465 302
Width: 1473
Flags: W
LayerCount: 2
Fore
SplineSet
737 -18 m 0
 322 -18 96 251 96 668 c 0
 96 1095 330 1366 738 1366 c 0
 1139 1366 1377 1092 1377 667 c 0
 1377 257 1147 -18 737 -18 c 0
1202 667 m 0
 1202 997 1049 1228 738 1228 c 0
 427 1228 271 998 271 667 c 0
 271 349 419 120 737 120 c 0
 1055 120 1202 349 1202 667 c 0
640 1485 m 1
 834 1485 l 1
 1004 1838 l 1
 883 1838 l 1
 736 1555 l 1
 589 1838 l 1
 470 1838 l 1
 640 1485 l 1
EndSplineSet
EndChar

StartChar: uni01D3
Encoding: 467 467 303
Width: 1309
Flags: W
LayerCount: 2
Fore
SplineSet
1171 493 m 2
 1171 1346 l 1
 997 1346 l 1
 997 492 l 2
 997 248 884 120 649 120 c 0
 408 120 302 248 302 492 c 2
 302 1346 l 1
 128 1346 l 1
 128 495 l 2
 128 196 291 -18 649 -18 c 0
 1007 -18 1171 195 1171 493 c 2
554 1485 m 1
 748 1485 l 1
 918 1838 l 1
 797 1838 l 1
 650 1555 l 1
 503 1838 l 1
 384 1838 l 1
 554 1485 l 1
EndSplineSet
EndChar

StartChar: uni01D5
Encoding: 469 469 304
Width: 1309
Flags: W
LayerCount: 2
Fore
SplineSet
1171 493 m 2
 1171 1346 l 1
 997 1346 l 1
 997 492 l 2
 997 248 884 120 649 120 c 0
 408 120 302 248 302 492 c 2
 302 1346 l 1
 128 1346 l 1
 128 495 l 2
 128 196 291 -18 649 -18 c 0
 1007 -18 1171 195 1171 493 c 2
403 1488 m 1
 544 1488 l 1
 544 1681 l 1
 403 1681 l 1
 403 1488 l 1
758 1488 m 1
 899 1488 l 1
 899 1681 l 1
 758 1681 l 1
 758 1488 l 1
299 1885 m 1
 1027 1885 l 1
 1027 2012 l 1
 299 2012 l 1
 299 1885 l 1
EndSplineSet
EndChar

StartChar: uni01D7
Encoding: 471 471 305
Width: 1309
Flags: W
LayerCount: 2
Fore
SplineSet
1171 493 m 2
 1171 1346 l 1
 997 1346 l 1
 997 492 l 2
 997 248 884 120 649 120 c 0
 408 120 302 248 302 492 c 2
 302 1346 l 1
 128 1346 l 1
 128 495 l 2
 128 196 291 -18 649 -18 c 0
 1007 -18 1171 195 1171 493 c 2
403 1488 m 1
 544 1488 l 1
 544 1681 l 1
 403 1681 l 1
 403 1488 l 1
758 1488 m 1
 899 1488 l 1
 899 1681 l 1
 758 1681 l 1
 758 1488 l 1
611 1885 m 1
 715 1885 l 1
 1011 2238 l 1
 781 2238 l 1
 611 1885 l 1
EndSplineSet
EndChar

StartChar: uni01D9
Encoding: 473 473 306
Width: 1309
Flags: W
LayerCount: 2
Fore
SplineSet
1171 493 m 2
 1171 1346 l 1
 997 1346 l 1
 997 492 l 2
 997 248 884 120 649 120 c 0
 408 120 302 248 302 492 c 2
 302 1346 l 1
 128 1346 l 1
 128 495 l 2
 128 196 291 -18 649 -18 c 0
 1007 -18 1171 195 1171 493 c 2
403 1488 m 1
 544 1488 l 1
 544 1681 l 1
 403 1681 l 1
 403 1488 l 1
758 1488 m 1
 899 1488 l 1
 899 1681 l 1
 758 1681 l 1
 758 1488 l 1
566 1885 m 1
 760 1885 l 1
 930 2238 l 1
 809 2238 l 1
 662 1955 l 1
 515 2238 l 1
 396 2238 l 1
 566 1885 l 1
EndSplineSet
EndChar

StartChar: uni01DB
Encoding: 475 475 307
Width: 1309
Flags: W
LayerCount: 2
Fore
SplineSet
1171 493 m 2
 1171 1346 l 1
 997 1346 l 1
 997 492 l 2
 997 248 884 120 649 120 c 0
 408 120 302 248 302 492 c 2
 302 1346 l 1
 128 1346 l 1
 128 495 l 2
 128 196 291 -18 649 -18 c 0
 1007 -18 1171 195 1171 493 c 2
403 1488 m 1
 544 1488 l 1
 544 1681 l 1
 403 1681 l 1
 403 1488 l 1
758 1488 m 1
 899 1488 l 1
 899 1681 l 1
 758 1681 l 1
 758 1488 l 1
612 1885 m 1
 714 1885 l 1
 546 2238 l 1
 318 2238 l 1
 612 1885 l 1
EndSplineSet
EndChar

StartChar: uni01DE
Encoding: 478 478 308
Width: 1186
Flags: W
LayerCount: 2
Fore
SplineSet
392 561 m 1
 808 561 l 1
 808 561 613 1110 593 1179 c 1
 575 1119 392 561 392 561 c 1
11 0 m 1
 495 1346 l 1
 693 1346 l 1
 1176 0 l 1
 1011 0 l 1
 856 430 l 1
 342 430 l 1
 185 0 l 1
 11 0 l 1
345 1488 m 1
 486 1488 l 1
 486 1681 l 1
 345 1681 l 1
 345 1488 l 1
700 1488 m 1
 841 1488 l 1
 841 1681 l 1
 700 1681 l 1
 700 1488 l 1
230 1885 m 1
 958 1885 l 1
 958 2012 l 1
 230 2012 l 1
 230 1885 l 1
EndSplineSet
EndChar

StartChar: uni01E8
Encoding: 488 488 309
Width: 1146
Flags: W
LayerCount: 2
Fore
SplineSet
897 1346 m 1
 330 732 l 1
 330 1346 l 1
 155 1346 l 1
 155 0 l 1
 330 0 l 1
 330 543 l 1
 434 646 l 1
 927 0 l 1
 1145 0 l 1
 572 743 l 1
 1117 1346 l 1
 897 1346 l 1
475 1485 m 1
 669 1485 l 1
 839 1838 l 1
 718 1838 l 1
 571 1555 l 1
 424 1838 l 1
 305 1838 l 1
 475 1485 l 1
EndSplineSet
EndChar

StartChar: uni01EA
Encoding: 490 490 310
Width: 1473
Flags: W
LayerCount: 2
Fore
SplineSet
737 -18 m 0
 322 -18 96 251 96 668 c 0
 96 1095 330 1366 738 1366 c 0
 1139 1366 1377 1092 1377 667 c 0
 1377 257 1147 -18 737 -18 c 0
1202 667 m 0
 1202 997 1049 1228 738 1228 c 0
 427 1228 271 998 271 667 c 0
 271 349 419 120 737 120 c 0
 1055 120 1202 349 1202 667 c 0
823 -362 m 1
 823 -256 l 1
 777 -275 747 -286 698 -286 c 0
 661 -286 618 -253 618 -205 c 0
 618 -143 687 -75 782 -5 c 1
 678 -5 l 1
 591 -56 504 -132 504 -231 c 0
 504 -335 582 -391 680 -391 c 0
 729 -391 788 -377 823 -362 c 1
EndSplineSet
EndChar

StartChar: uni01EC
Encoding: 492 492 311
Width: 1473
Flags: W
LayerCount: 2
Fore
SplineSet
366 1529 m 1
 1094 1529 l 1
 1094 1656 l 1
 366 1656 l 1
 366 1529 l 1
737 -18 m 0
 322 -18 96 251 96 668 c 0
 96 1095 330 1366 738 1366 c 0
 1139 1366 1377 1092 1377 667 c 0
 1377 257 1147 -18 737 -18 c 0
1202 667 m 0
 1202 997 1049 1228 738 1228 c 0
 427 1228 271 998 271 667 c 0
 271 349 419 120 737 120 c 0
 1055 120 1202 349 1202 667 c 0
823 -362 m 1
 823 -256 l 1
 777 -275 747 -286 698 -286 c 0
 661 -286 618 -253 618 -205 c 0
 618 -143 687 -75 782 -5 c 1
 678 -5 l 1
 591 -56 504 -132 504 -231 c 0
 504 -335 582 -391 680 -391 c 0
 729 -391 788 -377 823 -362 c 1
EndSplineSet
EndChar

StartChar: uni01F1
Encoding: 497 497 312
Width: 2509
Flags: W
LayerCount: 2
Fore
SplineSet
311 1208 m 1
 505 1208 l 2
 863 1208 1068 1058 1068 670 c 0
 1068 316 882 137 531 137 c 2
 311 137 l 1
 311 1208 l 1
136 0 m 1
 536 0 l 2
 975 0 1243 229 1243 674 c 0
 1243 1142 951 1346 510 1346 c 2
 136 1346 l 1
 136 0 l 1
1488 1346 m 1
 1488 1206 l 1
 2193 1206 l 1
 1461 124 l 1
 1461 0 l 1
 2395 0 l 1
 2401 140 l 1
 1658 140 l 1
 2394 1228 l 1
 2394 1346 l 1
 1488 1346 l 1
EndSplineSet
EndChar

StartChar: uni01F2
Encoding: 498 498 313
Width: 2283
Flags: W
LayerCount: 2
Fore
SplineSet
311 1208 m 1
 505 1208 l 2
 863 1208 1068 1058 1068 670 c 0
 1068 316 882 137 531 137 c 2
 311 137 l 1
 311 1208 l 1
136 0 m 1
 536 0 l 2
 975 0 1243 229 1243 674 c 0
 1243 1142 951 1346 510 1346 c 2
 136 1346 l 1
 136 0 l 1
1484 998 m 1
 1484 878 l 1
 1981 878 l 1
 1463 117 l 1
 1463 0 l 1
 2168 0 l 1
 2168 120 l 1
 1642 120 l 1
 2151 873 l 1
 2151 998 l 1
 1484 998 l 1
EndSplineSet
EndChar

StartChar: uni01F4
Encoding: 500 500 314
Width: 1319
Flags: W
LayerCount: 2
Fore
SplineSet
94 672 m 0
 94 1078 344 1366 771 1366 c 0
 929 1366 1059 1333 1170 1260 c 1
 1121 1138 l 1
 1078 1161 988 1228 771 1228 c 1
 436 1221 269 991 269 672 c 0
 269 341 422 120 764 120 c 0
 867 120 969 131 1026 147 c 1
 1026 559 l 1
 736 559 l 1
 741 696 l 1
 1201 696 l 1
 1201 59 l 1
 1061 4 922 -18 738 -18 c 0
 320 -18 94 271 94 672 c 0
461 1485 m 1
 565 1485 l 1
 861 1838 l 1
 631 1838 l 1
 461 1485 l 1
EndSplineSet
EndChar

StartChar: uni01F8
Encoding: 504 504 315
Width: 1417
Flags: W
LayerCount: 2
Fore
SplineSet
331 1346 m 1
 155 1346 l 1
 155 0 l 1
 308 0 l 1
 308 786 l 2
 308 894 303 1137 303 1137 c 1
 559 757 824 377 1083 0 c 1
 1262 0 l 1
 1262 1346 l 1
 1109 1346 l 1
 1109 555 l 2
 1109 509 1114 208 1114 208 c 1
 856 587 591 970 331 1346 c 1
804 1485 m 1
 906 1485 l 1
 738 1838 l 1
 510 1838 l 1
 804 1485 l 1
EndSplineSet
EndChar

StartChar: uni0200
Encoding: 512 512 316
Width: 1186
Flags: W
LayerCount: 2
Fore
SplineSet
392 561 m 1
 808 561 l 1
 808 561 613 1110 593 1179 c 1
 575 1119 392 561 392 561 c 1
11 0 m 1
 495 1346 l 1
 693 1346 l 1
 1176 0 l 1
 1011 0 l 1
 856 430 l 1
 342 430 l 1
 185 0 l 1
 11 0 l 1
EndSplineSet
EndChar

StartChar: uni0202
Encoding: 514 514 317
Width: 1186
Flags: W
LayerCount: 2
Fore
SplineSet
392 561 m 1
 808 561 l 1
 808 561 613 1110 593 1179 c 1
 575 1119 392 561 392 561 c 1
11 0 m 1
 495 1346 l 1
 693 1346 l 1
 1176 0 l 1
 1011 0 l 1
 856 430 l 1
 342 430 l 1
 185 0 l 1
 11 0 l 1
592 1657 m 0
 658 1657 716 1616 716 1529 c 1
 822 1529 l 1
 822 1686 705 1764 592 1764 c 0
 480 1764 366 1686 366 1529 c 1
 471 1529 l 1
 471 1616 526 1657 592 1657 c 0
EndSplineSet
EndChar

StartChar: uni0204
Encoding: 516 516 318
Width: 1064
Flags: W
LayerCount: 2
Fore
SplineSet
330 1207 m 1
 964 1207 l 1
 971 1346 l 1
 155 1346 l 1
 155 0 l 1
 963 0 l 1
 971 139 l 1
 330 139 l 1
 330 629 l 1
 912 629 l 1
 912 766 l 1
 330 766 l 1
 330 1207 l 1
EndSplineSet
EndChar

StartChar: uni0206
Encoding: 518 518 319
Width: 1064
Flags: W
LayerCount: 2
Fore
SplineSet
330 1207 m 1
 964 1207 l 1
 971 1346 l 1
 155 1346 l 1
 155 0 l 1
 963 0 l 1
 971 139 l 1
 330 139 l 1
 330 629 l 1
 912 629 l 1
 912 766 l 1
 330 766 l 1
 330 1207 l 1
566 1657 m 0
 632 1657 690 1616 690 1529 c 1
 796 1529 l 1
 796 1686 679 1764 566 1764 c 0
 454 1764 340 1686 340 1529 c 1
 445 1529 l 1
 445 1616 500 1657 566 1657 c 0
EndSplineSet
EndChar

StartChar: uni0208
Encoding: 520 520 320
Width: 491
Flags: W
LayerCount: 2
Fore
SplineSet
158 0 m 1
 333 0 l 1
 333 1346 l 1
 158 1346 l 1
 158 0 l 1
EndSplineSet
EndChar

StartChar: uni020A
Encoding: 522 522 321
Width: 491
Flags: W
LayerCount: 2
Fore
SplineSet
158 0 m 1
 333 0 l 1
 333 1346 l 1
 158 1346 l 1
 158 0 l 1
244 1657 m 0
 310 1657 368 1616 368 1529 c 1
 474 1529 l 1
 474 1686 357 1764 244 1764 c 0
 132 1764 18 1686 18 1529 c 1
 123 1529 l 1
 123 1616 178 1657 244 1657 c 0
EndSplineSet
EndChar

StartChar: uni020C
Encoding: 524 524 322
Width: 1473
Flags: W
LayerCount: 2
Fore
SplineSet
737 -18 m 0
 322 -18 96 251 96 668 c 0
 96 1095 330 1366 738 1366 c 0
 1139 1366 1377 1092 1377 667 c 0
 1377 257 1147 -18 737 -18 c 0
1202 667 m 0
 1202 997 1049 1228 738 1228 c 0
 427 1228 271 998 271 667 c 0
 271 349 419 120 737 120 c 0
 1055 120 1202 349 1202 667 c 0
EndSplineSet
EndChar

StartChar: uni020E
Encoding: 526 526 323
Width: 1473
Flags: W
LayerCount: 2
Fore
SplineSet
737 -18 m 0
 322 -18 96 251 96 668 c 0
 96 1095 330 1366 738 1366 c 0
 1139 1366 1377 1092 1377 667 c 0
 1377 257 1147 -18 737 -18 c 0
1202 667 m 0
 1202 997 1049 1228 738 1228 c 0
 427 1228 271 998 271 667 c 0
 271 349 419 120 737 120 c 0
 1055 120 1202 349 1202 667 c 0
728 1657 m 0
 794 1657 852 1616 852 1529 c 1
 958 1529 l 1
 958 1686 841 1764 728 1764 c 0
 616 1764 502 1686 502 1529 c 1
 607 1529 l 1
 607 1616 662 1657 728 1657 c 0
EndSplineSet
EndChar

StartChar: uni0210
Encoding: 528 528 324
Width: 1248
Flags: W
LayerCount: 2
Fore
SplineSet
658 762 m 2
 330 762 l 1
 330 1208 l 1
 655 1208 l 2
 867 1208 968 1138 968 996 c 0
 968 836 898 762 658 762 c 2
155 0 m 1
 330 0 l 1
 330 624 l 1
 330 624 559 622 576 622 c 0
 607 622 708 625 734 627 c 1
 762 581 795 502 830 422 c 2
 1011 0 l 1
 1193 0 l 1
 978 475 l 2
 947 543 890 658 890 663 c 1
 1082 718 1142 830 1142 998 c 0
 1142 1305 923 1346 599 1346 c 2
 155 1346 l 1
 155 0 l 1
EndSplineSet
EndChar

StartChar: uni0212
Encoding: 530 530 325
Width: 1248
Flags: W
LayerCount: 2
Fore
SplineSet
658 762 m 2
 330 762 l 1
 330 1208 l 1
 655 1208 l 2
 867 1208 968 1138 968 996 c 0
 968 836 898 762 658 762 c 2
155 0 m 1
 330 0 l 1
 330 624 l 1
 330 624 559 622 576 622 c 0
 607 622 708 625 734 627 c 1
 762 581 795 502 830 422 c 2
 1011 0 l 1
 1193 0 l 1
 978 475 l 2
 947 543 890 658 890 663 c 1
 1082 718 1142 830 1142 998 c 0
 1142 1305 923 1346 599 1346 c 2
 155 1346 l 1
 155 0 l 1
677 1657 m 0
 743 1657 801 1616 801 1529 c 1
 907 1529 l 1
 907 1686 790 1764 677 1764 c 0
 565 1764 451 1686 451 1529 c 1
 556 1529 l 1
 556 1616 611 1657 677 1657 c 0
EndSplineSet
EndChar

StartChar: uni0214
Encoding: 532 532 326
Width: 1309
Flags: W
LayerCount: 2
Fore
SplineSet
1171 493 m 2
 1171 1346 l 1
 997 1346 l 1
 997 492 l 2
 997 248 884 120 649 120 c 0
 408 120 302 248 302 492 c 2
 302 1346 l 1
 128 1346 l 1
 128 495 l 2
 128 196 291 -18 649 -18 c 0
 1007 -18 1171 195 1171 493 c 2
EndSplineSet
EndChar

StartChar: uni0216
Encoding: 534 534 327
Width: 1309
Flags: W
LayerCount: 2
Fore
SplineSet
1171 493 m 2
 1171 1346 l 1
 997 1346 l 1
 997 492 l 2
 997 248 884 120 649 120 c 0
 408 120 302 248 302 492 c 2
 302 1346 l 1
 128 1346 l 1
 128 495 l 2
 128 196 291 -18 649 -18 c 0
 1007 -18 1171 195 1171 493 c 2
661 1657 m 0
 727 1657 785 1616 785 1529 c 1
 891 1529 l 1
 891 1686 774 1764 661 1764 c 0
 549 1764 435 1686 435 1529 c 1
 540 1529 l 1
 540 1616 595 1657 661 1657 c 0
EndSplineSet
EndChar

StartChar: uni021A
Encoding: 538 538 328
Width: 1058
Flags: W
LayerCount: 2
Fore
SplineSet
1024 1346 m 1
 34 1346 l 1
 34 1207 l 1
 441 1207 l 1
 441 0 l 1
 616 0 l 1
 616 1207 l 1
 1024 1207 l 1
 1024 1346 l 1
EndSplineSet
EndChar

StartChar: uni021E
Encoding: 542 542 329
Width: 1367
Flags: W
LayerCount: 2
Fore
SplineSet
329 766 m 1
 1038 766 l 1
 1038 1346 l 1
 1212 1346 l 1
 1212 0 l 1
 1038 0 l 1
 1038 634 l 1
 329 634 l 1
 329 0 l 1
 155 0 l 1
 155 1346 l 1
 329 1346 l 1
 329 766 l 1
582 1485 m 1
 776 1485 l 1
 946 1838 l 1
 825 1838 l 1
 678 1555 l 1
 531 1838 l 1
 412 1838 l 1
 582 1485 l 1
EndSplineSet
EndChar

StartChar: uni0226
Encoding: 550 550 330
Width: 1186
Flags: W
LayerCount: 2
Fore
SplineSet
392 561 m 1
 808 561 l 1
 808 561 613 1110 593 1179 c 1
 575 1119 392 561 392 561 c 1
11 0 m 1
 495 1346 l 1
 693 1346 l 1
 1176 0 l 1
 1011 0 l 1
 856 430 l 1
 342 430 l 1
 185 0 l 1
 11 0 l 1
517 1528 m 1
 670 1528 l 1
 670 1708 l 1
 517 1708 l 1
 517 1528 l 1
EndSplineSet
EndChar

StartChar: uni0228
Encoding: 552 552 331
Width: 1064
Flags: W
LayerCount: 2
Fore
SplineSet
330 1207 m 1
 964 1207 l 1
 971 1346 l 1
 155 1346 l 1
 155 0 l 1
 963 0 l 1
 971 139 l 1
 330 139 l 1
 330 629 l 1
 912 629 l 1
 912 766 l 1
 330 766 l 1
 330 1207 l 1
443 -373 m 1
 583 -373 l 1
 623 15 l 1
 545 15 l 1
 443 -373 l 1
EndSplineSet
EndChar

StartChar: uni022A
Encoding: 554 554 332
Width: 1473
Flags: W
LayerCount: 2
Fore
SplineSet
737 -18 m 0
 322 -18 96 251 96 668 c 0
 96 1095 330 1366 738 1366 c 0
 1139 1366 1377 1092 1377 667 c 0
 1377 257 1147 -18 737 -18 c 0
1202 667 m 0
 1202 997 1049 1228 738 1228 c 0
 427 1228 271 998 271 667 c 0
 271 349 419 120 737 120 c 0
 1055 120 1202 349 1202 667 c 0
489 1488 m 1
 630 1488 l 1
 630 1681 l 1
 489 1681 l 1
 489 1488 l 1
844 1488 m 1
 985 1488 l 1
 985 1681 l 1
 844 1681 l 1
 844 1488 l 1
366 1885 m 1
 1094 1885 l 1
 1094 2012 l 1
 366 2012 l 1
 366 1885 l 1
EndSplineSet
EndChar

StartChar: uni0230
Encoding: 560 560 333
Width: 1459
Flags: W
LayerCount: 2
Fore
SplineSet
366 1872 m 1
 1094 1872 l 1
 1094 1999 l 1
 366 1999 l 1
 366 1872 l 1
661 1528 m 1
 814 1528 l 1
 814 1708 l 1
 661 1708 l 1
 661 1528 l 1
737 -18 m 0
 322 -18 96 251 96 668 c 0
 96 1095 330 1366 738 1366 c 0
 1139 1366 1377 1092 1377 667 c 0
 1377 257 1147 -18 737 -18 c 0
1202 667 m 0
 1202 997 1049 1228 738 1228 c 0
 427 1228 271 998 271 667 c 0
 271 349 419 120 737 120 c 0
 1055 120 1202 349 1202 667 c 0
EndSplineSet
EndChar

StartChar: uni0232
Encoding: 562 562 334
Width: 1099
Flags: W
LayerCount: 2
Fore
SplineSet
549 683 m 1
 171 1346 l 1
 -4 1346 l 1
 462 533 l 1
 462 0 l 1
 637 0 l 1
 637 537 l 1
 1103 1346 l 1
 928 1346 l 1
 549 683 l 1
185 1699 m 1
 913 1699 l 1
 913 1826 l 1
 185 1826 l 1
 185 1699 l 1
EndSplineSet
EndChar

StartChar: uni1E02
Encoding: 7682 7682 335
Width: 1179
Flags: W
LayerCount: 2
Fore
SplineSet
155 0 m 1
 155 1346 l 1
 541 1346 l 2
 882 1346 1051 1249 1051 1015 c 0
 1051 949 1034 779 825 713 c 1
 1012 678 1101 544 1101 383 c 0
 1101 145 946 0 625 0 c 2
 155 0 l 1
313 129 m 1
 594 129 l 2
 820 129 936 209 936 389 c 0
 936 581 806 641 556 641 c 2
 313 641 l 1
 313 129 l 1
313 767 m 1
 601 767 l 2
 775 767 886 814 886 991 c 0
 886 1168 760 1213 533 1213 c 2
 313 1213 l 1
 313 767 l 1
557 1529 m 1
 710 1529 l 1
 710 1709 l 1
 557 1709 l 1
 557 1529 l 1
EndSplineSet
EndChar

StartChar: uni1E0A
Encoding: 7690 7690 336
Width: 1356
Flags: W
LayerCount: 2
Fore
SplineSet
330 1208 m 1
 524 1208 l 2
 882 1208 1087 1058 1087 670 c 0
 1087 316 901 137 550 137 c 2
 330 137 l 1
 330 1208 l 1
155 0 m 1
 555 0 l 2
 994 0 1262 229 1262 674 c 0
 1262 1142 969 1346 528 1346 c 2
 155 1346 l 1
 155 0 l 1
598 1528 m 1
 751 1528 l 1
 751 1708 l 1
 598 1708 l 1
 598 1528 l 1
EndSplineSet
EndChar

StartChar: uni1E1E
Encoding: 7710 7710 337
Width: 966
Flags: W
LayerCount: 2
Fore
SplineSet
330 1207 m 1
 908 1207 l 1
 918 1346 l 1
 155 1346 l 1
 155 0 l 1
 330 0 l 1
 330 601 l 1
 854 601 l 1
 854 734 l 1
 330 734 l 1
 330 1207 l 1
462 1529 m 1
 615 1529 l 1
 615 1709 l 1
 462 1709 l 1
 462 1529 l 1
EndSplineSet
EndChar

StartChar: uni1E40
Encoding: 7744 7744 338
Width: 1591
Flags: W
LayerCount: 2
Fore
SplineSet
1223 1346 m 1
 796 305 l 1
 374 1346 l 1
 155 1346 l 1
 155 0 l 1
 314 0 l 1
 314 795 l 1
 303 1125 l 1
 719 108 l 1
 873 108 l 1
 1284 1121 l 1
 1277 799 l 1
 1277 0 l 1
 1436 0 l 1
 1436 1346 l 1
 1223 1346 l 1
724 1529 m 1
 877 1529 l 1
 877 1709 l 1
 724 1709 l 1
 724 1529 l 1
EndSplineSet
EndChar

StartChar: uni1E56
Encoding: 7766 7766 339
Width: 1094
Flags: W
LayerCount: 2
Fore
SplineSet
155 0 m 1
 330 0 l 1
 330 572 l 1
 399 568 488 569 544 569 c 0
 881 569 1029 726 1029 979 c 0
 1029 1224 823 1346 565 1346 c 2
 155 1346 l 1
 155 0 l 1
330 702 m 1
 330 1209 l 1
 561 1209 l 2
 729 1209 854 1138 854 976 c 0
 854 796 772 700 552 700 c 0
 490 700 330 702 330 702 c 1
521 1529 m 1
 674 1529 l 1
 674 1709 l 1
 521 1709 l 1
 521 1529 l 1
EndSplineSet
EndChar

StartChar: uni1E60
Encoding: 7776 7776 340
Width: 1059
Flags: W
LayerCount: 2
Fore
SplineSet
87 110 m 1
 141 238 l 1
 251 172 381 120 544 120 c 0
 725 120 845 192 838 367 c 0
 833 476 760 541 600 598 c 2
 375 678 l 1
 202 734 89 829 89 1009 c 0
 89 1274 303 1366 555 1366 c 0
 711 1366 850 1309 936 1251 c 1
 882 1126 l 1
 819 1165 699 1228 561 1228 c 0
 392 1228 245 1173 245 1020 c 0
 245 914 310 860 431 822 c 1
 644 746 l 1
 832 687 984 599 990 377 c 0
 998 94 805 -18 544 -18 c 0
 322 -18 164 59 87 110 c 1
457 1528 m 1
 610 1528 l 1
 610 1708 l 1
 457 1708 l 1
 457 1528 l 1
EndSplineSet
EndChar

StartChar: uni1E6A
Encoding: 7786 7786 341
Width: 1058
Flags: W
LayerCount: 2
Fore
SplineSet
1024 1346 m 1
 34 1346 l 1
 34 1207 l 1
 441 1207 l 1
 441 0 l 1
 616 0 l 1
 616 1207 l 1
 1024 1207 l 1
 1024 1346 l 1
453 1528 m 1
 606 1528 l 1
 606 1708 l 1
 453 1708 l 1
 453 1528 l 1
EndSplineSet
EndChar

StartChar: uni1EBC
Encoding: 7868 7868 342
Width: 1064
Flags: W
LayerCount: 2
Fore
SplineSet
330 1207 m 1
 964 1207 l 1
 971 1346 l 1
 155 1346 l 1
 155 0 l 1
 963 0 l 1
 971 139 l 1
 330 139 l 1
 330 629 l 1
 912 629 l 1
 912 766 l 1
 330 766 l 1
 330 1207 l 1
406 1721 m 0
 519 1721 675 1636 675 1636 c 1
 711 1639 714 1683 717 1721 c 1
 817 1721 l 1
 817 1596 777 1522 681 1522 c 0
 599 1522 397 1610 397 1610 c 1
 367 1609 350 1572 347 1522 c 1
 250 1522 l 1
 250 1658 309 1721 406 1721 c 0
EndSplineSet
EndChar

StartChar: uni1EF8
Encoding: 7928 7928 343
Width: 1099
Flags: W
LayerCount: 2
Fore
SplineSet
549 683 m 1
 171 1346 l 1
 -4 1346 l 1
 462 533 l 1
 462 0 l 1
 637 0 l 1
 637 537 l 1
 1103 1346 l 1
 928 1346 l 1
 549 683 l 1
422 1721 m 0
 535 1721 691 1636 691 1636 c 1
 727 1639 730 1683 733 1721 c 1
 833 1721 l 1
 833 1596 793 1522 697 1522 c 0
 615 1522 413 1610 413 1610 c 1
 383 1609 366 1572 363 1522 c 1
 266 1522 l 1
 266 1658 325 1721 422 1721 c 0
EndSplineSet
EndChar

StartChar: abreve
Encoding: 259 259 344
Width: 1057
Flags: W
LayerCount: 2
Fore
SplineSet
111 263 m 0
 111 478 291 562 576 583 c 0
 622 587 751 597 751 597 c 1
 751 685 l 2
 751 823 681 886 538 886 c 0
 442 886 305 858 211 812 c 1
 203 831 171 916 164 935 c 1
 250 983 405 1019 534 1019 c 0
 778 1019 926 927 926 661 c 2
 926 0 l 1
 785 0 l 1
 780 24 763 125 758 149 c 1
 658 19 561 -18 432 -21 c 0
 251 -25 111 75 111 263 c 0
751 302 m 1
 751 490 l 1
 751 490 658 481 635 478 c 0
 374 447 285 402 285 262 c 0
 285 152 362 102 445 102 c 0
 586 102 697 175 751 302 c 1
528 1181 m 0
 416 1181 301 1246 301 1403 c 1
 407 1403 l 1
 407 1316 462 1275 528 1275 c 0
 594 1275 652 1316 652 1403 c 1
 758 1403 l 1
 758 1246 641 1181 528 1181 c 0
EndSplineSet
EndChar

StartChar: amacron
Encoding: 257 257 345
Width: 1057
Flags: W
LayerCount: 2
Fore
SplineSet
111 263 m 0
 111 478 291 562 576 583 c 0
 622 587 751 597 751 597 c 1
 751 685 l 2
 751 823 681 886 538 886 c 0
 442 886 305 858 211 812 c 1
 203 831 171 916 164 935 c 1
 250 983 405 1019 534 1019 c 0
 778 1019 926 927 926 661 c 2
 926 0 l 1
 785 0 l 1
 780 24 763 125 758 149 c 1
 658 19 561 -18 432 -21 c 0
 251 -25 111 75 111 263 c 0
751 302 m 1
 751 490 l 1
 751 490 658 481 635 478 c 0
 374 447 285 402 285 262 c 0
 285 152 362 102 445 102 c 0
 586 102 697 175 751 302 c 1
165 1351 m 1
 893 1351 l 1
 893 1478 l 1
 165 1478 l 1
 165 1351 l 1
EndSplineSet
EndChar

StartChar: aogonek
Encoding: 261 261 346
Width: 1057
Flags: W
LayerCount: 2
Fore
SplineSet
111 263 m 0
 111 478 291 562 576 583 c 0
 622 587 751 597 751 597 c 1
 751 685 l 2
 751 823 681 886 538 886 c 0
 442 886 305 858 211 812 c 1
 203 831 171 916 164 935 c 1
 250 983 405 1019 534 1019 c 0
 778 1019 926 927 926 661 c 2
 926 0 l 1
 785 0 l 1
 780 24 763 125 758 149 c 1
 658 19 561 -18 432 -21 c 0
 251 -25 111 75 111 263 c 0
751 302 m 1
 751 490 l 1
 751 490 658 481 635 478 c 0
 374 447 285 402 285 262 c 0
 285 152 362 102 445 102 c 0
 586 102 697 175 751 302 c 1
951 -352 m 1
 951 -246 l 1
 905 -265 875 -276 826 -276 c 0
 789 -276 746 -243 746 -195 c 0
 746 -133 815 -65 910 5 c 1
 806 5 l 1
 719 -46 632 -122 632 -221 c 0
 632 -325 710 -381 808 -381 c 0
 857 -381 916 -367 951 -352 c 1
EndSplineSet
EndChar

StartChar: aringacute
Encoding: 507 507 347
Width: 1057
Flags: W
LayerCount: 2
Fore
SplineSet
462 1692 m 1
 566 1692 l 1
 862 2045 l 1
 632 2045 l 1
 462 1692 l 1
111 263 m 0
 111 478 291 562 576 583 c 0
 622 587 751 597 751 597 c 1
 751 685 l 2
 751 823 681 886 538 886 c 0
 442 886 305 858 211 812 c 1
 203 831 171 916 164 935 c 1
 250 983 405 1019 534 1019 c 0
 778 1019 926 927 926 661 c 2
 926 0 l 1
 785 0 l 1
 780 24 763 125 758 149 c 1
 658 19 561 -18 432 -21 c 0
 251 -25 111 75 111 263 c 0
751 302 m 1
 751 490 l 1
 751 490 658 481 635 478 c 0
 374 447 285 402 285 262 c 0
 285 152 362 102 445 102 c 0
 586 102 697 175 751 302 c 1
439 1311 m 0
 439 1367 483 1416 529 1416 c 0
 579 1416 617 1367 617 1311 c 0
 617 1255 575 1209 529 1209 c 0
 473 1209 439 1250 439 1311 c 0
706 1311 m 0
 706 1413 624 1490 529 1490 c 0
 437 1490 352 1419 352 1311 c 0
 352 1206 436 1143 531 1143 c 0
 621 1143 706 1206 706 1311 c 0
EndSplineSet
EndChar

StartChar: aeacute
Encoding: 509 509 348
Width: 1587
Flags: W
LayerCount: 2
Fore
SplineSet
739 1186 m 1
 843 1186 l 1
 1139 1539 l 1
 909 1539 l 1
 739 1186 l 1
113 273 m 0
 113 513 356 543 632 558 c 2
 690 561 l 1
 690 711 l 2
 690 832 645 888 517 888 c 0
 392 888 269 854 193 814 c 1
 160 939 l 1
 233 981 377 1023 513 1023 c 0
 658 1023 775 966 802 848 c 1
 868 967 993 1023 1125 1023 c 0
 1373 1023 1465 827 1465 622 c 0
 1465 535 1442 493 1295 486 c 2
 843 463 l 1
 858 250 933 108 1127 108 c 0
 1244 108 1357 163 1421 208 c 1
 1468 98 l 1
 1394 34 1277 -23 1117 -23 c 0
 986 -23 892 22 819 102 c 1
 712 36 550 -24 408 -24 c 0
 250 -24 113 54 113 273 c 0
756 189 m 1
 715 264 692 351 687 454 c 1
 667 453 647 452 629 450 c 0
 337 428 266 373 266 265 c 0
 266 144 332 103 419 103 c 0
 520 103 652 154 756 189 c 1
848 560 m 1
 1318 586 l 1
 1318 595 l 1
 1316 802 1256 895 1122 895 c 0
 939 895 858 747 848 560 c 1
EndSplineSet
EndChar

StartChar: uni01E3
Encoding: 483 483 349
Width: 1587
Flags: W
LayerCount: 2
Fore
SplineSet
113 273 m 0
 113 513 356 543 632 558 c 2
 690 561 l 1
 690 711 l 2
 690 832 645 888 517 888 c 0
 392 888 269 854 193 814 c 1
 160 939 l 1
 233 981 377 1023 513 1023 c 0
 658 1023 775 966 802 848 c 1
 868 967 993 1023 1125 1023 c 0
 1373 1023 1465 827 1465 622 c 0
 1465 535 1442 493 1295 486 c 2
 843 463 l 1
 858 250 933 108 1127 108 c 0
 1244 108 1357 163 1421 208 c 1
 1468 98 l 1
 1394 34 1277 -23 1117 -23 c 0
 986 -23 892 22 819 102 c 1
 712 36 550 -24 408 -24 c 0
 250 -24 113 54 113 273 c 0
756 189 m 1
 715 264 692 351 687 454 c 1
 667 453 647 452 629 450 c 0
 337 428 266 373 266 265 c 0
 266 144 332 103 419 103 c 0
 520 103 652 154 756 189 c 1
848 560 m 1
 1318 586 l 1
 1318 595 l 1
 1316 802 1256 895 1122 895 c 0
 939 895 858 747 848 560 c 1
430 1352 m 1
 1158 1352 l 1
 1158 1479 l 1
 430 1479 l 1
 430 1352 l 1
EndSplineSet
EndChar

StartChar: cacute
Encoding: 263 263 350
Width: 881
Flags: W
LayerCount: 2
Fore
SplineSet
400 1182 m 1
 504 1182 l 1
 800 1535 l 1
 570 1535 l 1
 400 1182 l 1
816 51 m 1
 793 175 l 1
 721 138 667 112 581 112 c 0
 367 112 260 265 260 495 c 0
 260 733 371 886 581 886 c 0
 647 886 709 870 780 832 c 1
 822 950 l 1
 767 990 663 1019 558 1019 c 0
 278 1019 86 810 86 496 c 0
 86 195 271 -21 552 -21 c 0
 652 -21 750 3 816 51 c 1
EndSplineSet
EndChar

StartChar: ccaron
Encoding: 269 269 351
Width: 881
Flags: W
LayerCount: 2
Fore
SplineSet
816 51 m 1
 793 175 l 1
 721 138 667 112 581 112 c 0
 367 112 260 265 260 495 c 0
 260 733 371 886 581 886 c 0
 647 886 709 870 780 832 c 1
 822 950 l 1
 767 990 663 1019 558 1019 c 0
 278 1019 86 810 86 496 c 0
 86 195 271 -21 552 -21 c 0
 652 -21 750 3 816 51 c 1
352 1138 m 1
 546 1138 l 1
 716 1491 l 1
 595 1491 l 1
 448 1208 l 1
 301 1491 l 1
 182 1491 l 1
 352 1138 l 1
EndSplineSet
EndChar

StartChar: ccircumflex
Encoding: 265 265 352
Width: 881
Flags: W
LayerCount: 2
Fore
SplineSet
816 51 m 1
 793 175 l 1
 721 138 667 112 581 112 c 0
 367 112 260 265 260 495 c 0
 260 733 371 886 581 886 c 0
 647 886 709 870 780 832 c 1
 822 950 l 1
 767 990 663 1019 558 1019 c 0
 278 1019 86 810 86 496 c 0
 86 195 271 -21 552 -21 c 0
 652 -21 750 3 816 51 c 1
182 1138 m 1
 301 1138 l 1
 448 1386 l 1
 595 1138 l 1
 716 1138 l 1
 546 1491 l 1
 352 1491 l 1
 182 1138 l 1
EndSplineSet
EndChar

StartChar: cdotaccent
Encoding: 267 267 353
Width: 881
Flags: W
LayerCount: 2
Fore
SplineSet
816 51 m 1
 793 175 l 1
 721 138 667 112 581 112 c 0
 367 112 260 265 260 495 c 0
 260 733 371 886 581 886 c 0
 647 886 709 870 780 832 c 1
 822 950 l 1
 767 990 663 1019 558 1019 c 0
 278 1019 86 810 86 496 c 0
 86 195 271 -21 552 -21 c 0
 652 -21 750 3 816 51 c 1
373 1181 m 1
 526 1181 l 1
 526 1361 l 1
 373 1361 l 1
 373 1181 l 1
EndSplineSet
EndChar

StartChar: dcaron
Encoding: 271 271 354
Width: 1165
Flags: W
LayerCount: 2
Fore
SplineSet
1261 1002 m 1
 1367 1002 l 1
 1489 1431 l 1
 1346 1431 l 1
 1261 1002 l 1
86 504 m 0
 86 807 263 1019 523 1019 c 0
 655 1019 781 955 847 862 c 1
 843 928 843 991 843 1053 c 2
 843 1417 l 1
 1018 1431 l 1
 1018 0 l 1
 860 0 l 1
 843 163 l 1
 788 45 661 -21 524 -21 c 0
 245 -21 86 198 86 504 c 0
843 482 m 0
 843 741 767 891 552 891 c 0
 361 891 260 738 260 499 c 0
 260 265 357 108 551 108 c 0
 757 108 843 252 843 482 c 0
EndSplineSet
EndChar

StartChar: dcroat
Encoding: 273 273 355
Width: 1193
Flags: W
LayerCount: 2
Fore
SplineSet
128 1118 m 1
 591 1118 l 1
 591 1220 l 1
 128 1220 l 1
 128 1118 l 1
884 482 m 0
 884 252 798 108 592 108 c 0
 398 108 301 265 301 499 c 0
 301 738 401 891 592 891 c 0
 807 891 884 741 884 482 c 0
1058 0 m 1
 1058 1431 l 1
 884 1417 l 1
 884 1053 l 2
 884 991 884 928 888 862 c 1
 822 955 696 1019 564 1019 c 0
 304 1019 126 807 126 504 c 0
 126 198 286 -21 565 -21 c 0
 702 -21 829 45 884 163 c 1
 901 0 l 1
 1058 0 l 1
EndSplineSet
EndChar

StartChar: ebreve
Encoding: 277 277 356
Width: 1030
Flags: W
LayerCount: 2
Fore
SplineSet
513 1182 m 0
 401 1182 286 1247 286 1404 c 1
 392 1404 l 1
 392 1317 447 1276 513 1276 c 0
 579 1276 637 1317 637 1404 c 1
 743 1404 l 1
 743 1247 626 1182 513 1182 c 0
262 582 m 1
 783 582 l 1
 778 779 709 888 548 888 c 0
 392 888 279 772 262 582 c 1
86 496 m 0
 86 805 280 1019 543 1019 c 0
 800 1019 947 832 947 553 c 0
 947 530 941 469 941 469 c 1
 258 469 l 1
 262 240 397 112 587 112 c 0
 712 112 813 151 901 197 c 1
 925 65 l 1
 829 7 711 -21 562 -21 c 0
 273 -21 86 176 86 496 c 0
EndSplineSet
EndChar

StartChar: ecaron
Encoding: 283 283 357
Width: 1030
Flags: W
LayerCount: 2
Fore
SplineSet
418 1182 m 1
 612 1182 l 1
 782 1535 l 1
 661 1535 l 1
 514 1252 l 1
 367 1535 l 1
 248 1535 l 1
 418 1182 l 1
262 582 m 1
 783 582 l 1
 778 779 709 888 548 888 c 0
 392 888 279 772 262 582 c 1
86 496 m 0
 86 805 280 1019 543 1019 c 0
 800 1019 947 832 947 553 c 0
 947 530 941 469 941 469 c 1
 258 469 l 1
 262 240 397 112 587 112 c 0
 712 112 813 151 901 197 c 1
 925 65 l 1
 829 7 711 -21 562 -21 c 0
 273 -21 86 176 86 496 c 0
EndSplineSet
EndChar

StartChar: edotaccent
Encoding: 279 279 358
Width: 1030
Flags: W
LayerCount: 2
Fore
SplineSet
262 582 m 1
 783 582 l 1
 778 779 709 888 548 888 c 0
 392 888 279 772 262 582 c 1
86 496 m 0
 86 805 280 1019 543 1019 c 0
 800 1019 947 832 947 553 c 0
 947 530 941 469 941 469 c 1
 258 469 l 1
 262 240 397 112 587 112 c 0
 712 112 813 151 901 197 c 1
 925 65 l 1
 829 7 711 -21 562 -21 c 0
 273 -21 86 176 86 496 c 0
436 1181 m 1
 589 1181 l 1
 589 1361 l 1
 436 1361 l 1
 436 1181 l 1
EndSplineSet
EndChar

StartChar: emacron
Encoding: 275 275 359
Width: 1030
Flags: W
LayerCount: 2
Fore
SplineSet
262 582 m 1
 783 582 l 1
 778 779 709 888 548 888 c 0
 392 888 279 772 262 582 c 1
86 496 m 0
 86 805 280 1019 543 1019 c 0
 800 1019 947 832 947 553 c 0
 947 530 941 469 941 469 c 1
 258 469 l 1
 262 240 397 112 587 112 c 0
 712 112 813 151 901 197 c 1
 925 65 l 1
 829 7 711 -21 562 -21 c 0
 273 -21 86 176 86 496 c 0
148 1352 m 1
 876 1352 l 1
 876 1479 l 1
 148 1479 l 1
 148 1352 l 1
EndSplineSet
EndChar

StartChar: eogonek
Encoding: 281 281 360
Width: 1030
Flags: W
LayerCount: 2
Fore
SplineSet
262 582 m 1
 783 582 l 1
 778 779 709 888 548 888 c 0
 392 888 279 772 262 582 c 1
86 496 m 0
 86 805 280 1019 543 1019 c 0
 800 1019 947 832 947 553 c 0
 947 530 941 469 941 469 c 1
 258 469 l 1
 262 240 397 112 587 112 c 0
 712 112 813 151 901 197 c 1
 925 65 l 1
 829 7 711 -21 562 -21 c 0
 273 -21 86 176 86 496 c 0
920 -352 m 1
 920 -246 l 1
 874 -265 844 -276 795 -276 c 0
 758 -276 715 -243 715 -195 c 0
 715 -133 784 -65 879 5 c 1
 775 5 l 1
 688 -46 601 -122 601 -221 c 0
 601 -325 679 -381 777 -381 c 0
 826 -381 885 -367 920 -352 c 1
EndSplineSet
EndChar

StartChar: gbreve
Encoding: 287 287 361
Width: 1149
Flags: W
LayerCount: 2
Fore
SplineSet
549 1182 m 0
 437 1182 322 1247 322 1404 c 1
 428 1404 l 1
 428 1317 483 1276 549 1276 c 0
 615 1276 673 1317 673 1404 c 1
 779 1404 l 1
 779 1247 662 1182 549 1182 c 0
843 470 m 2
 843 543 l 2
 843 732 757 891 550 891 c 0
 333 891 260 677 260 504 c 0
 260 333 339 130 546 130 c 0
 761 130 843 291 843 470 c 2
250 -390 m 1
 261 -262 l 1
 301 -273 393 -291 494 -291 c 0
 738 -291 843 -83 843 73 c 2
 843 191 l 1
 796 73 691 0 533 0 c 0
 237 0 86 249 86 496 c 0
 86 780 231 1019 536 1019 c 0
 669 1019 771 968 847 865 c 1
 859 998 l 1
 1018 998 l 1
 1018 196 l 2
 1018 -52 916 -425 507 -425 c 0
 388 -425 290 -400 250 -390 c 1
EndSplineSet
EndChar

StartChar: gcaron
Encoding: 487 487 362
Width: 1149
Flags: W
LayerCount: 2
Fore
SplineSet
453 1182 m 1
 647 1182 l 1
 817 1535 l 1
 696 1535 l 1
 549 1252 l 1
 402 1535 l 1
 283 1535 l 1
 453 1182 l 1
843 470 m 2
 843 543 l 2
 843 732 757 891 550 891 c 0
 333 891 260 677 260 504 c 0
 260 333 339 130 546 130 c 0
 761 130 843 291 843 470 c 2
250 -390 m 1
 261 -262 l 1
 301 -273 393 -291 494 -291 c 0
 738 -291 843 -83 843 73 c 2
 843 191 l 1
 796 73 691 0 533 0 c 0
 237 0 86 249 86 496 c 0
 86 780 231 1019 536 1019 c 0
 669 1019 771 968 847 865 c 1
 859 998 l 1
 1018 998 l 1
 1018 196 l 2
 1018 -52 916 -425 507 -425 c 0
 388 -425 290 -400 250 -390 c 1
EndSplineSet
EndChar

StartChar: gcircumflex
Encoding: 285 285 363
Width: 1149
Flags: W
LayerCount: 2
Fore
SplineSet
283 1182 m 1
 402 1182 l 1
 549 1430 l 1
 696 1182 l 1
 817 1182 l 1
 647 1535 l 1
 453 1535 l 1
 283 1182 l 1
843 470 m 2
 843 543 l 2
 843 732 757 891 550 891 c 0
 333 891 260 677 260 504 c 0
 260 333 339 130 546 130 c 0
 761 130 843 291 843 470 c 2
250 -390 m 1
 261 -262 l 1
 301 -273 393 -291 494 -291 c 0
 738 -291 843 -83 843 73 c 2
 843 191 l 1
 796 73 691 0 533 0 c 0
 237 0 86 249 86 496 c 0
 86 780 231 1019 536 1019 c 0
 669 1019 771 968 847 865 c 1
 859 998 l 1
 1018 998 l 1
 1018 196 l 2
 1018 -52 916 -425 507 -425 c 0
 388 -425 290 -400 250 -390 c 1
EndSplineSet
EndChar

StartChar: gcommaaccent
Encoding: 291 291 364
Width: 1149
Flags: W
LayerCount: 2
Fore
SplineSet
484 1182 m 1
 590 1182 l 1
 712 1611 l 1
 569 1611 l 1
 484 1182 l 1
843 470 m 2
 843 543 l 2
 843 732 757 891 550 891 c 0
 333 891 260 677 260 504 c 0
 260 333 339 130 546 130 c 0
 761 130 843 291 843 470 c 2
250 -390 m 1
 261 -262 l 1
 301 -273 393 -291 494 -291 c 0
 738 -291 843 -83 843 73 c 2
 843 191 l 1
 796 73 691 0 533 0 c 0
 237 0 86 249 86 496 c 0
 86 780 231 1019 536 1019 c 0
 669 1019 771 968 847 865 c 1
 859 998 l 1
 1018 998 l 1
 1018 196 l 2
 1018 -52 916 -425 507 -425 c 0
 388 -425 290 -400 250 -390 c 1
EndSplineSet
EndChar

StartChar: gdotaccent
Encoding: 289 289 365
Width: 1149
Flags: W
LayerCount: 2
Fore
SplineSet
843 470 m 2
 843 543 l 2
 843 732 757 891 550 891 c 0
 333 891 260 677 260 504 c 0
 260 333 339 130 546 130 c 0
 761 130 843 291 843 470 c 2
250 -390 m 1
 261 -262 l 1
 301 -273 393 -291 494 -291 c 0
 738 -291 843 -83 843 73 c 2
 843 191 l 1
 796 73 691 0 533 0 c 0
 237 0 86 249 86 496 c 0
 86 780 231 1019 536 1019 c 0
 669 1019 771 968 847 865 c 1
 859 998 l 1
 1018 998 l 1
 1018 196 l 2
 1018 -52 916 -425 507 -425 c 0
 388 -425 290 -400 250 -390 c 1
503 1181 m 1
 656 1181 l 1
 656 1361 l 1
 503 1361 l 1
 503 1181 l 1
EndSplineSet
EndChar

StartChar: hbar
Encoding: 295 295 366
Width: 1130
Flags: W
LayerCount: 2
Fore
SplineSet
195 1261 m 1
 110 1261 l 1
 110 1156 l 1
 195 1156 l 1
 195 0 l 1
 348 0 l 1
 348 681 l 1
 373 776 498 892 654 892 c 0
 824 892 854 787 854 561 c 2
 854 0 l 1
 1007 0 l 1
 1007 604 l 2
 1007 866 912 1023 704 1023 c 0
 552 1023 433 966 348 864 c 1
 348 1156 l 1
 599 1156 l 1
 599 1261 l 1
 348 1261 l 1
 348 1374 l 1
 195 1356 l 1
 195 1261 l 1
EndSplineSet
EndChar

StartChar: hcircumflex
Encoding: 293 293 367
Width: 1091
Flags: W
LayerCount: 2
Fore
SplineSet
290 1594 m 1
 409 1594 l 1
 556 1842 l 1
 703 1594 l 1
 824 1594 l 1
 654 1947 l 1
 460 1947 l 1
 290 1594 l 1
147 1417 m 1
 322 1431 l 1
 322 1058 l 1
 322 864 l 1
 396 953 491 1019 629 1019 c 0
 859 1019 963 880 963 612 c 2
 963 0 l 1
 788 0 l 1
 788 623 l 2
 788 788 752 889 599 889 c 0
 437 889 361 801 331 686 c 1
 325 643 322 597 322 546 c 2
 322 0 l 1
 147 0 l 1
 147 1417 l 1
EndSplineSet
EndChar

StartChar: ibreve
Encoding: 301 301 368
Width: 413
Flags: W
LayerCount: 2
Fore
SplineSet
206 1182 m 0
 94 1182 -22 1247 -22 1404 c 1
 85 1404 l 1
 85 1317 140 1276 206 1276 c 0
 272 1276 330 1317 330 1404 c 1
 436 1404 l 1
 436 1247 319 1182 206 1182 c 0
130 0 m 1
 284 0 l 1
 284 999 l 1
 130 999 l 1
 130 0 l 1
EndSplineSet
EndChar

StartChar: ij
Encoding: 307 307 369
Width: 942
Flags: W
LayerCount: 2
Fore
SplineSet
136 0 m 1
 311 0 l 1
 311 998 l 1
 136 998 l 1
 136 0 l 1
136 1181 m 1
 311 1181 l 1
 311 1361 l 1
 136 1361 l 1
 136 1181 l 1
456 -398 m 1
 503 -398 l 2
 751 -398 806 -312 806 -68 c 2
 806 998 l 1
 632 998 l 1
 632 -52 l 1
 632 -121 l 2
 632 -219 620 -257 483 -257 c 2
 436 -257 l 1
 456 -398 l 1
632 1181 m 1
 806 1181 l 1
 806 1361 l 1
 632 1361 l 1
 632 1181 l 1
EndSplineSet
EndChar

StartChar: imacron
Encoding: 299 299 370
Width: 413
Flags: W
LayerCount: 2
Fore
SplineSet
130 0 m 1
 284 0 l 1
 284 999 l 1
 130 999 l 1
 130 0 l 1
-157 1352 m 1
 571 1352 l 1
 571 1479 l 1
 -157 1479 l 1
 -157 1352 l 1
EndSplineSet
EndChar

StartChar: iogonek
Encoding: 303 303 371
Width: 464
Flags: W
LayerCount: 2
Fore
SplineSet
153 0 m 1
 327 0 l 1
 327 998 l 1
 153 998 l 1
 153 0 l 1
153 1181 m 1
 327 1181 l 1
 327 1361 l 1
 153 1361 l 1
 153 1181 l 1
314 -344 m 1
 314 -238 l 1
 268 -257 238 -268 189 -268 c 0
 152 -268 109 -235 109 -187 c 0
 109 -125 178 -57 273 13 c 1
 169 13 l 1
 82 -38 -5 -114 -5 -213 c 0
 -5 -317 73 -373 171 -373 c 0
 220 -373 279 -359 314 -344 c 1
EndSplineSet
EndChar

StartChar: itilde
Encoding: 297 297 372
Width: 413
Flags: W
LayerCount: 2
Fore
SplineSet
130 0 m 1
 284 0 l 1
 284 999 l 1
 130 999 l 1
 130 0 l 1
80 1374 m 0
 193 1374 349 1289 349 1289 c 1
 385 1292 388 1336 391 1374 c 1
 491 1374 l 1
 491 1249 451 1175 355 1175 c 0
 273 1175 71 1263 71 1263 c 1
 41 1262 24 1225 21 1175 c 1
 -77 1175 l 1
 -77 1311 -18 1374 80 1374 c 0
EndSplineSet
EndChar

StartChar: uni0237
Encoding: 567 567 373
Width: 417
Flags: W
LayerCount: 2
Fore
SplineSet
-53 -398 m 1
 -73 -257 l 1
 -25 -257 l 2
 140 -257 123 -205 123 -52 c 2
 123 998 l 1
 298 998 l 1
 298 -68 l 2
 298 -312 243 -398 -5 -398 c 2
 -53 -398 l 1
EndSplineSet
EndChar

StartChar: jcircumflex
Encoding: 309 309 374
Width: 417
Flags: W
LayerCount: 2
Fore
SplineSet
-50 1182 m 1
 69 1182 l 1
 216 1430 l 1
 363 1182 l 1
 484 1182 l 1
 314 1535 l 1
 120 1535 l 1
 -50 1182 l 1
-53 -398 m 1
 -73 -257 l 1
 -25 -257 l 2
 140 -257 123 -205 123 -52 c 2
 123 998 l 1
 298 998 l 1
 298 -68 l 2
 298 -312 243 -398 -5 -398 c 2
 -53 -398 l 1
EndSplineSet
EndChar

StartChar: kcommaaccent
Encoding: 311 311 375
Width: 1021
Flags: W
LayerCount: 2
Fore
SplineSet
147 1417 m 1
 147 0 l 1
 322 0 l 1
 322 350 l 1
 433 446 l 1
 815 0 l 1
 1011 0 l 1
 558 532 l 1
 1004 998 l 1
 789 998 l 1
 322 512 l 1
 322 708 l 1
 322 1431 l 1
 147 1417 l 1
EndSplineSet
EndChar

StartChar: kgreenlandic
Encoding: 312 312 376
Width: 1047
Flags: W
LayerCount: 2
Fore
SplineSet
130 0 m 1
 281 0 l 1
 281 373 l 1
 392 469 l 1
 757 0 l 1
 946 0 l 1
 502 555 l 1
 917 998 l 1
 724 998 l 1
 589 855 431 690 315 557 c 0
 303 544 292 532 281 520 c 1
 281 999 l 1
 130 999 l 1
 130 0 l 1
EndSplineSet
EndChar

StartChar: lacute
Encoding: 314 314 377
Width: 530
Flags: W
LayerCount: 2
Fore
SplineSet
267 1594 m 1
 371 1594 l 1
 667 1947 l 1
 437 1947 l 1
 267 1594 l 1
157 305 m 2
 157 1417 l 1
 332 1431 l 1
 332 345 l 2
 332 148 347 116 428 116 c 0
 454 116 452 116 481 120 c 1
 497 -9 l 1
 449 -16 413 -18 387 -18 c 0
 230 -18 157 45 157 305 c 2
EndSplineSet
EndChar

StartChar: lcaron
Encoding: 318 318 378
Width: 530
Flags: W
LayerCount: 2
Fore
SplineSet
734 1002 m 1
 840 1002 l 1
 962 1431 l 1
 819 1431 l 1
 734 1002 l 1
157 305 m 2
 157 1417 l 1
 332 1431 l 1
 332 345 l 2
 332 148 347 116 428 116 c 0
 454 116 452 116 481 120 c 1
 497 -9 l 1
 449 -16 413 -18 387 -18 c 0
 230 -18 157 45 157 305 c 2
EndSplineSet
EndChar

StartChar: lcommaaccent
Encoding: 316 316 379
Width: 530
Flags: W
LayerCount: 2
Fore
SplineSet
157 305 m 2
 157 1417 l 1
 332 1431 l 1
 332 345 l 2
 332 148 347 116 428 116 c 0
 454 116 452 116 481 120 c 1
 497 -9 l 1
 449 -16 413 -18 387 -18 c 0
 230 -18 157 45 157 305 c 2
EndSplineSet
EndChar

StartChar: ldot
Encoding: 320 320 380
Width: 1062
Flags: W
LayerCount: 2
Fore
SplineSet
802 511 m 1
 955 511 l 1
 955 691 l 1
 802 691 l 1
 802 511 l 1
551 -3 m 1
 542 122 l 1
 513 118 471 116 445 116 c 0
 313 116 309 163 309 360 c 2
 309 1431 l 1
 135 1417 l 1
 135 305 l 2
 135 45 244 -18 401 -18 c 0
 427 -18 485 -14 551 -3 c 1
EndSplineSet
EndChar

StartChar: nacute
Encoding: 324 324 381
Width: 1091
Flags: W
LayerCount: 2
Fore
SplineSet
505 1182 m 1
 609 1182 l 1
 905 1535 l 1
 675 1535 l 1
 505 1182 l 1
147 0 m 1
 147 998 l 1
 296 998 l 1
 315 855 l 1
 387 963 490 1019 633 1019 c 0
 863 1019 963 880 963 612 c 2
 963 0 l 1
 788 0 l 1
 788 623 l 2
 788 788 752 889 599 889 c 0
 437 889 361 801 331 686 c 1
 325 643 322 597 322 546 c 2
 322 0 l 1
 147 0 l 1
EndSplineSet
EndChar

StartChar: ncaron
Encoding: 328 328 382
Width: 1091
Flags: W
LayerCount: 2
Fore
SplineSet
460 1182 m 1
 654 1182 l 1
 824 1535 l 1
 703 1535 l 1
 556 1252 l 1
 409 1535 l 1
 290 1535 l 1
 460 1182 l 1
147 0 m 1
 147 998 l 1
 296 998 l 1
 315 855 l 1
 387 963 490 1019 633 1019 c 0
 863 1019 963 880 963 612 c 2
 963 0 l 1
 788 0 l 1
 788 623 l 2
 788 788 752 889 599 889 c 0
 437 889 361 801 331 686 c 1
 325 643 322 597 322 546 c 2
 322 0 l 1
 147 0 l 1
EndSplineSet
EndChar

StartChar: ncommaaccent
Encoding: 326 326 383
Width: 1091
Flags: W
LayerCount: 2
Fore
SplineSet
147 0 m 1
 147 998 l 1
 296 998 l 1
 315 855 l 1
 387 963 490 1019 633 1019 c 0
 863 1019 963 880 963 612 c 2
 963 0 l 1
 788 0 l 1
 788 623 l 2
 788 788 752 889 599 889 c 0
 437 889 361 801 331 686 c 1
 325 643 322 597 322 546 c 2
 322 0 l 1
 147 0 l 1
EndSplineSet
EndChar

StartChar: eng
Encoding: 331 331 384
Width: 1096
Flags: W
LayerCount: 2
Fore
SplineSet
653 -275 m 2
 589 -275 l 1
 578 -128 l 1
 617 -128 l 2
 774 -128 790 -100 790 95 c 2
 790 623 l 2
 790 788 754 889 601 889 c 0
 439 889 363 801 333 686 c 1
 327 643 324 597 324 546 c 2
 324 0 l 1
 149 0 l 1
 149 998 l 1
 298 998 l 1
 317 855 l 1
 389 963 492 1019 635 1019 c 0
 865 1019 965 880 965 612 c 2
 965 144 l 2
 965 -134 923 -275 653 -275 c 2
EndSplineSet
EndChar

StartChar: obreve
Encoding: 335 335 385
Width: 1104
Flags: W
LayerCount: 2
Fore
SplineSet
545 1182 m 0
 433 1182 318 1247 318 1404 c 1
 424 1404 l 1
 424 1317 479 1276 545 1276 c 0
 611 1276 669 1317 669 1404 c 1
 775 1404 l 1
 775 1247 658 1182 545 1182 c 0
86 499 m 0
 86 804 257 1019 552 1019 c 0
 847 1019 1018 804 1018 499 c 0
 1018 200 837 -21 552 -21 c 0
 267 -21 86 200 86 499 c 0
843 497 m 0
 843 719 758 886 552 886 c 0
 346 886 260 719 260 497 c 0
 260 279 345 112 552 112 c 0
 759 112 843 279 843 497 c 0
EndSplineSet
EndChar

StartChar: ohorn
Encoding: 417 417 386
Width: 1104
Flags: W
LayerCount: 2
Fore
SplineSet
86 499 m 0
 86 804 257 1019 552 1019 c 0
 847 1019 1018 804 1018 499 c 0
 1018 200 837 -21 552 -21 c 0
 267 -21 86 200 86 499 c 0
843 497 m 0
 843 719 758 886 552 886 c 0
 346 886 260 719 260 497 c 0
 260 279 345 112 552 112 c 0
 759 112 843 279 843 497 c 0
1316 882 m 0
 1316 927 1306 974 1287 1019 c 1
 1181 1019 l 1
 1195 982 1208 930 1208 885 c 0
 1208 835 1192 794 1139 794 c 0
 1124 794 1108 796 1094 796 c 1
 1094 710 l 1
 1122 707 1152 705 1178 705 c 0
 1270 705 1316 786 1316 882 c 0
EndSplineSet
EndChar

StartChar: ohungarumlaut
Encoding: 337 337 387
Width: 1104
Flags: W
LayerCount: 2
Fore
SplineSet
394 1182 m 1
 485 1182 l 1
 714 1487 l 1
 575 1487 l 1
 394 1182 l 1
607 1182 m 1
 699 1182 l 1
 927 1487 l 1
 790 1487 l 1
 607 1182 l 1
86 499 m 0
 86 804 257 1019 552 1019 c 0
 847 1019 1018 804 1018 499 c 0
 1018 200 837 -21 552 -21 c 0
 267 -21 86 200 86 499 c 0
843 497 m 0
 843 719 758 886 552 886 c 0
 346 886 260 719 260 497 c 0
 260 279 345 112 552 112 c 0
 759 112 843 279 843 497 c 0
EndSplineSet
EndChar

StartChar: omacron
Encoding: 333 333 388
Width: 1104
Flags: W
LayerCount: 2
Fore
SplineSet
182 1182 m 1
 910 1182 l 1
 910 1309 l 1
 182 1309 l 1
 182 1182 l 1
86 499 m 0
 86 804 257 1019 552 1019 c 0
 847 1019 1018 804 1018 499 c 0
 1018 200 837 -21 552 -21 c 0
 267 -21 86 200 86 499 c 0
843 497 m 0
 843 719 758 886 552 886 c 0
 346 886 260 719 260 497 c 0
 260 279 345 112 552 112 c 0
 759 112 843 279 843 497 c 0
EndSplineSet
EndChar

StartChar: oslashacute
Encoding: 511 511 389
Width: 1158
Flags: W
LayerCount: 2
Fore
SplineSet
524 1407 m 1
 628 1407 l 1
 924 1760 l 1
 694 1760 l 1
 524 1407 l 1
299 -250 m 1
 409 6 l 1
 460 -13 517 -23 580 -23 c 0
 879 -23 1042 223 1042 500 c 0
 1042 701 966 878 816 965 c 1
 923 1216 l 1
 853 1244 l 1
 748 996 l 1
 699 1013 643 1023 582 1023 c 0
 280 1023 109 784 109 498 c 0
 109 299 191 124 342 37 c 1
 235 -216 l 1
 299 -250 l 1
267 495 m 0
 267 699 365 897 580 897 c 0
 625 897 663 890 697 876 c 1
 396 166 l 1
 308 239 267 365 267 495 c 0
460 126 m 1
 762 838 l 1
 849 766 884 637 884 498 c 0
 884 294 798 103 582 103 c 0
 536 103 495 111 460 126 c 1
EndSplineSet
EndChar

StartChar: racute
Encoding: 341 341 390
Width: 704
Flags: W
LayerCount: 2
Fore
SplineSet
367 1182 m 1
 471 1182 l 1
 767 1535 l 1
 537 1535 l 1
 367 1182 l 1
147 998 m 1
 147 0 l 1
 322 0 l 1
 322 561 l 2
 322 732 435 869 609 869 c 0
 631 869 655 867 681 862 c 1
 687 1002 l 1
 664 1006 639 1007 612 1007 c 0
 488 1007 376 928 310 819 c 1
 296 998 l 1
 147 998 l 1
EndSplineSet
EndChar

StartChar: rcaron
Encoding: 345 345 391
Width: 704
Flags: W
LayerCount: 2
Fore
SplineSet
322 1182 m 1
 516 1182 l 1
 686 1535 l 1
 565 1535 l 1
 418 1252 l 1
 271 1535 l 1
 152 1535 l 1
 322 1182 l 1
147 998 m 1
 147 0 l 1
 322 0 l 1
 322 561 l 2
 322 732 435 869 609 869 c 0
 631 869 655 867 681 862 c 1
 687 1002 l 1
 664 1006 639 1007 612 1007 c 0
 488 1007 376 928 310 819 c 1
 296 998 l 1
 147 998 l 1
EndSplineSet
EndChar

StartChar: rcommaaccent
Encoding: 343 343 392
Width: 704
Flags: W
LayerCount: 2
Fore
SplineSet
147 998 m 1
 147 0 l 1
 322 0 l 1
 322 561 l 2
 322 732 435 869 609 869 c 0
 631 869 655 867 681 862 c 1
 687 1002 l 1
 664 1006 639 1007 612 1007 c 0
 488 1007 376 928 310 819 c 1
 296 998 l 1
 147 998 l 1
EndSplineSet
EndChar

StartChar: sacute
Encoding: 347 347 393
Width: 798
Flags: W
LayerCount: 2
Fore
SplineSet
356 1182 m 1
 460 1182 l 1
 756 1535 l 1
 526 1535 l 1
 356 1182 l 1
747 269 m 1
 747 420 670 502 468 568 c 0
 440 577 427 586 404 593 c 0
 259 642 220 672 220 751 c 0
 220 836 286 886 412 886 c 0
 508 886 587 860 664 828 c 1
 709 954 l 1
 620 996 530 1019 412 1019 c 0
 186 1019 69 896 69 745 c 1
 70 620 137 538 314 473 c 1
 382 447 l 1
 565 381 605 350 605 262 c 0
 605 162 533 112 394 112 c 0
 275 112 182 152 116 187 c 1
 76 56 l 1
 142 13 251 -21 394 -21 c 0
 612 -21 744 82 747 269 c 1
EndSplineSet
EndChar

StartChar: scedilla
Encoding: 351 351 394
Width: 798
Flags: W
LayerCount: 2
Fore
SplineSet
273 -396 m 1
 413 -396 l 1
 453 -8 l 1
 375 -8 l 1
 273 -396 l 1
747 269 m 1
 747 420 670 502 468 568 c 0
 440 577 427 586 404 593 c 0
 259 642 220 672 220 751 c 0
 220 836 286 886 412 886 c 0
 508 886 587 860 664 828 c 1
 709 954 l 1
 620 996 530 1019 412 1019 c 0
 186 1019 69 896 69 745 c 1
 70 620 137 538 314 473 c 1
 382 447 l 1
 565 381 605 350 605 262 c 0
 605 162 533 112 394 112 c 0
 275 112 182 152 116 187 c 1
 76 56 l 1
 142 13 251 -21 394 -21 c 0
 612 -21 744 82 747 269 c 1
EndSplineSet
EndChar

StartChar: scircumflex
Encoding: 349 349 395
Width: 798
Flags: W
LayerCount: 2
Fore
SplineSet
141 1182 m 1
 260 1182 l 1
 407 1430 l 1
 554 1182 l 1
 675 1182 l 1
 505 1535 l 1
 311 1535 l 1
 141 1182 l 1
747 269 m 1
 747 420 670 502 468 568 c 0
 440 577 427 586 404 593 c 0
 259 642 220 672 220 751 c 0
 220 836 286 886 412 886 c 0
 508 886 587 860 664 828 c 1
 709 954 l 1
 620 996 530 1019 412 1019 c 0
 186 1019 69 896 69 745 c 1
 70 620 137 538 314 473 c 1
 382 447 l 1
 565 381 605 350 605 262 c 0
 605 162 533 112 394 112 c 0
 275 112 182 152 116 187 c 1
 76 56 l 1
 142 13 251 -21 394 -21 c 0
 612 -21 744 82 747 269 c 1
EndSplineSet
EndChar

StartChar: scommaaccent
Encoding: 537 537 396
Width: 798
Flags: W
LayerCount: 2
Fore
SplineSet
747 269 m 1
 747 420 670 502 468 568 c 0
 440 577 427 586 404 593 c 0
 259 642 220 672 220 751 c 0
 220 836 286 886 412 886 c 0
 508 886 587 860 664 828 c 1
 709 954 l 1
 620 996 530 1019 412 1019 c 0
 186 1019 69 896 69 745 c 1
 70 620 137 538 314 473 c 1
 382 447 l 1
 565 381 605 350 605 262 c 0
 605 162 533 112 394 112 c 0
 275 112 182 152 116 187 c 1
 76 56 l 1
 142 13 251 -21 394 -21 c 0
 612 -21 744 82 747 269 c 1
EndSplineSet
EndChar

StartChar: uni0259
Encoding: 601 601 397
Width: 1030
Flags: W
LayerCount: 2
Fore
SplineSet
768 416 m 1
 247 416 l 1
 252 219 321 110 482 110 c 0
 638 110 751 226 768 416 c 1
944 502 m 0
 944 193 750 -21 487 -21 c 0
 230 -21 83 166 83 445 c 0
 83 468 89 529 89 529 c 1
 772 529 l 1
 768 758 633 886 443 886 c 0
 318 886 217 847 129 801 c 1
 105 933 l 1
 201 991 319 1019 468 1019 c 0
 757 1019 944 822 944 502 c 0
EndSplineSet
EndChar

StartChar: tbar
Encoding: 359 359 398
Width: 815
Flags: W
LayerCount: 2
Fore
SplineSet
701 -6 m 1
 687 117 l 1
 617 112 580 107 563 107 c 0
 441 107 419 147 419 334 c 2
 419 581 l 1
 609 581 l 1
 609 695 l 1
 419 695 l 1
 419 892 l 1
 683 892 l 1
 683 999 l 1
 419 999 l 1
 419 1233 l 1
 306 1225 l 1
 266 999 l 1
 126 999 l 1
 114 892 l 1
 266 892 l 1
 266 695 l 1
 125 695 l 1
 125 581 l 1
 266 581 l 1
 266 405 l 2
 266 101 285 -18 528 -18 c 0
 559 -18 587 -16 701 -6 c 1
EndSplineSet
EndChar

StartChar: tcaron
Encoding: 357 357 399
Width: 718
Flags: W
LayerCount: 2
Fore
SplineSet
926 801 m 1
 1032 801 l 1
 1154 1230 l 1
 1011 1230 l 1
 926 801 l 1
681 13 m 1
 654 139 l 1
 609 122 553 114 518 114 c 0
 407 114 367 160 367 313 c 2
 367 885 l 1
 658 885 l 1
 658 998 l 1
 367 998 l 1
 367 1230 l 1
 243 1227 l 1
 191 998 l 1
 50 986 l 1
 44 885 l 1
 192 885 l 1
 192 313 l 2
 192 104 289 -18 489 -18 c 0
 528 -18 619 -13 681 13 c 1
EndSplineSet
EndChar

StartChar: ubreve
Encoding: 365 365 400
Width: 1110
Flags: W
LayerCount: 2
Fore
SplineSet
552 1182 m 0
 440 1182 325 1247 325 1404 c 1
 431 1404 l 1
 431 1317 486 1276 552 1276 c 0
 618 1276 676 1317 676 1404 c 1
 782 1404 l 1
 782 1247 665 1182 552 1182 c 0
961 998 m 1
 961 0 l 1
 813 0 l 1
 794 143 l 1
 719 49 623 -21 480 -21 c 0
 250 -21 146 119 146 387 c 2
 146 998 l 1
 320 998 l 1
 320 375 l 2
 320 210 357 109 510 109 c 0
 672 109 747 197 777 312 c 1
 783 355 786 401 786 452 c 2
 786 998 l 1
 961 998 l 1
EndSplineSet
EndChar

StartChar: uhorn
Encoding: 432 432 401
Width: 1110
Flags: W
LayerCount: 2
Fore
SplineSet
961 998 m 1
 961 0 l 1
 813 0 l 1
 794 143 l 1
 719 49 623 -21 480 -21 c 0
 250 -21 146 119 146 387 c 2
 146 998 l 1
 320 998 l 1
 320 375 l 2
 320 210 357 109 510 109 c 0
 672 109 747 197 777 312 c 1
 783 355 786 401 786 452 c 2
 786 998 l 1
 961 998 l 1
1265 882 m 0
 1265 927 1255 974 1236 1019 c 1
 1130 1019 l 1
 1144 982 1157 930 1157 885 c 0
 1157 835 1141 794 1088 794 c 0
 1073 794 1057 796 1043 796 c 1
 1043 710 l 1
 1071 707 1101 705 1127 705 c 0
 1219 705 1265 786 1265 882 c 0
EndSplineSet
EndChar

StartChar: uhungarumlaut
Encoding: 369 369 402
Width: 1110
Flags: W
LayerCount: 2
Fore
SplineSet
401 1182 m 1
 492 1182 l 1
 721 1487 l 1
 582 1487 l 1
 401 1182 l 1
614 1182 m 1
 706 1182 l 1
 934 1487 l 1
 797 1487 l 1
 614 1182 l 1
961 998 m 1
 961 0 l 1
 813 0 l 1
 794 143 l 1
 719 49 623 -21 480 -21 c 0
 250 -21 146 119 146 387 c 2
 146 998 l 1
 320 998 l 1
 320 375 l 2
 320 210 357 109 510 109 c 0
 672 109 747 197 777 312 c 1
 783 355 786 401 786 452 c 2
 786 998 l 1
 961 998 l 1
EndSplineSet
EndChar

StartChar: umacron
Encoding: 363 363 403
Width: 1110
Flags: W
LayerCount: 2
Fore
SplineSet
190 1182 m 1
 918 1182 l 1
 918 1309 l 1
 190 1309 l 1
 190 1182 l 1
961 998 m 1
 961 0 l 1
 813 0 l 1
 794 143 l 1
 719 49 623 -21 480 -21 c 0
 250 -21 146 119 146 387 c 2
 146 998 l 1
 320 998 l 1
 320 375 l 2
 320 210 357 109 510 109 c 0
 672 109 747 197 777 312 c 1
 783 355 786 401 786 452 c 2
 786 998 l 1
 961 998 l 1
EndSplineSet
EndChar

StartChar: uni01C6
Encoding: 454 454 404
Width: 2034
Flags: W
LayerCount: 2
Fore
SplineSet
866 482 m 0
 866 252 780 108 574 108 c 0
 380 108 284 265 284 499 c 0
 284 738 384 891 575 891 c 0
 790 891 866 741 866 482 c 0
1041 0 m 1
 1041 1431 l 1
 866 1417 l 1
 866 1053 l 2
 866 991 867 928 871 862 c 1
 805 955 679 1019 547 1019 c 0
 287 1019 109 807 109 504 c 0
 109 198 269 -21 548 -21 c 0
 685 -21 811 45 866 163 c 1
 884 0 l 1
 1041 0 l 1
1833 1521 m 1
 1711 1521 l 1
 1563 1237 l 1
 1418 1521 l 1
 1298 1521 l 1
 1469 1168 l 1
 1662 1168 l 1
 1833 1521 l 1
1234 998 m 1
 1234 878 l 1
 1731 878 l 1
 1213 117 l 1
 1213 0 l 1
 1917 0 l 1
 1917 120 l 1
 1391 120 l 1
 1901 873 l 1
 1901 998 l 1
 1234 998 l 1
EndSplineSet
EndChar

StartChar: uni01C9
Encoding: 457 457 405
Width: 1034
Flags: W
LayerCount: 2
Fore
SplineSet
551 -3 m 1
 542 122 l 1
 513 118 471 116 445 116 c 0
 313 116 309 163 309 360 c 2
 309 1431 l 1
 135 1417 l 1
 135 305 l 2
 135 45 244 -18 401 -18 c 0
 427 -18 485 -14 551 -3 c 1
548 -398 m 1
 595 -398 l 2
 843 -398 898 -312 898 -68 c 2
 898 998 l 1
 723 998 l 1
 723 -52 l 2
 723 -78 724 -101 724 -121 c 0
 724 -219 712 -257 575 -257 c 2
 528 -257 l 1
 548 -398 l 1
723 1181 m 1
 898 1181 l 1
 898 1361 l 1
 723 1361 l 1
 723 1181 l 1
EndSplineSet
EndChar

StartChar: uni01CC
Encoding: 460 460 406
Width: 1598
Flags: W
LayerCount: 2
Fore
SplineSet
130 998 m 1
 130 0 l 1
 305 0 l 1
 305 546 l 2
 305 597 308 643 314 686 c 1
 344 801 419 889 581 889 c 0
 734 889 771 788 771 623 c 2
 771 0 l 1
 945 0 l 1
 945 612 l 2
 945 880 846 1019 616 1019 c 0
 473 1019 370 963 298 855 c 1
 278 998 l 1
 130 998 l 1
1112 -398 m 1
 1159 -398 l 2
 1407 -398 1462 -312 1462 -68 c 2
 1462 998 l 1
 1288 998 l 1
 1288 -52 l 2
 1288 -78 1289 -101 1289 -121 c 0
 1289 -219 1276 -257 1139 -257 c 2
 1092 -257 l 1
 1112 -398 l 1
1288 1181 m 1
 1462 1181 l 1
 1462 1361 l 1
 1288 1361 l 1
 1288 1181 l 1
EndSplineSet
EndChar

StartChar: uni01CE
Encoding: 462 462 407
Width: 1057
Flags: W
LayerCount: 2
Fore
SplineSet
111 263 m 0
 111 478 291 562 576 583 c 0
 622 587 751 597 751 597 c 1
 751 685 l 2
 751 823 681 886 538 886 c 0
 442 886 305 858 211 812 c 1
 203 831 171 916 164 935 c 1
 250 983 405 1019 534 1019 c 0
 778 1019 926 927 926 661 c 2
 926 0 l 1
 785 0 l 1
 780 24 763 125 758 149 c 1
 658 19 561 -18 432 -21 c 0
 251 -25 111 75 111 263 c 0
751 302 m 1
 751 490 l 1
 751 490 658 481 635 478 c 0
 374 447 285 402 285 262 c 0
 285 152 362 102 445 102 c 0
 586 102 697 175 751 302 c 1
432 1137 m 1
 626 1137 l 1
 796 1490 l 1
 675 1490 l 1
 528 1207 l 1
 381 1490 l 1
 262 1490 l 1
 432 1137 l 1
EndSplineSet
EndChar

StartChar: uni01D0
Encoding: 464 464 408
Width: 413
Flags: W
LayerCount: 2
Fore
SplineSet
110 1182 m 1
 304 1182 l 1
 474 1535 l 1
 353 1535 l 1
 206 1252 l 1
 59 1535 l 1
 -60 1535 l 1
 110 1182 l 1
130 0 m 1
 284 0 l 1
 284 999 l 1
 130 999 l 1
 130 0 l 1
EndSplineSet
EndChar

StartChar: uni01D2
Encoding: 466 466 409
Width: 1104
Flags: W
LayerCount: 2
Fore
SplineSet
449 1182 m 1
 643 1182 l 1
 813 1535 l 1
 692 1535 l 1
 545 1252 l 1
 398 1535 l 1
 279 1535 l 1
 449 1182 l 1
86 499 m 0
 86 804 257 1019 552 1019 c 0
 847 1019 1018 804 1018 499 c 0
 1018 200 837 -21 552 -21 c 0
 267 -21 86 200 86 499 c 0
843 497 m 0
 843 719 758 886 552 886 c 0
 346 886 260 719 260 497 c 0
 260 279 345 112 552 112 c 0
 759 112 843 279 843 497 c 0
EndSplineSet
EndChar

StartChar: uni01D4
Encoding: 468 468 410
Width: 1110
Flags: W
LayerCount: 2
Fore
SplineSet
457 1182 m 1
 651 1182 l 1
 821 1535 l 1
 700 1535 l 1
 553 1252 l 1
 406 1535 l 1
 287 1535 l 1
 457 1182 l 1
961 998 m 1
 961 0 l 1
 813 0 l 1
 794 143 l 1
 719 49 623 -21 480 -21 c 0
 250 -21 146 119 146 387 c 2
 146 998 l 1
 320 998 l 1
 320 375 l 2
 320 210 357 109 510 109 c 0
 672 109 747 197 777 312 c 1
 783 355 786 401 786 452 c 2
 786 998 l 1
 961 998 l 1
EndSplineSet
EndChar

StartChar: uni01D6
Encoding: 470 470 411
Width: 1110
Flags: W
LayerCount: 2
Fore
SplineSet
190 1538 m 1
 918 1538 l 1
 918 1665 l 1
 190 1665 l 1
 190 1538 l 1
306 1182 m 1
 447 1182 l 1
 447 1375 l 1
 306 1375 l 1
 306 1182 l 1
661 1182 m 1
 802 1182 l 1
 802 1375 l 1
 661 1375 l 1
 661 1182 l 1
961 998 m 1
 961 0 l 1
 813 0 l 1
 794 143 l 1
 719 49 623 -21 480 -21 c 0
 250 -21 146 119 146 387 c 2
 146 998 l 1
 320 998 l 1
 320 375 l 2
 320 210 357 109 510 109 c 0
 672 109 747 197 777 312 c 1
 783 355 786 401 786 452 c 2
 786 998 l 1
 961 998 l 1
EndSplineSet
EndChar

StartChar: uni01D8
Encoding: 472 472 412
Width: 1110
Flags: W
LayerCount: 2
Fore
SplineSet
502 1538 m 1
 606 1538 l 1
 902 1891 l 1
 672 1891 l 1
 502 1538 l 1
306 1182 m 1
 447 1182 l 1
 447 1375 l 1
 306 1375 l 1
 306 1182 l 1
661 1182 m 1
 802 1182 l 1
 802 1375 l 1
 661 1375 l 1
 661 1182 l 1
961 998 m 1
 961 0 l 1
 813 0 l 1
 794 143 l 1
 719 49 623 -21 480 -21 c 0
 250 -21 146 119 146 387 c 2
 146 998 l 1
 320 998 l 1
 320 375 l 2
 320 210 357 109 510 109 c 0
 672 109 747 197 777 312 c 1
 783 355 786 401 786 452 c 2
 786 998 l 1
 961 998 l 1
EndSplineSet
EndChar

StartChar: uni01DA
Encoding: 474 474 413
Width: 1110
Flags: W
LayerCount: 2
Fore
SplineSet
457 1538 m 1
 651 1538 l 1
 821 1891 l 1
 700 1891 l 1
 553 1608 l 1
 406 1891 l 1
 287 1891 l 1
 457 1538 l 1
306 1182 m 1
 447 1182 l 1
 447 1375 l 1
 306 1375 l 1
 306 1182 l 1
661 1182 m 1
 802 1182 l 1
 802 1375 l 1
 661 1375 l 1
 661 1182 l 1
961 998 m 1
 961 0 l 1
 813 0 l 1
 794 143 l 1
 719 49 623 -21 480 -21 c 0
 250 -21 146 119 146 387 c 2
 146 998 l 1
 320 998 l 1
 320 375 l 2
 320 210 357 109 510 109 c 0
 672 109 747 197 777 312 c 1
 783 355 786 401 786 452 c 2
 786 998 l 1
 961 998 l 1
EndSplineSet
EndChar

StartChar: uni01DC
Encoding: 476 476 414
Width: 1110
Flags: W
LayerCount: 2
Fore
SplineSet
503 1538 m 1
 605 1538 l 1
 437 1891 l 1
 209 1891 l 1
 503 1538 l 1
306 1182 m 1
 447 1182 l 1
 447 1375 l 1
 306 1375 l 1
 306 1182 l 1
661 1182 m 1
 802 1182 l 1
 802 1375 l 1
 661 1375 l 1
 661 1182 l 1
961 998 m 1
 961 0 l 1
 813 0 l 1
 794 143 l 1
 719 49 623 -21 480 -21 c 0
 250 -21 146 119 146 387 c 2
 146 998 l 1
 320 998 l 1
 320 375 l 2
 320 210 357 109 510 109 c 0
 672 109 747 197 777 312 c 1
 783 355 786 401 786 452 c 2
 786 998 l 1
 961 998 l 1
EndSplineSet
EndChar

StartChar: uni01DF
Encoding: 479 479 415
Width: 1057
Flags: W
LayerCount: 2
Fore
SplineSet
111 263 m 0
 111 478 291 562 576 583 c 0
 622 587 751 597 751 597 c 1
 751 685 l 2
 751 823 681 886 538 886 c 0
 442 886 305 858 211 812 c 1
 203 831 171 916 164 935 c 1
 250 983 405 1019 534 1019 c 0
 778 1019 926 927 926 661 c 2
 926 0 l 1
 785 0 l 1
 780 24 763 125 758 149 c 1
 658 19 561 -18 432 -21 c 0
 251 -25 111 75 111 263 c 0
751 302 m 1
 751 490 l 1
 751 490 658 481 635 478 c 0
 374 447 285 402 285 262 c 0
 285 152 362 102 445 102 c 0
 586 102 697 175 751 302 c 1
281 1140 m 1
 422 1140 l 1
 422 1333 l 1
 281 1333 l 1
 281 1140 l 1
636 1140 m 1
 777 1140 l 1
 777 1333 l 1
 636 1333 l 1
 636 1140 l 1
150 1538 m 1
 878 1538 l 1
 878 1665 l 1
 150 1665 l 1
 150 1538 l 1
EndSplineSet
EndChar

StartChar: uni01E9
Encoding: 489 489 416
Width: 1021
Flags: W
LayerCount: 2
Fore
SplineSet
484 1594 m 1
 678 1594 l 1
 848 1947 l 1
 727 1947 l 1
 580 1664 l 1
 433 1947 l 1
 314 1947 l 1
 484 1594 l 1
147 1417 m 1
 147 0 l 1
 322 0 l 1
 322 350 l 1
 433 446 l 1
 815 0 l 1
 1011 0 l 1
 558 532 l 1
 1004 998 l 1
 789 998 l 1
 322 512 l 1
 322 708 l 1
 322 1431 l 1
 147 1417 l 1
EndSplineSet
EndChar

StartChar: uni01EB
Encoding: 491 491 417
Width: 1104
Flags: W
LayerCount: 2
Fore
SplineSet
86 499 m 0
 86 804 257 1019 552 1019 c 0
 847 1019 1018 804 1018 499 c 0
 1018 200 837 -21 552 -21 c 0
 267 -21 86 200 86 499 c 0
843 497 m 0
 843 719 758 886 552 886 c 0
 346 886 260 719 260 497 c 0
 260 279 345 112 552 112 c 0
 759 112 843 279 843 497 c 0
639 -365 m 1
 639 -259 l 1
 593 -278 563 -289 514 -289 c 0
 477 -289 434 -256 434 -208 c 0
 434 -146 503 -78 598 -8 c 1
 494 -8 l 1
 407 -59 320 -135 320 -234 c 0
 320 -338 398 -394 496 -394 c 0
 545 -394 604 -380 639 -365 c 1
EndSplineSet
EndChar

StartChar: uni01ED
Encoding: 493 493 418
Width: 1104
Flags: W
LayerCount: 2
Fore
SplineSet
182 1182 m 1
 910 1182 l 1
 910 1309 l 1
 182 1309 l 1
 182 1182 l 1
86 499 m 0
 86 804 257 1019 552 1019 c 0
 847 1019 1018 804 1018 499 c 0
 1018 200 837 -21 552 -21 c 0
 267 -21 86 200 86 499 c 0
843 497 m 0
 843 719 758 886 552 886 c 0
 346 886 260 719 260 497 c 0
 260 279 345 112 552 112 c 0
 759 112 843 279 843 497 c 0
639 -365 m 1
 639 -259 l 1
 593 -278 563 -289 514 -289 c 0
 477 -289 434 -256 434 -208 c 0
 434 -146 503 -78 598 -8 c 1
 494 -8 l 1
 407 -59 320 -135 320 -234 c 0
 320 -338 398 -394 496 -394 c 0
 545 -394 604 -380 639 -365 c 1
EndSplineSet
EndChar

StartChar: uni01F0
Encoding: 496 496 419
Width: 417
Flags: W
LayerCount: 2
Fore
SplineSet
120 1182 m 1
 314 1182 l 1
 484 1535 l 1
 363 1535 l 1
 216 1252 l 1
 69 1535 l 1
 -50 1535 l 1
 120 1182 l 1
-53 -398 m 1
 -73 -257 l 1
 -25 -257 l 2
 140 -257 123 -205 123 -52 c 2
 123 998 l 1
 298 998 l 1
 298 -68 l 2
 298 -312 243 -398 -5 -398 c 2
 -53 -398 l 1
EndSplineSet
EndChar

StartChar: uni01F3
Encoding: 499 499 420
Width: 2032
Flags: W
LayerCount: 2
Fore
SplineSet
866 482 m 0
 866 252 780 108 574 108 c 0
 380 108 284 265 284 499 c 0
 284 738 384 891 575 891 c 0
 790 891 866 741 866 482 c 0
1041 0 m 1
 1041 1431 l 1
 866 1417 l 1
 866 1053 l 2
 866 991 867 928 871 862 c 1
 805 955 679 1019 547 1019 c 0
 287 1019 109 807 109 504 c 0
 109 198 269 -21 548 -21 c 0
 685 -21 811 45 866 163 c 1
 884 0 l 1
 1041 0 l 1
1234 998 m 1
 1234 878 l 1
 1731 878 l 1
 1213 117 l 1
 1213 0 l 1
 1917 0 l 1
 1917 120 l 1
 1391 120 l 1
 1901 873 l 1
 1901 998 l 1
 1234 998 l 1
EndSplineSet
EndChar

StartChar: uni01F5
Encoding: 501 501 421
Width: 1149
Flags: W
LayerCount: 2
Fore
SplineSet
498 1182 m 1
 602 1182 l 1
 898 1535 l 1
 668 1535 l 1
 498 1182 l 1
843 470 m 2
 843 543 l 2
 843 732 757 891 550 891 c 0
 333 891 260 677 260 504 c 0
 260 333 339 130 546 130 c 0
 761 130 843 291 843 470 c 2
250 -390 m 1
 261 -262 l 1
 301 -273 393 -291 494 -291 c 0
 738 -291 843 -83 843 73 c 2
 843 191 l 1
 796 73 691 0 533 0 c 0
 237 0 86 249 86 496 c 0
 86 780 231 1019 536 1019 c 0
 669 1019 771 968 847 865 c 1
 859 998 l 1
 1018 998 l 1
 1018 196 l 2
 1018 -52 916 -425 507 -425 c 0
 388 -425 290 -400 250 -390 c 1
EndSplineSet
EndChar

StartChar: uni01F9
Encoding: 505 505 422
Width: 1091
Flags: W
LayerCount: 2
Fore
SplineSet
506 1182 m 1
 608 1182 l 1
 440 1535 l 1
 212 1535 l 1
 506 1182 l 1
147 0 m 1
 147 998 l 1
 296 998 l 1
 315 855 l 1
 387 963 490 1019 633 1019 c 0
 863 1019 963 880 963 612 c 2
 963 0 l 1
 788 0 l 1
 788 623 l 2
 788 788 752 889 599 889 c 0
 437 889 361 801 331 686 c 1
 325 643 322 597 322 546 c 2
 322 0 l 1
 147 0 l 1
EndSplineSet
EndChar

StartChar: uni0201
Encoding: 513 513 423
Width: 1057
Flags: W
LayerCount: 2
Fore
SplineSet
111 263 m 0
 111 478 291 562 576 583 c 0
 622 587 751 597 751 597 c 1
 751 685 l 2
 751 823 681 886 538 886 c 0
 442 886 305 858 211 812 c 1
 203 831 171 916 164 935 c 1
 250 983 405 1019 534 1019 c 0
 778 1019 926 927 926 661 c 2
 926 0 l 1
 785 0 l 1
 780 24 763 125 758 149 c 1
 658 19 561 -18 432 -21 c 0
 251 -25 111 75 111 263 c 0
751 302 m 1
 751 490 l 1
 751 490 658 481 635 478 c 0
 374 447 285 402 285 262 c 0
 285 152 362 102 445 102 c 0
 586 102 697 175 751 302 c 1
EndSplineSet
EndChar

StartChar: uni0203
Encoding: 515 515 424
Width: 1057
Flags: W
LayerCount: 2
Fore
SplineSet
111 263 m 0
 111 478 291 562 576 583 c 0
 622 587 751 597 751 597 c 1
 751 685 l 2
 751 823 681 886 538 886 c 0
 442 886 305 858 211 812 c 1
 203 831 171 916 164 935 c 1
 250 983 405 1019 534 1019 c 0
 778 1019 926 927 926 661 c 2
 926 0 l 1
 785 0 l 1
 780 24 763 125 758 149 c 1
 658 19 561 -18 432 -21 c 0
 251 -25 111 75 111 263 c 0
751 302 m 1
 751 490 l 1
 751 490 658 481 635 478 c 0
 374 447 285 402 285 262 c 0
 285 152 362 102 445 102 c 0
 586 102 697 175 751 302 c 1
512 1310 m 0
 578 1310 636 1269 636 1182 c 1
 742 1182 l 1
 742 1339 625 1417 512 1417 c 0
 400 1417 286 1339 286 1182 c 1
 391 1182 l 1
 391 1269 446 1310 512 1310 c 0
EndSplineSet
EndChar

StartChar: uni0205
Encoding: 517 517 425
Width: 1030
Flags: W
LayerCount: 2
Fore
SplineSet
262 582 m 1
 783 582 l 1
 778 779 709 888 548 888 c 0
 392 888 279 772 262 582 c 1
86 496 m 0
 86 805 280 1019 543 1019 c 0
 800 1019 947 832 947 553 c 0
 947 530 941 469 941 469 c 1
 258 469 l 1
 262 240 397 112 587 112 c 0
 712 112 813 151 901 197 c 1
 925 65 l 1
 829 7 711 -21 562 -21 c 0
 273 -21 86 176 86 496 c 0
EndSplineSet
EndChar

StartChar: uni0207
Encoding: 519 519 426
Width: 1030
Flags: W
LayerCount: 2
Fore
SplineSet
262 582 m 1
 783 582 l 1
 778 779 709 888 548 888 c 0
 392 888 279 772 262 582 c 1
86 496 m 0
 86 805 280 1019 543 1019 c 0
 800 1019 947 832 947 553 c 0
 947 530 941 469 941 469 c 1
 258 469 l 1
 262 240 397 112 587 112 c 0
 712 112 813 151 901 197 c 1
 925 65 l 1
 829 7 711 -21 562 -21 c 0
 273 -21 86 176 86 496 c 0
513 1310 m 0
 579 1310 637 1269 637 1182 c 1
 743 1182 l 1
 743 1339 626 1417 513 1417 c 0
 401 1417 287 1339 287 1182 c 1
 392 1182 l 1
 392 1269 447 1310 513 1310 c 0
EndSplineSet
EndChar

StartChar: uni0209
Encoding: 521 521 427
Width: 413
Flags: W
LayerCount: 2
Fore
SplineSet
130 0 m 1
 284 0 l 1
 284 999 l 1
 130 999 l 1
 130 0 l 1
EndSplineSet
EndChar

StartChar: uni020B
Encoding: 523 523 428
Width: 413
Flags: W
LayerCount: 2
Fore
SplineSet
130 0 m 1
 284 0 l 1
 284 999 l 1
 130 999 l 1
 130 0 l 1
205 1310 m 0
 271 1310 329 1269 329 1182 c 1
 435 1182 l 1
 435 1339 318 1417 205 1417 c 0
 93 1417 -21 1339 -21 1182 c 1
 84 1182 l 1
 84 1269 139 1310 205 1310 c 0
EndSplineSet
EndChar

StartChar: uni020D
Encoding: 525 525 429
Width: 1104
Flags: W
LayerCount: 2
Fore
SplineSet
86 499 m 0
 86 804 257 1019 552 1019 c 0
 847 1019 1018 804 1018 499 c 0
 1018 200 837 -21 552 -21 c 0
 267 -21 86 200 86 499 c 0
843 497 m 0
 843 719 758 886 552 886 c 0
 346 886 260 719 260 497 c 0
 260 279 345 112 552 112 c 0
 759 112 843 279 843 497 c 0
EndSplineSet
EndChar

StartChar: uni020F
Encoding: 527 527 430
Width: 1104
Flags: W
LayerCount: 2
Fore
SplineSet
86 499 m 0
 86 804 257 1019 552 1019 c 0
 847 1019 1018 804 1018 499 c 0
 1018 200 837 -21 552 -21 c 0
 267 -21 86 200 86 499 c 0
843 497 m 0
 843 719 758 886 552 886 c 0
 346 886 260 719 260 497 c 0
 260 279 345 112 552 112 c 0
 759 112 843 279 843 497 c 0
544 1310 m 0
 610 1310 668 1269 668 1182 c 1
 774 1182 l 1
 774 1339 657 1417 544 1417 c 0
 432 1417 318 1339 318 1182 c 1
 423 1182 l 1
 423 1269 478 1310 544 1310 c 0
EndSplineSet
EndChar

StartChar: uni0211
Encoding: 529 529 431
Width: 704
Flags: W
LayerCount: 2
Fore
SplineSet
147 998 m 1
 147 0 l 1
 322 0 l 1
 322 561 l 2
 322 732 435 869 609 869 c 0
 631 869 655 867 681 862 c 1
 687 1002 l 1
 664 1006 639 1007 612 1007 c 0
 488 1007 376 928 310 819 c 1
 296 998 l 1
 147 998 l 1
EndSplineSet
EndChar

StartChar: uni0213
Encoding: 531 531 432
Width: 704
Flags: W
LayerCount: 2
Fore
SplineSet
147 998 m 1
 147 0 l 1
 322 0 l 1
 322 561 l 2
 322 732 435 869 609 869 c 0
 631 869 655 867 681 862 c 1
 687 1002 l 1
 664 1006 639 1007 612 1007 c 0
 488 1007 376 928 310 819 c 1
 296 998 l 1
 147 998 l 1
417 1310 m 0
 483 1310 541 1269 541 1182 c 1
 647 1182 l 1
 647 1339 530 1417 417 1417 c 0
 305 1417 191 1339 191 1182 c 1
 296 1182 l 1
 296 1269 351 1310 417 1310 c 0
EndSplineSet
EndChar

StartChar: uni0215
Encoding: 533 533 433
Width: 1110
Flags: W
LayerCount: 2
Fore
SplineSet
961 998 m 1
 961 0 l 1
 813 0 l 1
 794 143 l 1
 719 49 623 -21 480 -21 c 0
 250 -21 146 119 146 387 c 2
 146 998 l 1
 320 998 l 1
 320 375 l 2
 320 210 357 109 510 109 c 0
 672 109 747 197 777 312 c 1
 783 355 786 401 786 452 c 2
 786 998 l 1
 961 998 l 1
EndSplineSet
EndChar

StartChar: uni0217
Encoding: 535 535 434
Width: 1110
Flags: W
LayerCount: 2
Fore
SplineSet
961 998 m 1
 961 0 l 1
 813 0 l 1
 794 143 l 1
 719 49 623 -21 480 -21 c 0
 250 -21 146 119 146 387 c 2
 146 998 l 1
 320 998 l 1
 320 375 l 2
 320 210 357 109 510 109 c 0
 672 109 747 197 777 312 c 1
 783 355 786 401 786 452 c 2
 786 998 l 1
 961 998 l 1
552 1310 m 0
 618 1310 676 1269 676 1182 c 1
 782 1182 l 1
 782 1339 665 1417 552 1417 c 0
 440 1417 326 1339 326 1182 c 1
 431 1182 l 1
 431 1269 486 1310 552 1310 c 0
EndSplineSet
EndChar

StartChar: uni021B
Encoding: 539 539 435
Width: 718
Flags: W
LayerCount: 2
Fore
SplineSet
681 13 m 1
 654 139 l 1
 609 122 553 114 518 114 c 0
 407 114 367 160 367 313 c 2
 367 885 l 1
 658 885 l 1
 658 998 l 1
 367 998 l 1
 367 1230 l 1
 243 1227 l 1
 191 998 l 1
 50 986 l 1
 44 885 l 1
 192 885 l 1
 192 313 l 2
 192 104 289 -18 489 -18 c 0
 528 -18 619 -13 681 13 c 1
EndSplineSet
EndChar

StartChar: uni021F
Encoding: 543 543 436
Width: 1091
Flags: W
LayerCount: 2
Fore
SplineSet
460 1594 m 1
 654 1594 l 1
 824 1947 l 1
 703 1947 l 1
 556 1664 l 1
 409 1947 l 1
 290 1947 l 1
 460 1594 l 1
147 1417 m 1
 322 1431 l 1
 322 1058 l 1
 322 864 l 1
 396 953 491 1019 629 1019 c 0
 859 1019 963 880 963 612 c 2
 963 0 l 1
 788 0 l 1
 788 623 l 2
 788 788 752 889 599 889 c 0
 437 889 361 801 331 686 c 1
 325 643 322 597 322 546 c 2
 322 0 l 1
 147 0 l 1
 147 1417 l 1
EndSplineSet
EndChar

StartChar: uni0227
Encoding: 551 551 437
Width: 1057
Flags: W
LayerCount: 2
Fore
SplineSet
111 263 m 0
 111 478 291 562 576 583 c 0
 622 587 751 597 751 597 c 1
 751 685 l 2
 751 823 681 886 538 886 c 0
 442 886 305 858 211 812 c 1
 203 831 171 916 164 935 c 1
 250 983 405 1019 534 1019 c 0
 778 1019 926 927 926 661 c 2
 926 0 l 1
 785 0 l 1
 780 24 763 125 758 149 c 1
 658 19 561 -18 432 -21 c 0
 251 -25 111 75 111 263 c 0
751 302 m 1
 751 490 l 1
 751 490 658 481 635 478 c 0
 374 447 285 402 285 262 c 0
 285 152 362 102 445 102 c 0
 586 102 697 175 751 302 c 1
453 1180 m 1
 606 1180 l 1
 606 1360 l 1
 453 1360 l 1
 453 1180 l 1
EndSplineSet
EndChar

StartChar: uni0229
Encoding: 553 553 438
Width: 1030
Flags: W
LayerCount: 2
Fore
SplineSet
380 -396 m 1
 520 -396 l 1
 560 -8 l 1
 482 -8 l 1
 380 -396 l 1
262 582 m 1
 783 582 l 1
 778 779 709 888 548 888 c 0
 392 888 279 772 262 582 c 1
86 496 m 0
 86 805 280 1019 543 1019 c 0
 800 1019 947 832 947 553 c 0
 947 530 941 469 941 469 c 1
 258 469 l 1
 262 240 397 112 587 112 c 0
 712 112 813 151 901 197 c 1
 925 65 l 1
 829 7 711 -21 562 -21 c 0
 273 -21 86 176 86 496 c 0
EndSplineSet
EndChar

StartChar: uni022B
Encoding: 555 555 439
Width: 1104
Flags: W
LayerCount: 2
Fore
SplineSet
182 1538 m 1
 910 1538 l 1
 910 1665 l 1
 182 1665 l 1
 182 1538 l 1
298 1182 m 1
 439 1182 l 1
 439 1375 l 1
 298 1375 l 1
 298 1182 l 1
653 1182 m 1
 794 1182 l 1
 794 1375 l 1
 653 1375 l 1
 653 1182 l 1
86 499 m 0
 86 804 257 1019 552 1019 c 0
 847 1019 1018 804 1018 499 c 0
 1018 200 837 -21 552 -21 c 0
 267 -21 86 200 86 499 c 0
843 497 m 0
 843 719 758 886 552 886 c 0
 346 886 260 719 260 497 c 0
 260 279 345 112 552 112 c 0
 759 112 843 279 843 497 c 0
EndSplineSet
EndChar

StartChar: uni0231
Encoding: 561 561 440
Width: 1092
Flags: W
LayerCount: 2
Fore
SplineSet
182 1525 m 1
 910 1525 l 1
 910 1652 l 1
 182 1652 l 1
 182 1525 l 1
476 1181 m 1
 629 1181 l 1
 629 1361 l 1
 476 1361 l 1
 476 1181 l 1
86 499 m 0
 86 804 257 1019 552 1019 c 0
 847 1019 1018 804 1018 499 c 0
 1018 200 837 -21 552 -21 c 0
 267 -21 86 200 86 499 c 0
843 497 m 0
 843 719 758 886 552 886 c 0
 346 886 260 719 260 497 c 0
 260 279 345 112 552 112 c 0
 759 112 843 279 843 497 c 0
EndSplineSet
EndChar

StartChar: uni0233
Encoding: 563 563 441
Width: 1004
Flags: W
LayerCount: 2
Fore
SplineSet
139 1182 m 1
 867 1182 l 1
 867 1309 l 1
 139 1309 l 1
 139 1182 l 1
82 -412 m 1
 76 -281 l 1
 85 -284 196 -294 221 -294 c 0
 315 -294 378 -268 424 -124 c 0
 437 -84 460 33 460 33 c 1
 22 998 l 1
 210 998 l 1
 541 199 l 1
 795 998 l 1
 983 998 l 1
 983 998 586 -127 573 -161 c 0
 496 -365 405 -429 242 -429 c 0
 211 -429 102 -417 82 -412 c 1
EndSplineSet
EndChar

StartChar: uni1E03
Encoding: 7683 7683 442
Width: 1165
Flags: W
LayerCount: 2
Fore
SplineSet
322 163 m 1
 305 0 l 1
 147 0 l 1
 147 1417 l 1
 322 1431 l 1
 322 1053 l 2
 322 991 321 928 317 862 c 1
 383 955 509 1019 641 1019 c 0
 901 1019 1079 802 1079 504 c 0
 1079 198 919 -21 640 -21 c 0
 503 -21 377 45 322 163 c 1
904 499 m 0
 904 738 804 891 613 891 c 0
 398 891 322 741 322 482 c 0
 322 252 408 108 614 108 c 0
 808 108 904 265 904 499 c 0
539 1594 m 1
 692 1594 l 1
 692 1774 l 1
 539 1774 l 1
 539 1594 l 1
EndSplineSet
EndChar

StartChar: uni1E0B
Encoding: 7691 7691 443
Width: 1165
Flags: W
LayerCount: 2
Fore
SplineSet
86 504 m 0
 86 807 263 1019 523 1019 c 0
 655 1019 781 955 847 862 c 1
 843 928 843 991 843 1053 c 2
 843 1417 l 1
 1018 1431 l 1
 1018 0 l 1
 860 0 l 1
 843 163 l 1
 788 45 661 -21 524 -21 c 0
 245 -21 86 198 86 504 c 0
843 482 m 0
 843 741 767 891 552 891 c 0
 361 891 260 738 260 499 c 0
 260 265 357 108 551 108 c 0
 757 108 843 252 843 482 c 0
474 1594 m 1
 627 1594 l 1
 627 1774 l 1
 474 1774 l 1
 474 1594 l 1
EndSplineSet
EndChar

StartChar: uni1E1F
Encoding: 7711 7711 444
Width: 670
Flags: W
LayerCount: 2
Fore
SplineSet
223 0 m 1
 223 886 l 1
 49 886 l 1
 54 981 l 1
 223 998 l 1
 223 1061 l 2
 223 1318 337 1410 515 1410 c 0
 560 1410 655 1398 673 1394 c 1
 661 1263 l 1
 636 1267 591 1273 555 1273 c 0
 453 1273 398 1230 398 1055 c 2
 398 998 l 1
 631 998 l 1
 631 886 l 1
 398 886 l 1
 398 0 l 1
 223 0 l 1
291 1573 m 1
 444 1573 l 1
 444 1753 l 1
 291 1753 l 1
 291 1573 l 1
EndSplineSet
EndChar

StartChar: uni1E41
Encoding: 7745 7745 445
Width: 1674
Flags: W
LayerCount: 2
Fore
SplineSet
318 525 m 2
 318 0 l 1
 149 0 l 1
 149 0 147 936 147 998 c 1
 292 998 l 1
 310 855 l 1
 362 939 462 1019 605 1019 c 0
 788 1019 855 920 882 842 c 1
 951 962 1081 1019 1216 1019 c 0
 1428 1019 1546 886 1546 642 c 2
 1546 0 l 1
 1377 0 l 1
 1377 520 l 2
 1377 734 1358 889 1191 889 c 0
 1057 889 979 813 941 684 c 1
 937 640 934 586 934 535 c 2
 934 0 l 1
 765 0 l 1
 765 563 l 2
 765 787 720 889 582 889 c 0
 432 889 356 797 325 677 c 1
 320 631 318 581 318 525 c 2
816 1182 m 1
 969 1182 l 1
 969 1362 l 1
 816 1362 l 1
 816 1182 l 1
EndSplineSet
EndChar

StartChar: uni1E57
Encoding: 7767 7767 446
Width: 1165
Flags: W
LayerCount: 2
Fore
SplineSet
147 998 m 1
 147 -433 l 1
 322 -423 l 1
 322 -55 l 2
 322 7 321 88 317 154 c 1
 373 48 509 -21 641 -21 c 0
 911 -21 1079 196 1079 494 c 0
 1079 800 929 1019 650 1019 c 0
 513 1019 379 956 322 835 c 1
 305 998 l 1
 147 998 l 1
322 516 m 0
 322 746 412 890 618 890 c 0
 812 890 904 734 904 500 c 0
 904 261 808 107 617 107 c 0
 430 107 322 257 322 516 c 0
539 1182 m 1
 692 1182 l 1
 692 1362 l 1
 539 1362 l 1
 539 1182 l 1
EndSplineSet
EndChar

StartChar: uni1E61
Encoding: 7777 7777 447
Width: 798
Flags: W
LayerCount: 2
Fore
SplineSet
747 269 m 1
 747 420 670 502 468 568 c 0
 440 577 427 586 404 593 c 0
 259 642 220 672 220 751 c 0
 220 836 286 886 412 886 c 0
 508 886 587 860 664 828 c 1
 709 954 l 1
 620 996 530 1019 412 1019 c 0
 186 1019 69 896 69 745 c 1
 70 620 137 538 314 473 c 1
 382 447 l 1
 565 381 605 350 605 262 c 0
 605 162 533 112 394 112 c 0
 275 112 182 152 116 187 c 1
 76 56 l 1
 142 13 251 -21 394 -21 c 0
 612 -21 744 82 747 269 c 1
323 1181 m 1
 476 1181 l 1
 476 1361 l 1
 323 1361 l 1
 323 1181 l 1
EndSplineSet
EndChar

StartChar: uni1E6B
Encoding: 7787 7787 448
Width: 718
Flags: W
LayerCount: 2
Fore
SplineSet
681 13 m 1
 654 139 l 1
 609 122 553 114 518 114 c 0
 407 114 367 160 367 313 c 2
 367 885 l 1
 658 885 l 1
 658 998 l 1
 367 998 l 1
 367 1230 l 1
 243 1227 l 1
 191 998 l 1
 50 986 l 1
 44 885 l 1
 192 885 l 1
 192 313 l 2
 192 104 289 -18 489 -18 c 0
 528 -18 619 -13 681 13 c 1
286 1393 m 1
 439 1393 l 1
 439 1573 l 1
 286 1573 l 1
 286 1393 l 1
EndSplineSet
EndChar

StartChar: uni1EBD
Encoding: 7869 7869 449
Width: 1030
Flags: W
LayerCount: 2
Fore
SplineSet
262 582 m 1
 783 582 l 1
 778 779 709 888 548 888 c 0
 392 888 279 772 262 582 c 1
86 496 m 0
 86 805 280 1019 543 1019 c 0
 800 1019 947 832 947 553 c 0
 947 530 941 469 941 469 c 1
 258 469 l 1
 262 240 397 112 587 112 c 0
 712 112 813 151 901 197 c 1
 925 65 l 1
 829 7 711 -21 562 -21 c 0
 273 -21 86 176 86 496 c 0
385 1374 m 0
 498 1374 654 1289 654 1289 c 1
 690 1292 693 1336 696 1374 c 1
 796 1374 l 1
 796 1249 756 1175 660 1175 c 0
 578 1175 376 1263 376 1263 c 1
 346 1262 329 1225 326 1175 c 1
 229 1175 l 1
 229 1311 288 1374 385 1374 c 0
EndSplineSet
EndChar

